<?xml version="1.0" encoding="UTF-8"?><svg id="Layer_1" xmlns="http://www.w3.org/2000/svg" xmlns:xlink="http://www.w3.org/1999/xlink" viewBox="0 0 720 720.01"><defs><style>.cls-1,.cls-2,.cls-3,.cls-4{opacity:.9;}.cls-1,.cls-3,.cls-4,.cls-5{isolation:isolate;}.cls-1,.cls-6,.cls-4,.cls-7{fill:#61a47e;}.cls-8{fill:url(#linear-gradient-2);}.cls-9{fill:url(#linear-gradient-17);}.cls-10{fill:url(#linear-gradient-15);}.cls-11{fill:url(#Unnamed_Pattern-3);}.cls-12{fill:url(#linear-gradient-18);}.cls-13{fill:#6aa7db;}.cls-14{fill:url(#linear-gradient-14);}.cls-15{fill:url(#linear-gradient-20);}.cls-16{fill:url(#linear-gradient-6);}.cls-6,.cls-4{stroke:#f4f9f6;stroke-miterlimit:10;}.cls-17{fill:url(#linear-gradient-11);}.cls-18,.cls-5{fill:#395453;}.cls-19{fill:url(#linear-gradient-10);}.cls-20{fill:url(#linear-gradient-16);}.cls-21{fill:#2a7bbf;}.cls-22{fill:url(#linear-gradient-21);}.cls-23{fill:url(#linear-gradient-25);}.cls-24{fill:url(#linear-gradient-5);}.cls-25{fill:#23689e;}.cls-26{fill:none;}.cls-27{opacity:.81;}.cls-28{fill:url(#linear-gradient-7);}.cls-29{fill:url(#linear-gradient-24);}.cls-30{fill:url(#linear-gradient-9);}.cls-31{fill:url(#linear-gradient-22);}.cls-32{fill:url(#linear-gradient-3);}.cls-5{opacity:.8;}.cls-33{fill:url(#linear-gradient);}.cls-34{fill:#36386b;}.cls-35{fill:url(#linear-gradient-23);}.cls-36{fill:url(#linear-gradient-19);}.cls-37{fill:url(#linear-gradient-4);}.cls-38{fill:url(#linear-gradient-8);}.cls-39{fill:url(#linear-gradient-12);}.cls-40{fill:url(#linear-gradient-13);}.cls-41{fill:url(#linear-gradient-26);}</style><linearGradient id="linear-gradient" x1="571.9" y1="323.75" x2="652.81" y2="275.76" gradientTransform="translate(31.71 720.67) rotate(3) scale(1 -1)" gradientUnits="userSpaceOnUse"><stop offset="0" stop-color="#d5d5d5"/><stop offset="1" stop-color="#fff"/></linearGradient><linearGradient id="linear-gradient-2" x1="504.99" y1="146.79" x2="574.32" y2="146.79" xlink:href="#linear-gradient"/><linearGradient id="linear-gradient-3" x1="42.62" y1="150.5" x2="113.13" y2="150.5" xlink:href="#linear-gradient"/><linearGradient id="linear-gradient-4" x1="388.01" y1="652.76" x2="406.33" y2="730.41" gradientTransform="translate(31.71 720.67) rotate(3) scale(1 -1)" gradientUnits="userSpaceOnUse"><stop offset="0" stop-color="#b7b7b7"/><stop offset=".15" stop-color="#c3c3c3"/><stop offset=".71" stop-color="#eee"/><stop offset="1" stop-color="#fff"/></linearGradient><linearGradient id="linear-gradient-5" x1="518.79" y1="575.85" x2="567.44" y2="640.93" xlink:href="#linear-gradient"/><linearGradient id="linear-gradient-6" x1="237.36" y1="660.35" x2="221.11" y2="723.9" gradientTransform="translate(31.71 720.67) rotate(3) scale(1 -1)" gradientUnits="userSpaceOnUse"><stop offset="0" stop-color="#b7b7b7"/><stop offset="1" stop-color="#fff"/></linearGradient><linearGradient id="linear-gradient-7" x1="607.63" y1="460.29" x2="659.11" y2="460.29" xlink:href="#linear-gradient"/><linearGradient id="linear-gradient-8" x1="176.76" y1="56.99" x2="271.71" y2="56.99" xlink:href="#linear-gradient"/><linearGradient id="linear-gradient-9" x1="343.9" y1="56.32" x2="439.29" y2="56.32" xlink:href="#linear-gradient"/><linearGradient id="linear-gradient-10" x1="-35.27" y1="465.75" x2="20.76" y2="465.75" xlink:href="#linear-gradient"/><linearGradient id="linear-gradient-11" x1="47.34" y1="611.06" x2="114.44" y2="611.06" xlink:href="#linear-gradient"/><linearGradient id="linear-gradient-12" x1="-37.39" y1="294.68" x2="17.61" y2="294.68" xlink:href="#linear-gradient"/><linearGradient id="linear-gradient-13" x1="569.06" y1="320.91" x2="649.96" y2="272.92" gradientTransform="translate(31.71 720.67) rotate(3) scale(1 -1)" gradientUnits="userSpaceOnUse"><stop offset="0" stop-color="#e0dfdf"/><stop offset="1" stop-color="#fff"/></linearGradient><linearGradient id="linear-gradient-14" x1="502.15" y1="143.95" x2="571.47" y2="143.95" xlink:href="#linear-gradient-13"/><linearGradient id="linear-gradient-15" x1="39.77" y1="147.66" x2="110.28" y2="147.66" xlink:href="#linear-gradient-13"/><linearGradient id="linear-gradient-16" x1="385.15" y1="649.92" x2="403.49" y2="727.57" gradientTransform="translate(31.71 720.67) rotate(3) scale(1 -1)" gradientUnits="userSpaceOnUse"><stop offset="0" stop-color="#c2c1c0"/><stop offset=".05" stop-color="#c5c4c3"/><stop offset=".68" stop-color="#efeeee"/><stop offset="1" stop-color="#fff"/></linearGradient><linearGradient id="linear-gradient-17" x1="515.95" y1="573" x2="564.58" y2="638.09" xlink:href="#linear-gradient-13"/><linearGradient id="linear-gradient-18" x1="234.52" y1="657.52" x2="218.26" y2="721.06" gradientTransform="translate(31.71 720.67) rotate(3) scale(1 -1)" gradientUnits="userSpaceOnUse"><stop offset="0" stop-color="#c2c1c0"/><stop offset="1" stop-color="#fff"/></linearGradient><linearGradient id="linear-gradient-19" x1="604.79" y1="457.45" x2="656.27" y2="457.45" xlink:href="#linear-gradient-13"/><linearGradient id="linear-gradient-20" x1="173.91" y1="54.15" x2="268.87" y2="54.15" xlink:href="#linear-gradient-13"/><linearGradient id="linear-gradient-21" x1="341.06" y1="53.47" x2="436.45" y2="53.47" xlink:href="#linear-gradient-13"/><linearGradient id="linear-gradient-22" x1="-38.11" y1="462.91" x2="17.91" y2="462.91" xlink:href="#linear-gradient-13"/><linearGradient id="linear-gradient-23" x1="44.5" y1="608.22" x2="111.6" y2="608.22" xlink:href="#linear-gradient-13"/><linearGradient id="linear-gradient-24" x1="-40.24" y1="291.85" x2="14.77" y2="291.85" xlink:href="#linear-gradient-13"/><linearGradient id="linear-gradient-25" x1="214.3" y1="149.52" x2="532.23" y2="604.25" gradientTransform="translate(0 717.58) scale(1 -1)" gradientUnits="userSpaceOnUse"><stop offset="0" stop-color="#fff"/><stop offset="1" stop-color="#e0dfdf"/></linearGradient><linearGradient id="linear-gradient-26" x1="161.71" y1="166.18" x2="478.68" y2="619.53" gradientTransform="translate(31.71 720.67) rotate(3) scale(1 -1)" gradientUnits="userSpaceOnUse"><stop offset="0" stop-color="#e0dfdf"/><stop offset=".22" stop-color="#eae9e9"/><stop offset=".66" stop-color="#f9f9f9"/><stop offset="1" stop-color="#fff"/></linearGradient><pattern id="Unnamed_Pattern-3" x="0" y="0" width="103" height="96.45" patternTransform="translate(-10663.43 -4468.85) scale(.31 -.31)" patternUnits="userSpaceOnUse" viewBox="0 0 103 96.45"><g><rect class="cls-26" width="103" height="96.45"/><g><rect class="cls-26" width="103" height="96.45"/><polygon class="cls-21" points="122 -25.19 127.8 -19.39 122 -13.59 122 -5.39 113.8 -5.39 108 .41 102.2 -5.39 94 -5.39 94 -13.59 88.2 -19.39 94 -25.19 94 -33.39 102.2 -33.39 108 -39.19 113.8 -33.39 122 -33.39 122 -25.19"/><polygon class="cls-21" points="70.5 -25.19 76.3 -19.39 70.5 -13.59 70.5 -5.39 62.3 -5.39 56.5 .41 50.7 -5.39 42.5 -5.39 42.5 -13.59 36.7 -19.39 42.5 -25.19 42.5 -33.39 50.7 -33.39 56.5 -39.19 62.3 -33.39 70.5 -33.39 70.5 -25.19"/><polygon class="cls-21" points="19 -25.19 24.8 -19.39 19 -13.59 19 -5.39 10.8 -5.39 5 .41 -.8 -5.39 -9 -5.39 -9 -13.59 -14.8 -19.39 -9 -25.19 -9 -33.39 -.8 -33.39 5 -39.19 10.8 -33.39 19 -33.39 19 -25.19"/><g><polygon class="cls-21" points="96.25 23.04 102.05 28.84 96.25 34.64 96.25 42.84 88.05 42.84 82.25 48.64 76.45 42.84 68.25 42.84 68.25 34.64 62.45 28.84 68.25 23.04 68.25 14.84 76.45 14.84 82.25 9.04 88.05 14.84 96.25 14.84 96.25 23.04"/><polygon class="cls-13" points="90.2 25.54 93.5 28.84 90.2 32.13 90.2 36.79 85.55 36.79 82.25 40.09 78.95 36.79 74.3 36.79 74.3 32.13 71 28.84 74.3 25.54 74.3 20.88 78.95 20.88 82.25 17.59 85.55 20.88 90.2 20.88 90.2 25.54"/></g><g><polygon class="cls-21" points="44.75 23.04 50.55 28.84 44.75 34.64 44.75 42.84 36.55 42.84 30.75 48.64 24.95 42.84 16.75 42.84 16.75 34.64 10.95 28.84 16.75 23.04 16.75 14.84 24.95 14.84 30.75 9.04 36.55 14.84 44.75 14.84 44.75 23.04"/><polygon class="cls-13" points="38.7 25.54 42 28.84 38.7 32.13 38.7 36.79 34.05 36.79 30.75 40.09 27.45 36.79 22.8 36.79 22.8 32.13 19.5 28.84 22.8 25.54 22.8 20.88 27.45 20.88 30.75 17.59 34.05 20.88 38.7 20.88 38.7 25.54"/></g><g><polygon class="cls-21" points="122 71.26 127.8 77.06 122 82.86 122 91.06 113.8 91.06 108 96.86 102.2 91.06 94 91.06 94 82.86 88.2 77.06 94 71.26 94 63.06 102.2 63.06 108 57.26 113.8 63.06 122 63.06 122 71.26"/><polygon class="cls-13" points="115.95 73.77 119.25 77.06 115.95 80.36 115.95 85.02 111.3 85.02 108 88.31 104.7 85.02 100.05 85.02 100.05 80.36 96.75 77.06 100.05 73.77 100.05 69.11 104.7 69.11 108 65.81 111.3 69.11 115.95 69.11 115.95 73.77"/></g><g><polygon class="cls-21" points="70.5 71.26 76.3 77.06 70.5 82.86 70.5 91.06 62.3 91.06 56.5 96.86 50.7 91.06 42.5 91.06 42.5 82.86 36.7 77.06 42.5 71.26 42.5 63.06 50.7 63.06 56.5 57.26 62.3 63.06 70.5 63.06 70.5 71.26"/><polygon class="cls-13" points="64.45 73.77 67.75 77.06 64.45 80.36 64.45 85.02 59.8 85.02 56.5 88.31 53.2 85.02 48.55 85.02 48.55 80.36 45.25 77.06 48.55 73.77 48.55 69.11 53.2 69.11 56.5 65.81 59.8 69.11 64.45 69.11 64.45 73.77"/></g><g><polygon class="cls-21" points="19 71.26 24.8 77.06 19 82.86 19 91.06 10.8 91.06 5 96.86 -.8 91.06 -9 91.06 -9 82.86 -14.8 77.06 -9 71.26 -9 63.06 -.8 63.06 5 57.26 10.8 63.06 19 63.06 19 71.26"/><polygon class="cls-13" points="12.95 73.77 16.25 77.06 12.95 80.36 12.95 85.02 8.3 85.02 5 88.31 1.7 85.02 -2.95 85.02 -2.95 80.36 -6.25 77.06 -2.95 73.77 -2.95 69.11 1.7 69.11 5 65.81 8.3 69.11 12.95 69.11 12.95 73.77"/></g></g></g></pattern></defs><g id="Layer_1-2"><g><g><path class="cls-18" d="M333.55,240.56s.04,.05,.06,.08c4.96-19.25,12.59-38.78,22.82-57.87-.02-.04-.03-.06-.05-.1-1.57-3.64-3.32-7.28-5.17-10.88-12.42-24.33-28.23-45.7-45.74-62.91-8.97,22.89-14.73,48.9-16.17,76.24-.2,3.86-.31,7.74-.33,11.57,17.2,13.36,32.2,28.23,44.56,43.88h0Z"/><g><path class="cls-7" d="M469.72,192.45v.04c28.75-14.3,58.45-23.15,86.71-26.47,4.68-33.03,.18-63.4-14.33-84.92-25.52-4.45-55.08,3.69-83.36,21.3h0c8.43,27.17,12.46,57.94,10.96,90.03v.02Z"/><path class="cls-1" d="M469.72,192.45v.04c28.75-14.3,58.45-23.15,86.71-26.47,4.68-33.03,.18-63.4-14.33-84.92-25.52-4.45-55.08,3.69-83.36,21.3h0c8.43,27.17,12.46,57.94,10.96,90.03v.02Z"/></g><path class="cls-7" d="M295.07,398.99h0c-5.15,.16-10.37,.13-15.68-.11-3.77-.17-7.58-.42-11.43-.83-15.38,8.41-30.35,19.23-44.06,32.03h0c20.05-1.96,38.98-5.95,55.93-11.63,4.66-6.98,9.75-13.49,15.23-19.46h0Z"/><path class="cls-18" d="M240.39,510.4c3.46-1.76,6.85-3.61,10.2-5.5,3-21.53,8.4-41.88,15.79-60.4-19.19,5.31-40.01,8.51-61.73,9.23-2.31,3.22-4.58,6.5-6.78,9.87-14.88,22.87-25.47,47.19-31.7,70.9,24.35-3.68,49.79-11.68,74.21-24.1h0Z"/><path class="cls-25" d="M105.41,415.22h0c22.94,8.95,49.01,14.7,76.41,16.13,3.87,.2,7.75,.31,11.58,.33,13.39-17.16,28.29-32.1,43.98-44.47-19.31-4.93-38.9-12.56-58.02-22.79h0c-3.65,1.64-7.28,3.34-10.89,5.18-24.36,12.39-45.79,28.17-63.07,45.62h0Z"/><path class="cls-7" d="M105.41,415.22h0c22.94,8.95,49.01,14.7,76.41,16.13,3.87,.2,7.75,.31,11.58,.33,13.39-17.16,28.29-32.1,43.98-44.47-19.31-4.93-38.9-12.56-58.02-22.79h0c-3.65,1.64-7.28,3.34-10.89,5.18-24.36,12.39-45.79,28.17-63.07,45.62h0Z"/><path class="cls-18" d="M170.77,333.66c3.26,2.11,6.58,4.17,9.91,6.11,.03,.02,.05,.03,.07,.05,20.19-8.17,40.54-13.67,60.31-16.54l-.06-.06c-14.26-13.9-27.46-30.29-38.9-48.74-3.96-.39-7.97-.69-11.98-.9-27.31-1.42-53.79,1.53-77.45,8.05,15.37,19.22,35.11,37.15,58.1,52.06h0Z"/><path class="cls-6" d="M272.01,320.84s.05,.04,.07,.05c9.32-.02,18.38,.59,27.11,1.86,0,0-.02-.03-.03-.04-4.7-7.45-8.9-15.47-12.67-24.02-16.17-8.41-34.51-15.05-54.22-19.4,12.01,16.23,25.52,30.28,39.74,41.54h0Z"/><path class="cls-25" d="M257.02,201.11c-22.95-14.86-47.33-25.46-71.11-31.64,3.67,24.29,11.74,49.68,24.2,74.06,1.76,3.46,3.57,6.84,5.48,10.16,0,.03,.02,.03,.05,0,21.54,3.02,41.98,8.42,60.52,15.8-5.33-19.16-8.55-39.96-9.26-61.65-3.21-2.33-6.52-4.58-9.87-6.74h0Z"/><path class="cls-7" d="M257.02,201.11c-22.95-14.86-47.33-25.46-71.11-31.64,3.67,24.29,11.74,49.68,24.2,74.06,1.76,3.46,3.57,6.84,5.48,10.16,0,.03,.02,.03,.05,0,21.54,3.02,41.98,8.42,60.52,15.8-5.33-19.16-8.55-39.96-9.26-61.65-3.21-2.33-6.52-4.58-9.87-6.74h0Z"/><path class="cls-7" d="M366.81,457.42c-4.68-8.04-8.67-16.17-11.93-24.33-4.11,7.72-8.94,15.34-14.43,22.79,.77,18.2,4.14,37.41,10.2,56.73,8.07-18.51,13.42-37.22,16.15-55.19h0Z"/><path class="cls-6" d="M445.96,402.86c-3.65,0-7.28-.05-10.85-.23-5.6-.29-11.03-.92-16.38-1.7,4.68,7.46,8.91,15.51,12.67,24.04,16.17,8.4,34.55,15.05,54.31,19.45-12.02-16.2-25.53-30.25-39.74-41.58h0Z"/><path class="cls-25" d="M330.71,549.65c2.15-3.31,4.17-6.65,6.13-10.02-8.18-20.12-13.69-40.41-16.56-60.12-13.97,14.24-30.43,27.41-48.92,38.85-.39,3.96-.72,7.94-.93,11.95-1.43,27.24,1.55,53.64,8.06,77.28,19.26-15.35,37.29-35.01,52.21-57.96h0Z"/><path class="cls-7" d="M330.71,549.65c2.15-3.31,4.17-6.65,6.13-10.02-8.18-20.12-13.69-40.41-16.56-60.12-13.97,14.24-30.43,27.41-48.92,38.85-.39,3.96-.72,7.94-.93,11.95-1.43,27.24,1.55,53.64,8.06,77.28,19.26-15.35,37.29-35.01,52.21-57.96h0Z"/><path class="cls-25" d="M460.93,522.58c22.91,14.85,47.29,25.42,71.05,31.63-3.69-24.3-11.7-49.68-24.15-74.04-1.77-3.45-3.62-6.84-5.51-10.18-21.57-2.99-41.97-8.38-60.54-15.76,5.35,19.16,8.54,39.92,9.23,61.58,3.24,2.31,6.53,4.58,9.91,6.78h0Z"/><g class="cls-3"><path class="cls-6" d="M460.93,522.58c22.91,14.85,47.29,25.42,71.05,31.63-3.69-24.3-11.7-49.68-24.15-74.04-1.77-3.45-3.62-6.84-5.51-10.18-21.57-2.99-41.97-8.38-60.54-15.76,5.35,19.16,8.54,39.92,9.23,61.58,3.24,2.31,6.53,4.58,9.91,6.78h0Z"/></g><path class="cls-26" d="M351.21,171.77c-12.42-24.33-28.23-45.7-45.74-62.91-8.97,22.89-14.73,48.9-16.17,76.24-.2,3.86-.31,7.74-.33,11.57,17.2,13.36,32.2,28.23,44.56,43.87,.02,.03,.04,.05,.06,.08,4.96-19.25,12.59-38.78,22.82-57.87-.02-.04-.03-.06-.05-.1-1.57-3.64-3.32-7.28-5.17-10.88h0Z"/><path class="cls-18" d="M412.43,614.81c8.99-22.89,14.74-48.91,16.18-76.23,.2-3.87,.29-7.73,.33-11.57-17.22-13.38-32.21-28.27-44.6-43.96-4.96,19.25-12.59,38.79-22.82,57.88,1.66,3.67,3.37,7.34,5.23,10.97,12.41,24.31,28.23,45.66,45.7,62.9h0Z"/><path class="cls-25" d="M549.45,354.1c24.36-12.39,45.77-28.16,63.05-45.6-22.95-8.97-49.02-14.71-76.41-16.14-3.92-.2-7.82-.3-11.69-.33-13.41,17.17-28.29,32.14-43.99,44.49,19.31,4.94,38.91,12.56,58.07,22.79,3.68-1.66,7.35-3.36,10.99-5.21h0Z"/><path class="cls-7" d="M549.45,354.1c24.36-12.39,45.77-28.16,63.05-45.6-22.95-8.97-49.02-14.71-76.41-16.14-3.92-.2-7.82-.3-11.69-.33-13.41,17.17-28.29,32.14-43.99,44.49,19.31,4.94,38.91,12.56,58.07,22.79,3.68-1.66,7.35-3.36,10.99-5.21h0Z"/><path class="cls-18" d="M319.7,421.52c-7.46,4.68-15.5,8.89-24.02,12.64h-.02c-8.41,16.12-15.07,34.45-19.47,54.15,16.26-12,30.36-25.51,41.72-39.71-.03-9.33,.59-18.41,1.87-27.13-.03,.02-.05,.04-.08,.05h0Z"/><path class="cls-18" d="M327.88,271c-9.79-15.33-22.37-30.25-37.29-43.9,2.28,20.01,6.94,38.91,13.54,55.82,8.13,4.63,15.73,9.69,22.66,15.21,.03,.03,.06,.05,.09,.07-.31-8.8,.05-17.85,1.08-27.1-.03-.04-.05-.07-.06-.11h0Z"/><path class="cls-18" d="M422.23,289.59s.02-.03,.03-.05c8.43-16.13,15.08-34.43,19.45-54.1v-.03c-16.21,11.98-30.29,25.45-41.64,39.61v.05c.04,3.65-.05,7.25-.25,10.84-.29,5.51-.8,10.93-1.59,16.24,7.46-4.65,15.48-8.85,24-12.58h0Z"/><path class="cls-18" d="M427.34,496.6c-2.29-20.01-6.94-38.93-13.56-55.82-8.15-4.66-15.74-9.75-22.71-15.24,.31,8.77-.05,17.8-1.07,27.02,9.8,15.38,22.41,30.34,37.35,44.04h0Z"/><path class="cls-18" d="M477.54,213.31c-3.45,1.76-6.84,3.6-10.17,5.49v.04c-3.03,21.49-8.45,41.89-15.84,60.38,19.2-5.34,40.03-8.52,61.74-9.21,2.32-3.23,4.59-6.51,6.79-9.88,14.88-22.87,25.47-47.19,31.7-70.9-24.35,3.68-49.79,11.68-74.21,24.09h0Z"/><path class="cls-25" d="M387.21,174.05c-2.13,3.28-4.13,6.61-6.09,9.94,8.18,20.11,13.73,40.42,16.58,60.13,13.95-14.21,30.4-27.36,48.86-38.79,.39-3.95,.69-7.95,.9-11.95,1.43-27.24-1.53-53.65-8.06-77.25-19.25,15.34-37.26,34.99-52.19,57.93h0Z"/><g class="cls-3"><path class="cls-7" d="M387.21,174.05c-2.13,3.28-4.13,6.61-6.09,9.94,8.18,20.11,13.73,40.42,16.58,60.13,13.95-14.21,30.4-27.36,48.86-38.79,.39-3.95,.69-7.95,.9-11.95,1.43-27.24-1.53-53.65-8.06-77.25-19.25,15.34-37.26,34.99-52.19,57.93h0Z"/></g><path class="cls-6" d="M422.87,329.74s-.05,.06-.07,.09c8.78-.31,17.81,.05,27.04,1.07,15.42-9.77,30.43-22.36,44.17-37.26-20.06,2.28-39.02,6.93-55.96,13.54-4.63,8.09-9.69,15.67-15.17,22.57h0Z"/><path class="cls-18" d="M547.18,390.04c-3.28-2.12-6.6-4.11-9.93-6.06-20.17,8.16-40.52,13.66-60.28,16.53,14.24,13.93,27.41,30.32,38.86,48.73,3.96,.39,7.96,.71,11.98,.92,27.3,1.42,53.75-1.55,77.45-8.03-15.38-19.21-35.08-37.19-58.08-52.1Z"/><path class="cls-6" d="M367.27,211.07c-8.07,18.52-13.43,37.23-16.16,55.21,4.69,8.02,8.69,16.14,11.96,24.27,4.12-7.72,8.94-15.34,14.44-22.79v-.04c-.76-18.14-4.15-37.33-10.22-56.62,0,0,0-.03-.02-.04h0Z"/><path class="cls-18" d="M510.07,370.14c-18.59-8.06-37.38-13.42-55.42-16.13-8.03,4.65-16.16,8.65-24.31,11.89,7.75,4.11,15.4,8.93,22.88,14.42,18.24-.77,37.5-4.13,56.85-10.18h0Z"/><path class="cls-18" d="M264.64,343.38c-18.2,.78-37.42,4.13-56.74,10.16,18.5,8.08,37.22,13.48,55.17,16.18h.02c8.08-4.68,16.26-8.69,24.47-11.96,0,0-.03,0-.04-.02-7.73-4.05-15.41-8.87-22.89-14.36h0Z"/><path class="cls-18" d="M178.14,453.27c-32.09-1.9-62.24-9.16-88.39-20.35-20.6,26.27-31.85,54.82-30.08,80.69,19.89,16.6,49.59,24.23,82.9,23.09,6.3-27.75,18.28-56.35,35.62-83.42h-.05Z"/><path class="cls-7" d="M248.19,531.26c-28.75,14.3-58.43,23.09-86.69,26.4-4.68,33.04-.18,63.41,14.32,84.93,25.53,4.47,55.09-3.68,83.38-21.31-8.47-27.19-12.45-57.93-11-90.03Z"/><path class="cls-18" d="M347.92,563.77c-17.75,26.76-39.08,49.16-61.92,66.14,12.5,30.98,31.67,55.02,55.03,66.43,24.37-8.9,45.91-30.72,61.57-60.13-20.96-19.33-39.85-43.9-54.68-72.45h0Z"/><path class="cls-7" d="M83.9,405.37c19.37-20.91,44.06-39.74,72.65-54.54h0c-26.83-17.7-49.31-38.94-66.3-61.76-31.05,12.46-55.09,31.61-66.54,54.92,8.9,24.28,30.76,45.77,60.19,61.38h0Z"/><g><path class="cls-18" d="M528.71,472.37c14.34,28.68,23.2,58.3,26.52,86.5,33.1,4.67,63.53,.18,85.1-14.29,4.46-25.48-3.71-54.98-21.36-83.19-27.25,8.45-58.07,12.43-90.27,10.97h0Z"/><path class="cls-5" d="M528.71,472.37c14.34,28.68,23.2,58.3,26.52,86.5,33.1,4.67,63.53,.18,85.1-14.29,4.46-25.48-3.71-54.98-21.36-83.19-27.25,8.45-58.07,12.43-90.27,10.97h0Z"/></g><g><path class="cls-6" d="M450.62,542.27c-1.96,32-9.17,62.08-20.43,88.17,26.33,20.54,54.94,31.77,80.88,30.04,16.63-19.85,24.29-49.49,23.14-82.74-27.81-6.28-56.46-18.17-83.58-35.46h0Z"/><path class="cls-4" d="M450.62,542.27c-1.96,32-9.17,62.08-20.43,88.17,26.33,20.54,54.94,31.77,80.88,30.04,16.63-19.85,24.29-49.49,23.14-82.74-27.81-6.28-56.46-18.17-83.58-35.46h0Z"/></g><g><path class="cls-18" d="M628.16,290.79c20.61-26.28,31.86-54.83,30.09-80.7-19.89-16.6-49.59-24.23-82.9-23.09-6.3,27.74-18.27,56.33-35.6,83.39,32.09,1.96,62.26,9.15,88.41,20.4h0Z"/><g class="cls-27"><path class="cls-18" d="M628.16,290.79c20.61-26.28,31.86-54.83,30.09-80.7-19.89-16.6-49.59-24.23-82.9-23.09-6.3,27.74-18.27,56.33-35.6,83.39,32.09,1.96,62.26,9.15,88.41,20.4h0Z"/></g></g><g><path class="cls-6" d="M627.7,434.61c31.01-12.48,55.08-31.59,66.51-54.88-8.9-24.3-30.76-45.76-60.18-61.39-19.36,20.9-44.05,39.72-72.63,54.52,26.8,17.7,49.31,38.97,66.31,61.75h0Z"/><g class="cls-2"><path class="cls-6" d="M627.7,434.61c31.01-12.48,55.08-31.59,66.51-54.88-8.9-24.3-30.76-45.76-60.18-61.39-19.36,20.9-44.05,39.72-72.63,54.52,26.8,17.7,49.31,38.97,66.31,61.75h0Z"/></g></g><path class="cls-18" d="M189.19,251.34c-14.36-28.67-23.17-58.36-26.5-86.55-33.11-4.73-63.52-.13-85.09,14.3-4.48,25.47,3.68,54.99,21.36,83.18,27.22-8.41,58.07-12.43,90.23-10.94Z"/><g><path class="cls-18" d="M370.01,159.87c17.74-26.74,39.06-49.2,61.89-66.17-12.49-30.96-31.67-54.94-55.02-66.36-24.33,8.89-45.88,30.71-61.54,60.07,20.96,19.32,39.84,43.94,54.67,72.46h0Z"/><path class="cls-5" d="M370.01,159.87c17.74-26.74,39.06-49.2,61.89-66.17-12.49-30.96-31.67-54.94-55.02-66.36-24.33,8.89-45.88,30.71-61.54,60.07,20.96,19.32,39.84,43.94,54.67,72.46h0Z"/></g><g><path class="cls-7" d="M267.34,181.42c1.9-31.98,9.13-62.07,20.4-88.16-23.07-18.05-47.94-28.86-71.14-30.08-3.27-.17-6.52-.15-9.72,.05-16.63,19.81-24.38,49.45-23.17,82.71,27.84,6.3,56.51,18.18,83.63,35.48Z"/><g class="cls-2"><path class="cls-7" d="M267.34,181.42c1.9-31.98,9.13-62.07,20.4-88.16-23.07-18.05-47.94-28.86-71.14-30.08-3.27-.17-6.52-.15-9.72,.05-16.63,19.81-24.38,49.45-23.17,82.71,27.84,6.3,56.51,18.18,83.63,35.48Z"/></g></g></g><g><g><path class="cls-33" d="M687.15,416.95c-5.7,4.55-12.09,8.55-18.71,12.23,6.57,12.22,10.62,24.75,11.59,37.11-7.59,8.51-17.33,15.58-28.66,21.14,2.98,6.94,5.59,14.02,7.37,21.06,16.61-7.83,30.77-18.34,41.29-31.5l2.52-3.15-.1-4.03c-.44-17.82-5.82-35.74-15.29-52.86h0Z"/><path class="cls-8" d="M614.28,568.2c-7.43,.43-14.71,1.26-21.94,1.95-.14,14.85-2.93,28.6-8.59,40.48-11.75,3.86-24.82,5-38.58,3.73-.1,.71-.16,1.43-.27,2.14-.97,6.4-1.71,13.2-3.07,19.8,12.74,1.29,25.14,.92,36.8-1.43,5.88-1.18,11.58-2.84,17.07-4.99l3.76-1.47,1.93-3.54c9.02-16.51,13.27-35.88,13.19-56.68-.1,0-.2,0-.29,.02h0Z"/><path class="cls-32" d="M148.35,599.46c-.72-3.45-1.3-6.97-1.79-10.54-13.37-.56-25.79-3.3-36.63-8.46-3.4-10.24-4.7-21.51-4.13-33.36-7.35-2.64-14.66-5.81-21.6-9.59-2.11,19.53-.11,38.21,6.43,54.87l1.48,3.75,3.55,1.93c16.1,8.75,34.89,13.01,55.07,13.22-.87-4.19-1.63-8.22-2.39-11.8v-.02Z"/><path class="cls-37" d="M431.71,53.57c12.39-6.69,25.09-10.8,37.61-11.78,8.05,7.15,14.78,16.21,20.21,26.72,7.22-2.64,14.68-4.53,22.07-5.5-7.82-16.6-18.36-30.68-31.54-41.18l-3.15-2.52-4.04,.1c-18.38,.45-36.86,6.13-54.48,16.1,4.9,5.4,9.32,11.57,13.33,18.05h0Z"/><path class="cls-24" d="M571.37,108.97c1.7,6.73,2.74,13.53,3.25,20.33,14.42,.27,27.78,3.05,39.36,8.57,3.55,10.68,4.83,22.46,4.06,34.87,3.34,.48,6.65,1.01,9.88,1.6,3.96,.72,8.04,1.6,12.11,2.73,1.47-18.17-.64-35.53-6.77-51.11l-1.48-3.75-3.55-1.93c-16.7-9.08-36.31-13.31-57.36-13.15,.16,.62,.33,1.25,.48,1.86h0Z"/><path class="cls-16" d="M268.95,60.13c7.43-12.18,16.47-22.22,26.94-29.4,10.87,2.24,21.58,6.92,31.84,13.61,5.04-5.83,10.65-11.1,16.73-15.47-15.46-10.95-32.09-18.18-49.23-20.77l-4.04-.6-3.44,2.11c-15.72,9.57-28.88,23.74-39.15,41.2,7.02,2.47,13.8,5.75,20.36,9.33h0Z"/><path class="cls-28" d="M712.28,285.12c-9.34-15.28-23.05-28.14-39.92-38.27-.53,1.55-1.08,3.09-1.62,4.58-1.99,5.42-4.26,10.95-6.83,16.37,11.16,7.13,20.44,15.65,27.19,25.45-2.31,11.13-7.15,22.07-14.15,32.53,6.02,4.62,11.69,9.67,16.57,15.12,10.65-15.2,17.71-31.53,20.25-48.35l.6-3.98-2.11-3.44h0Z"/><path class="cls-38" d="M294.24,663.64c-13.03,7.36-26.44,11.87-39.66,12.9-7.97-7.08-14.66-16.04-20.05-26.42-6.33,2.08-12.83,3.67-19.53,4.51-.92,.12-1.87,.24-2.84,.36,7.84,16.73,18.43,30.93,31.7,41.5l3.15,2.52,4.04-.1c5.9-.15,11.78-.82,17.66-2.01,12.57-2.53,25.03-7.45,37.09-14.33-4.06-6.21-7.88-12.53-11.57-18.93h0Z"/><path class="cls-30" d="M453.27,660.85c-7.09,10.96-15.55,20.08-25.25,26.73-11.48-2.37-22.79-7.46-33.55-14.77-5.3,5.5-10.9,10.78-16.68,15.47,15.93,11.62,33.17,19.26,50.94,21.94l3.99,.6,3.45-2.11c15.2-9.26,28.02-22.82,38.14-39.49-7.18-2.07-14.25-4.95-21.04-8.37h0Z"/><path class="cls-19" d="M37.84,303.29c4.92-4.83,10.24-9.21,15.38-13.12,.67-.51,1.37-.91,2.05-1.39-6.46-12.12-10.44-24.54-11.4-36.78,8.86-9.91,20.63-17.87,34.44-23.79-3.35-6.57-6.41-13.29-8.35-20.62-18.74,7.99-34.56,19.29-46.08,33.7l-2.52,3.14,.12,4.06c.45,18.49,6.23,37.07,16.36,54.77h0Z"/><path class="cls-17" d="M131.61,145.59c.44-13.86,3.23-26.71,8.58-37.88,3.05-.99,6.19-1.81,9.4-2.46,8.45-1.7,17.45-2.17,26.8-1.5,.68-5.69,1.46-11.36,2.52-16.98,.26-1.35,.53-3.14,.9-5.07-18.35-1.52-35.86,.57-51.59,6.73l-3.75,1.5-1.92,3.54c-8.69,15.89-13.01,34.39-13.3,54.27,7.46-.97,14.86-1.92,22.36-2.17v.02Z"/><path class="cls-39" d="M63.4,452.66c-12.71-7.54-23.18-16.79-30.6-27.57,2.13-10.28,6.46-20.42,12.61-30.14-5.83-5.07-11.17-10.68-15.58-16.72-10.34,14.98-17.2,31.04-19.7,47.57l-.61,3.98,2.11,3.44c10.17,16.63,25.53,30.4,44.49,40.89,1.85-7.25,4.33-14.43,7.28-21.45h0Z"/></g><g><path class="cls-40" d="M684.16,419.64c-5.7,4.55-12.09,8.55-18.71,12.23,6.57,12.22,10.62,24.75,11.59,37.11-7.59,8.51-17.33,15.58-28.66,21.14,2.98,6.94,5.59,14.02,7.37,21.06,16.61-7.83,30.76-18.34,41.29-31.5l2.52-3.15-.1-4.03c-.44-17.82-5.82-35.74-15.29-52.86h0Z"/><path class="cls-14" d="M611.29,570.89c-7.43,.43-14.71,1.26-21.94,1.95-.14,14.85-2.93,28.6-8.59,40.48-11.74,3.86-24.82,5-38.58,3.73-.1,.71-.16,1.43-.27,2.14-.97,6.4-1.71,13.2-3.07,19.8,12.74,1.29,25.14,.92,36.8-1.43,5.88-1.18,11.58-2.84,17.07-4.99l3.76-1.47,1.93-3.54c9.02-16.51,13.27-35.88,13.19-56.68-.1,0-.2,0-.29,.02h0Z"/><path class="cls-10" d="M145.36,602.15c-.72-3.45-1.3-6.97-1.79-10.54-13.37-.56-25.79-3.3-36.63-8.46-3.4-10.24-4.7-21.51-4.13-33.36-7.35-2.64-14.66-5.81-21.6-9.59-2.11,19.53-.11,38.21,6.43,54.87l1.48,3.75,3.55,1.93c16.1,8.75,34.89,13.01,55.07,13.22-.87-4.19-1.63-8.22-2.39-11.8v-.02Z"/><path class="cls-20" d="M428.72,56.26c12.39-6.69,25.09-10.8,37.61-11.78,8.05,7.15,14.78,16.21,20.21,26.72,7.22-2.64,14.68-4.53,22.07-5.5-7.82-16.6-18.36-30.68-31.55-41.18l-3.15-2.52-4.04,.1c-18.38,.45-36.86,6.13-54.48,16.1,4.9,5.4,9.32,11.57,13.33,18.05h0Z"/><path class="cls-9" d="M568.38,111.66c1.7,6.73,2.74,13.53,3.25,20.33,14.42,.27,27.78,3.05,39.36,8.57,3.55,10.68,4.83,22.46,4.06,34.87,3.34,.48,6.65,1.01,9.88,1.6,3.96,.72,8.04,1.6,12.11,2.73,1.47-18.17-.64-35.53-6.77-51.11l-1.48-3.75-3.55-1.93c-16.7-9.08-36.31-13.31-57.36-13.15,.16,.62,.33,1.25,.48,1.86h0Z"/><path class="cls-12" d="M265.96,62.81c7.43-12.17,16.47-22.22,26.94-29.4,10.87,2.24,21.58,6.92,31.84,13.61,5.04-5.83,10.65-11.1,16.73-15.47-15.46-10.95-32.09-18.18-49.23-20.77l-4.04-.6-3.44,2.11c-15.72,9.57-28.88,23.74-39.15,41.2,7.02,2.47,13.8,5.75,20.36,9.33h0Z"/><path class="cls-36" d="M709.29,287.81c-9.34-15.28-23.05-28.14-39.92-38.27-.53,1.55-1.08,3.09-1.62,4.58-1.99,5.42-4.26,10.95-6.83,16.37,11.16,7.13,20.44,15.65,27.19,25.45-2.31,11.13-7.15,22.07-14.15,32.53,6.02,4.62,11.69,9.67,16.57,15.12,10.65-15.2,17.71-31.53,20.25-48.35l.6-3.98-2.11-3.44h0Z"/><path class="cls-15" d="M291.25,666.33c-13.03,7.36-26.44,11.87-39.66,12.9-7.97-7.08-14.66-16.04-20.05-26.42-6.33,2.08-12.83,3.67-19.53,4.51-.92,.12-1.87,.24-2.84,.36,7.84,16.73,18.43,30.93,31.7,41.5l3.15,2.52,4.04-.1c5.9-.15,11.78-.82,17.66-2.01,12.57-2.53,25.03-7.45,37.09-14.33-4.06-6.21-7.88-12.53-11.57-18.93h0Z"/><path class="cls-22" d="M450.28,663.54c-7.09,10.96-15.55,20.08-25.25,26.73-11.48-2.37-22.79-7.46-33.55-14.77-5.3,5.5-10.9,10.78-16.68,15.47,15.93,11.62,33.17,19.26,50.94,21.94l3.99,.6,3.45-2.11c15.2-9.26,28.02-22.82,38.14-39.49-7.18-2.07-14.25-4.95-21.04-8.37h0Z"/><path class="cls-31" d="M34.85,305.98c4.92-4.83,10.24-9.21,15.38-13.12,.67-.51,1.37-.91,2.05-1.39-6.46-12.12-10.44-24.54-11.4-36.78,8.86-9.91,20.63-17.87,34.44-23.79-3.35-6.57-6.41-13.29-8.35-20.62-18.74,7.99-34.56,19.29-46.08,33.7l-2.52,3.14,.12,4.06c.45,18.49,6.23,37.07,16.36,54.77h0Z"/><path class="cls-35" d="M128.62,148.28c.44-13.86,3.23-26.71,8.58-37.88,3.05-.99,6.19-1.81,9.4-2.46,8.45-1.7,17.45-2.17,26.8-1.5,.68-5.69,1.46-11.36,2.52-16.98,.26-1.35,.53-3.14,.9-5.07-18.35-1.52-35.86,.57-51.59,6.73l-3.75,1.5-1.92,3.54c-8.69,15.89-13.01,34.39-13.3,54.27,7.46-.97,14.86-1.92,22.36-2.17v.02Z"/><path class="cls-29" d="M60.41,455.34c-12.71-7.54-23.18-16.79-30.6-27.57,2.13-10.28,6.46-20.42,12.61-30.14-5.83-5.07-11.16-10.68-15.58-16.72-10.34,14.98-17.2,31.04-19.7,47.57l-.61,3.98,2.11,3.44c10.17,16.63,25.53,30.4,44.49,40.89,1.85-7.25,4.33-14.43,7.28-21.45h0Z"/></g><g><path class="cls-26" d="M422.23,289.59s.02-.03,.03-.05c8.43-16.13,15.08-34.43,19.45-54.1v-.03c-16.21,11.98-30.29,25.45-41.64,39.61v.05c.04,3.65-.05,7.25-.25,10.84-.29,5.51-.8,10.93-1.59,16.24,7.46-4.65,15.48-8.85,24-12.58h0Z"/><path class="cls-26" d="M240.39,510.4c3.46-1.76,6.85-3.61,10.2-5.5,3-21.53,8.4-41.88,15.79-60.4-19.19,5.31-40.01,8.51-61.73,9.23-2.31,3.22-4.58,6.5-6.78,9.87-14.88,22.87-25.48,47.19-31.7,70.9,24.35-3.68,49.79-11.68,74.21-24.1h0Z"/><path class="cls-26" d="M377.5,267.77v-.04c-.76-18.14-4.15-37.33-10.22-56.62,0,0,0-.03-.02-.04-8.07,18.52-13.43,37.23-16.16,55.21,4.69,8.02,8.69,16.14,11.96,24.27,4.12-7.72,8.94-15.34,14.44-22.79h0Z"/><path class="cls-26" d="M295.07,393.96h0c-5.15,.19-10.37,.15-15.68-.13-3.77-.2-7.58-.49-11.43-.97-15.38,9.77-30.35,22.34-44.06,37.21h0c20.05-2.28,38.98-6.92,55.93-13.51,4.66-8.11,9.75-15.68,15.23-22.61h0Z"/><path class="cls-26" d="M520.05,260.11c14.88-22.87,25.47-47.19,31.7-70.9-24.35,3.68-49.79,11.68-74.21,24.09-3.45,1.76-6.84,3.6-10.17,5.49v.04c-3.03,21.49-8.45,41.89-15.84,60.38,19.2-5.34,40.03-8.52,61.74-9.21,2.32-3.23,4.59-6.51,6.79-9.88h0Z"/><path class="cls-26" d="M485.7,444.44c-12.02-16.2-25.53-30.25-39.74-41.58-3.65,0-7.28-.05-10.85-.23-5.6-.29-11.03-.91-16.38-1.7,4.68,7.46,8.91,15.51,12.67,24.04,16.17,8.4,34.55,15.05,54.31,19.45h0Z"/><path class="cls-26" d="M453.21,380.32c18.24-.77,37.5-4.13,56.85-10.18-18.59-8.06-37.38-13.42-55.42-16.13-8.03,4.65-16.16,8.65-24.31,11.89,7.75,4.11,15.4,8.93,22.88,14.42h0Z"/><path class="cls-26" d="M422.87,329.74s-.05,.06-.07,.09c8.78-.31,17.81,.05,27.04,1.07,15.42-9.77,30.43-22.36,44.17-37.26-20.06,2.29-39.02,6.93-55.96,13.54-4.63,8.09-9.69,15.67-15.17,22.57h0Z"/><path class="cls-26" d="M105.41,415.22h0c22.94,8.95,49.01,14.7,76.41,16.13,3.87,.2,7.75,.31,11.58,.33,13.39-17.16,28.29-32.1,43.98-44.47-19.31-4.93-38.9-12.56-58.02-22.79h0c-3.65,1.64-7.28,3.34-10.89,5.18-24.36,12.39-45.79,28.17-63.07,45.62h0Z"/><path class="cls-26" d="M460.93,522.58c22.91,14.85,47.29,25.42,71.05,31.63-3.69-24.3-11.7-49.68-24.15-74.04-1.77-3.45-3.62-6.84-5.51-10.18-21.57-2.99-41.97-8.38-60.54-15.76,5.35,19.16,8.54,39.92,9.23,61.58,3.24,2.31,6.53,4.58,9.91,6.78h0Z"/><path class="cls-26" d="M427.34,496.6c-2.29-20.01-6.94-38.93-13.56-55.82-8.15-4.66-15.74-9.75-22.71-15.24,.31,8.77-.05,17.8-1.07,27.02,9.8,15.38,22.41,30.34,37.35,44.04h0Z"/><path class="cls-26" d="M340.45,455.89c.77,18.2,4.14,37.41,10.2,56.73,8.07-18.51,13.42-37.22,16.15-55.19-4.68-8.04-8.67-16.17-11.93-24.33-4.11,7.72-8.94,15.34-14.43,22.79h0Z"/><path class="cls-26" d="M319.7,421.52c-7.46,4.68-15.5,8.89-24.02,12.64h-.02c-8.41,16.12-15.07,34.45-19.47,54.15,16.26-12,30.36-25.51,41.72-39.71-.03-9.33,.59-18.41,1.87-27.13-.03,.02-.05,.04-.08,.05h0Z"/><path class="cls-26" d="M628.16,290.79c20.61-26.28,31.86-54.83,30.09-80.7-19.89-16.6-49.59-24.23-82.9-23.09-6.3,27.74-18.27,56.33-35.6,83.39,32.09,1.96,62.26,9.15,88.41,20.4h0Z"/><path class="cls-26" d="M327.88,271c-9.79-15.33-22.37-30.25-37.29-43.9,2.28,20.01,6.94,38.91,13.54,55.82,8.13,4.63,15.73,9.69,22.66,15.21,.03,.03,.06,.05,.09,.07-.31-8.8,.05-17.85,1.08-27.1-.03-.04-.05-.07-.06-.11h0Z"/><path class="cls-26" d="M257.02,201.11c-22.95-14.86-47.33-25.46-71.11-31.64,3.67,24.29,11.74,49.68,24.2,74.06,1.76,3.46,3.57,6.84,5.48,10.16,0,.03,.02,.03,.05,0,21.54,3.02,41.98,8.42,60.52,15.8-5.33-19.16-8.55-39.96-9.26-61.65-3.21-2.33-6.52-4.58-9.87-6.74h0Z"/><path class="cls-26" d="M170.77,333.66c3.26,2.11,6.58,4.17,9.91,6.11,.03,.02,.05,.03,.07,.05,20.19-8.17,40.54-13.67,60.31-16.54l-.06-.06c-14.26-13.9-27.46-30.29-38.9-48.74-3.96-.39-7.97-.69-11.98-.9-27.31-1.42-53.79,1.53-77.45,8.05,15.37,19.22,35.11,37.15,58.1,52.06h0Z"/><path class="cls-26" d="M207.89,353.55c18.5,8.08,37.22,13.48,55.17,16.18h.02c8.08-4.68,16.27-8.69,24.47-11.96,0,0-.03,0-.04-.02-7.73-4.05-15.41-8.87-22.89-14.36-18.2,.78-37.42,4.13-56.74,10.16h0Z"/><path class="cls-26" d="M232.28,279.3c12.01,16.23,25.52,30.28,39.74,41.54,.03,.02,.05,.04,.07,.05,9.32-.02,18.38,.59,27.11,1.86,0,0-.02-.03-.03-.04-4.7-7.45-8.9-15.47-12.67-24.02-16.17-8.41-34.51-15.05-54.22-19.4Z"/><path class="cls-26" d="M370.01,159.87c17.74-26.74,39.06-49.2,61.89-66.17-12.49-30.96-31.67-54.94-55.02-66.36-24.33,8.89-45.88,30.71-61.54,60.07,20.96,19.32,39.84,43.94,54.67,72.46h0Z"/><path class="cls-26" d="M450.62,542.27c-1.96,32-9.17,62.08-20.43,88.17,26.33,20.54,54.94,31.77,80.88,30.04,16.63-19.85,24.29-49.49,23.14-82.74-27.81-6.28-56.46-18.17-83.58-35.46h0Z"/><path class="cls-26" d="M347.92,563.77c-17.75,26.76-39.08,49.16-61.92,66.14,12.5,30.98,31.67,55.02,55.03,66.43,24.37-8.9,45.91-30.72,61.57-60.13-20.96-19.33-39.85-43.9-54.68-72.45h0Z"/><path class="cls-26" d="M161.5,557.65c-4.68,33.04-.18,63.41,14.32,84.93,25.53,4.47,55.09-3.68,83.38-21.31-8.47-27.19-12.45-57.93-11-90.03-28.74,14.3-58.43,23.09-86.69,26.4Z"/><path class="cls-26" d="M330.71,549.65c2.15-3.31,4.17-6.65,6.13-10.02-8.18-20.12-13.69-40.41-16.56-60.12-13.97,14.24-30.43,27.41-48.92,38.85-.39,3.96-.72,7.94-.93,11.95-1.43,27.24,1.55,53.64,8.06,77.28,19.26-15.35,37.29-35.01,52.21-57.96h0Z"/><path class="cls-26" d="M384.32,483.06c-4.96,19.25-12.59,38.79-22.82,57.88,1.66,3.67,3.37,7.34,5.23,10.97,12.41,24.31,28.23,45.66,45.7,62.9,8.99-22.89,14.74-48.91,16.18-76.23,.2-3.87,.29-7.73,.33-11.57-17.22-13.38-32.21-28.27-44.6-43.96h0Z"/><path class="cls-26" d="M528.71,472.37c14.34,28.68,23.2,58.3,26.52,86.5,33.1,4.67,63.53,.18,85.1-14.29,4.46-25.48-3.71-54.98-21.36-83.19-27.25,8.45-58.07,12.43-90.27,10.97h0Z"/><path class="cls-26" d="M547.18,390.04c-3.28-2.12-6.6-4.11-9.93-6.06-20.17,8.16-40.52,13.66-60.28,16.53,14.24,13.93,27.41,30.32,38.86,48.73,3.96,.39,7.96,.71,11.98,.92,27.3,1.42,53.75-1.55,77.45-8.03-15.38-19.21-35.08-37.19-58.08-52.1Z"/><path class="cls-26" d="M634.02,318.34c-19.36,20.9-44.05,39.72-72.63,54.52,26.8,17.7,49.31,38.97,66.31,61.75,31.01-12.48,55.08-31.59,66.51-54.88-8.9-24.3-30.76-45.76-60.18-61.39h0Z"/><path class="cls-26" d="M333.55,240.56s.04,.05,.06,.08c4.96-19.25,12.59-38.78,22.82-57.87-.02-.04-.03-.06-.05-.1-1.57-3.64-3.32-7.28-5.17-10.88-12.42-24.33-28.23-45.7-45.74-62.91-8.97,22.89-14.73,48.9-16.17,76.24-.2,3.86-.31,7.74-.33,11.57,17.2,13.36,32.2,28.23,44.56,43.88h0Z"/><path class="cls-26" d="M469.72,192.45v.04c28.75-14.3,58.45-23.15,86.71-26.47,4.68-33.03,.18-63.4-14.33-84.92-25.52-4.45-55.08,3.69-83.36,21.3h0c8.43,27.17,12.46,57.94,10.96,90.03v.02Z"/><path class="cls-26" d="M387.21,174.05c-2.13,3.28-4.13,6.61-6.09,9.94,8.18,20.11,13.73,40.42,16.58,60.13,13.95-14.21,30.4-27.36,48.86-38.79,.39-3.95,.69-7.95,.9-11.95,1.43-27.24-1.53-53.65-8.06-77.25-19.25,15.34-37.26,34.99-52.19,57.93h0Z"/><path class="cls-26" d="M612.5,308.5c-22.95-8.97-49.02-14.71-76.41-16.14-3.92-.2-7.82-.3-11.7-.33-13.41,17.17-28.29,32.14-43.99,44.49,19.31,4.94,38.91,12.56,58.07,22.79,3.68-1.66,7.35-3.36,10.99-5.21,24.36-12.39,45.77-28.16,63.05-45.6h0Z"/><path class="cls-26" d="M156.55,350.83h0c-26.83-17.7-49.31-38.94-66.3-61.76-31.05,12.46-55.09,31.61-66.54,54.92,8.9,24.28,30.76,45.77,60.19,61.38,19.37-20.91,44.06-39.74,72.66-54.54h0Z"/><path class="cls-26" d="M267.34,181.42c1.9-31.98,9.13-62.07,20.4-88.16-23.07-18.05-47.94-28.86-71.14-30.08-3.27-.17-6.52-.15-9.72,.05-16.63,19.81-24.38,49.45-23.17,82.71,27.84,6.3,56.51,18.18,83.63,35.48Z"/><path class="cls-26" d="M178.14,453.27c-32.09-1.9-62.24-9.16-88.39-20.35-20.6,26.27-31.85,54.82-30.08,80.69,19.89,16.6,49.59,24.23,82.9,23.09,6.3-27.75,18.28-56.35,35.62-83.42h-.05Z"/><path class="cls-26" d="M189.19,251.34c-14.36-28.67-23.17-58.36-26.5-86.55-33.11-4.73-63.52-.13-85.09,14.3-4.48,25.47,3.68,54.99,21.36,83.18,27.22-8.41,58.07-12.43,90.23-10.94Z"/><path class="cls-23" d="M718.82,373.44c-9.37-30.57-34.1-57.17-68.15-76.26,23.42-31.3,35.23-65.73,31.32-97.53l-.49-4-2.95-2.75c-23.45-21.81-58.27-32.42-97.34-31.94,4.61-38.82-2.31-74.58-21.65-100.18l-2.43-3.22-3.94-.9c-31.22-7.19-66.68,.87-100.25,20.75-15.47-35.88-39.43-63.31-68.98-75.83l-3.75-1.58-3.86,1.18c-30.65,9.34-57.3,34.03-76.43,67.97-31.39-23.38-65.89-35.15-97.73-31.23l-4.01,.53-2.74,2.95c-21.86,23.37-32.6,58.03-32.15,97.01-38.85-4.61-74.65,2.38-100.27,21.67l-3.23,2.42-.9,3.97c-7.23,31.15,.86,66.51,20.8,100.01-35.97,15.43-63.45,39.38-76.01,68.87l-1.59,3.7,1.18,3.85c9.36,30.59,34.1,57.17,68.13,76.26h.02c-23.41,31.3-35.22,65.72-31.3,97.51l.49,4,2.95,2.75c20.87,19.41,50.7,30.04,84.56,31.81,4.19,.22,8.46,.27,12.77,.22-4.59,38.79,2.33,74.52,21.65,100.1l2.43,3.22,3.94,.9c5.74,1.32,11.62,2.13,17.61,2.44,26.58,1.39,55.21-7.05,82.61-23.27,15.46,35.93,39.45,63.37,69.03,75.89l3.72,1.58,3.86-1.18c30.66-9.35,57.34-34.06,76.46-68.05,25.61,19.08,53.29,30.51,79.94,31.9,5.99,.31,11.93,.12,17.77-.59l4.01-.49,2.75-2.94c21.85-23.38,32.47-58.08,32.02-97.03,4.37,.52,8.7,.91,12.98,1.14,33.85,1.77,64.65-5.7,87.42-22.83l3.23-2.42,.91-3.93c7.21-31.14-.88-66.53-20.81-100.04,35.97-15.42,63.45-39.35,75.99-68.85l1.58-3.71-1.18-3.86h0Zm-58.48-167.02c1.78,25.87-9.49,54.43-30.09,80.7-26.16-11.25-56.32-18.44-88.41-20.4,17.33-27.06,29.3-55.64,35.6-83.39,33.31-1.15,63.01,6.49,82.9,23.09Zm-267.2,215.45c6.96,5.49,14.56,10.58,22.71,15.24,6.63,16.91,11.27,35.81,13.56,55.82-14.94-13.7-27.55-28.66-37.35-44.04,1.02-9.22,1.39-18.26,1.07-27.02h0Zm-24.25,31.89c-2.73,17.97-8.09,36.68-16.15,55.19-6.06-19.31-9.42-38.53-10.2-56.73,5.49-7.46,10.31-15.07,14.43-22.79,3.26,8.16,7.25,16.29,11.93,24.33h0Zm-48.89-8.84c-11.37,14.21-25.47,27.71-41.72,39.71,4.41-19.7,11.06-38.02,19.47-54.15h.02c8.52-3.75,16.56-7.96,24.02-12.64,.03-.02,.05-.04,.08-.05-1.27,8.73-1.89,17.8-1.87,27.13h0Zm8.95-150.39s-.06-.05-.09-.07c-6.93-5.53-14.53-10.59-22.66-15.21-6.61-16.92-11.26-35.81-13.54-55.82,14.92,13.66,27.51,28.58,37.29,43.9,.03,.04,.05,.07,.06,.11-1.03,9.25-1.39,18.31-1.08,27.1h0Zm-27.71,24.52s.02,.03,.03,.04c-8.72-1.26-17.78-1.88-27.11-1.86-.03-.02-.05-.04-.07-.05-14.21-11.26-27.72-25.31-39.74-41.54,19.71,4.36,38.05,10.99,54.22,19.4,3.76,8.55,7.97,16.57,12.67,24.02h0Zm-11.65,35.03s.02,0,.04,.02c-8.2,3.27-16.39,7.26-24.47,11.96h-.02c-17.95-2.69-36.67-8.1-55.17-16.18,19.31-6.03,38.53-9.38,56.74-10.16,7.46,5.5,15.16,10.33,22.89,14.36h0Zm-71.89-104.06s-.05,.03-.05,0c-1.9-3.33-3.72-6.7-5.48-10.16-12.46-24.38-20.52-49.77-24.2-74.06,23.78,6.18,48.16,16.78,71.11,31.64,3.35,2.16,6.66,4.41,9.87,6.74,.71,21.68,3.93,42.49,9.26,61.65-18.54-7.38-38.98-12.79-60.52-15.8h0Zm-13.53,20.75c11.43,18.47,24.64,34.84,38.9,48.74l.06,.06c-19.77,2.86-40.12,8.38-60.31,16.54-.03-.02-.05-.03-.07-.05-3.33-1.92-6.64-3.99-9.91-6.11-22.99-14.91-42.74-32.84-58.1-52.06,23.66-6.52,50.14-9.48,77.45-8.05,4.01,.21,8.02,.51,11.98,.9h0Zm-22.72,89.98h0c19.12,10.23,38.71,17.85,58.02,22.79-15.69,12.36-30.59,27.31-43.98,44.47-3.84-.02-7.71-.13-11.58-.33-27.41-1.43-53.47-7.17-76.41-16.13h0c17.28-17.44,38.7-33.23,63.07-45.62,3.61-1.83,7.25-3.53,10.89-5.18h0Zm18.51,99.17c2.19-3.36,4.46-6.64,6.78-9.87,21.71-.71,42.54-3.91,61.73-9.23-7.39,18.52-12.8,38.87-15.79,60.4-3.34,1.9-6.74,3.74-10.2,5.5-24.43,12.41-49.85,20.42-74.21,24.1,6.22-23.71,16.82-48.03,31.7-70.9h0Zm26.03-33.5h0c13.71-14.87,28.67-27.44,44.05-37.21,3.85,.47,7.66,.77,11.43,.97,5.3,.27,10.53,.32,15.68,.13h0c-5.48,6.94-10.57,14.5-15.23,22.61-16.95,6.59-35.87,11.23-55.93,13.51h0Zm127.2-163.8c2.73-17.98,8.09-36.69,16.16-55.21,0,0,0,.03,0,.04,6.07,19.29,9.45,38.48,10.22,56.62v.04c-5.49,7.46-10.32,15.07-14.44,22.79-3.26-8.13-7.26-16.25-11.96-24.27h0Zm48.94,8.81v-.05c11.35-14.17,25.42-27.63,41.64-39.61v.03c-4.37,19.67-11.01,37.97-19.45,54.1,0,.02-.02,.03-.03,.05-8.51,3.73-16.54,7.93-24,12.58,.78-5.3,1.3-10.72,1.59-16.24,.19-3.59,.28-7.18,.25-10.84h0Zm93.95,18.53c-13.74,14.9-28.75,27.49-44.17,37.26-9.23-1.01-18.26-1.38-27.04-1.07,.03-.03,.05-.06,.07-.09,5.49-6.9,10.54-14.47,15.17-22.57,16.94-6.62,35.89-11.26,55.96-13.54h0Zm-42.48-14.41c7.4-18.49,12.81-38.89,15.84-60.38v-.04c3.34-1.89,6.72-3.73,10.18-5.49,24.43-12.41,49.85-20.41,74.21-24.09-6.22,23.71-16.82,48.03-31.7,70.9-2.2,3.37-4.47,6.65-6.79,9.88-21.71,.69-42.54,3.87-61.74,9.21Zm58.55,90.93c-19.36,6.05-38.62,9.41-56.85,10.18-7.48-5.49-15.13-10.31-22.88-14.42,8.16-3.24,16.28-7.25,24.31-11.89,18.05,2.72,36.83,8.08,55.42,16.13h0Zm-91.35,30.8c5.35,.77,10.78,1.4,16.38,1.7,3.57,.18,7.2,.24,10.85,.23,14.22,11.33,27.72,25.38,39.74,41.58-19.76-4.4-38.14-11.05-54.31-19.45-3.75-8.54-7.98-16.58-12.66-24.04h0Zm83.6,69.04c1.9,3.34,3.75,6.72,5.51,10.18,12.44,24.37,20.46,49.74,24.15,74.04-23.76-6.21-48.14-16.78-71.05-31.63-3.38-2.19-6.67-4.46-9.91-6.77-.69-21.65-3.88-42.43-9.23-61.58,18.56,7.37,38.96,12.77,60.54,15.76h0Zm13.51-20.73c-11.46-18.42-24.63-34.82-38.86-48.73,19.76-2.87,40.11-8.37,60.28-16.53,3.34,1.95,6.65,3.94,9.93,6.06,23,14.9,42.71,32.88,58.08,52.1-23.7,6.49-50.15,9.46-77.45,8.03-4.03-.21-8.02-.53-11.98-.92Zm22.63-89.93c-19.16-10.23-38.75-17.84-58.07-22.79,15.71-12.36,30.59-27.33,43.99-44.49,3.88,.03,7.77,.12,11.7,.33,27.39,1.43,53.46,7.17,76.41,16.14-17.27,17.44-38.69,33.21-63.05,45.6-3.64,1.85-7.31,3.55-10.99,5.21h0Zm3.65-278.21c14.5,21.52,19,51.89,14.33,84.92-28.27,3.32-57.97,12.16-86.71,26.47v-.04c1.49-32.1-2.53-62.86-10.96-90.03h0c28.28-17.61,57.83-25.76,83.36-21.3v-.02Zm-94.66,112.26c-.21,4-.51,8-.9,11.95-18.47,11.44-34.9,24.58-48.86,38.79-2.85-19.7-8.39-40-16.58-60.13,1.96-3.34,3.96-6.66,6.09-9.94,14.93-22.94,32.94-42.59,52.19-57.93,6.53,23.6,9.49,50.01,8.06,77.25h0ZM378.97,23.66c23.36,11.42,42.54,35.39,55.02,66.36-22.83,16.97-44.15,39.43-61.89,66.17-14.84-28.51-33.71-53.13-54.67-72.46,15.65-29.37,37.19-51.18,61.54-60.07h0Zm-71.4,81.53c17.51,17.21,33.32,38.58,45.74,62.91,1.85,3.61,3.6,7.25,5.17,10.89,.02,.04,.03,.06,.05,.1-10.24,19.09-17.86,38.63-22.82,57.87-.02-.03-.04-.05-.06-.08-12.37-15.65-27.36-30.51-44.56-43.87,.02-3.83,.13-7.7,.33-11.57,1.43-27.34,7.19-53.35,16.17-76.24h0Zm-98.6-45.64c3.2-.2,6.44-.22,9.72-.05,23.2,1.21,48.09,12.02,71.14,30.08-11.26,26.09-18.49,56.18-20.4,88.16-27.12-17.3-55.79-29.17-83.63-35.48-1.22-33.25,6.53-62.9,23.17-82.71h0ZM79.69,175.41c21.57-14.43,51.98-19.03,85.09-14.3,3.34,28.19,12.14,57.87,26.5,86.55-32.16-1.49-63.01,2.52-90.23,10.94-17.67-28.21-25.84-57.71-21.36-83.18h0ZM25.8,340.29c11.45-23.31,35.49-42.46,66.54-54.92,16.99,22.81,39.46,44.07,66.3,61.76h0c-28.59,14.8-53.29,33.63-72.65,54.54-29.43-15.61-51.28-37.11-60.19-61.38h0Zm35.96,169.64c-1.78-25.87,9.49-54.42,30.08-80.69,26.15,11.19,56.3,18.45,88.39,20.35h.05c-17.34,27.07-29.32,55.67-35.62,83.42-33.31,1.15-63.01-6.49-82.9-23.09h0Zm116.14,128.98c-14.5-21.53-19-51.9-14.32-84.93,28.26-3.32,57.95-12.1,86.69-26.4-1.45,32.1,2.54,62.84,11,90.03-28.28,17.63-57.85,25.77-83.38,21.31Zm94.62-112.26c.21-4.02,.54-7.99,.93-11.95,18.49-11.46,34.94-24.63,48.92-38.85,2.87,19.71,8.38,39.99,16.56,60.12-1.98,3.36-3.98,6.71-6.13,10.02-14.94,22.95-32.96,42.61-52.21,57.96-6.5-23.65-9.48-50.04-8.06-77.28h0Zm70.59,166c-23.36-11.41-42.53-35.45-55.03-66.43,22.84-16.98,44.18-39.39,61.92-66.14,14.84,28.55,33.72,53.12,54.68,72.45-15.67,29.4-37.19,51.23-61.57,60.13h0Zm71.4-81.53c-17.48-17.23-33.28-38.59-45.7-62.9-1.86-3.64-3.57-7.3-5.23-10.97,10.24-19.1,17.87-38.63,22.82-57.88,12.4,15.69,27.39,30.57,44.6,43.96-.03,3.84-.12,7.69-.33,11.57-1.43,27.32-7.19,53.34-16.18,76.23h0Zm98.62,45.66c-25.93,1.73-54.55-9.5-80.88-30.04,11.26-26.08,18.47-56.16,20.43-88.16,27.12,17.29,55.78,29.18,83.58,35.47,1.16,33.25-6.5,62.89-23.14,82.74h0Zm129.27-115.89c-21.56,14.46-52,18.95-85.1,14.29-3.33-28.2-12.19-57.83-26.52-86.5,32.18,1.45,63.01-2.53,90.27-10.97,17.65,28.22,25.82,57.71,21.36,83.19h0Zm-12.62-109.99c-17.01-22.78-39.52-44.05-66.31-61.75,28.58-14.8,53.27-33.62,72.63-54.52,29.43,15.63,51.28,37.09,60.18,61.39-11.43,23.3-35.49,42.41-66.51,54.88h0Z"/><path class="cls-41" d="M716.74,377.12c-9.37-30.57-34.1-57.17-68.15-76.26,23.42-31.3,35.23-65.73,31.32-97.53l-.49-4-2.95-2.75c-23.45-21.81-58.27-32.42-97.34-31.94,4.61-38.82-2.31-74.58-21.65-100.18l-2.43-3.22-3.94-.9c-31.22-7.19-66.68,.87-100.25,20.75-15.47-35.88-39.43-63.31-68.98-75.83l-3.75-1.58-3.86,1.18c-30.65,9.34-57.3,34.03-76.43,67.97-31.39-23.38-65.89-35.15-97.73-31.22l-4.01,.53-2.74,2.95c-21.86,23.37-32.6,58.03-32.15,97.01-38.85-4.61-74.65,2.38-100.27,21.67l-3.23,2.42-.9,3.97c-7.23,31.15,.86,66.51,20.8,100.01-35.97,15.43-63.45,39.38-76.01,68.87l-1.59,3.7,1.18,3.85c9.36,30.59,34.1,57.17,68.13,76.26h.02c-23.41,31.3-35.22,65.72-31.3,97.51l.49,4,2.95,2.75c20.87,19.41,50.7,30.04,84.56,31.81,4.19,.22,8.46,.27,12.77,.22-4.59,38.79,2.33,74.52,21.65,100.1l2.43,3.22,3.94,.9c5.74,1.32,11.62,2.13,17.61,2.44,26.58,1.39,55.21-7.05,82.61-23.27,15.46,35.93,39.45,63.37,69.03,75.89l3.72,1.58,3.86-1.18c30.66-9.35,57.34-34.06,76.46-68.05,25.61,19.08,53.29,30.51,79.94,31.9,5.99,.31,11.93,.12,17.77-.59l4.01-.49,2.75-2.94c21.85-23.38,32.48-58.08,32.02-97.03,4.37,.52,8.7,.91,12.98,1.14,33.85,1.77,64.65-5.7,87.43-22.83l3.23-2.42,.91-3.93c7.21-31.14-.88-66.53-20.81-100.03,35.97-15.42,63.45-39.35,75.99-68.85l1.58-3.71-1.18-3.86h0Zm-58.48-167.04c1.78,25.87-9.49,54.43-30.09,80.7-26.16-11.25-56.32-18.44-88.41-20.4,17.33-27.06,29.3-55.64,35.6-83.39,33.31-1.15,63.01,6.49,82.9,23.09h0Zm-267.2,215.45c6.96,5.49,14.56,10.58,22.71,15.24,6.63,16.91,11.27,35.81,13.56,55.82-14.94-13.7-27.55-28.66-37.35-44.04,1.02-9.22,1.39-18.26,1.07-27.02h0Zm-24.25,31.89c-2.73,17.97-8.09,36.68-16.15,55.19-6.06-19.31-9.42-38.53-10.2-56.73,5.49-7.46,10.31-15.07,14.43-22.79,3.26,8.16,7.25,16.29,11.93,24.33h0Zm-48.89-8.84c-11.37,14.2-25.47,27.71-41.72,39.71,4.41-19.7,11.06-38.02,19.47-54.15h.02c8.52-3.75,16.56-7.95,24.02-12.64,.03-.02,.05-.04,.08-.05-1.27,8.73-1.89,17.8-1.87,27.13h0Zm8.95-150.39s-.06-.05-.09-.07c-6.93-5.53-14.53-10.59-22.66-15.21-6.61-16.92-11.26-35.81-13.54-55.82,14.92,13.66,27.51,28.58,37.29,43.9,.03,.04,.05,.07,.06,.11-1.03,9.25-1.39,18.31-1.08,27.1h0Zm-27.71,24.52s.02,.03,.03,.04c-8.72-1.26-17.78-1.88-27.11-1.86-.03-.02-.05-.04-.07-.05-14.21-11.26-27.72-25.31-39.74-41.54,19.71,4.36,38.05,10.99,54.22,19.4,3.76,8.55,7.97,16.57,12.67,24.02h0Zm-11.65,35.03s.02,0,.04,.02c-8.2,3.27-16.39,7.26-24.47,11.96h-.02c-17.95-2.69-36.67-8.1-55.17-16.18,19.31-6.03,38.53-9.38,56.74-10.16,7.46,5.5,15.16,10.33,22.89,14.36h0Zm-71.89-104.06s-.05,.03-.05,0c-1.9-3.33-3.72-6.7-5.48-10.16-12.46-24.38-20.52-49.77-24.2-74.06,23.78,6.18,48.16,16.78,71.11,31.64,3.35,2.16,6.66,4.41,9.87,6.74,.71,21.68,3.93,42.49,9.26,61.65-18.54-7.38-38.98-12.79-60.52-15.8h0Zm-13.53,20.75c11.43,18.47,24.64,34.84,38.9,48.74l.06,.06c-19.77,2.86-40.12,8.38-60.31,16.54-.03-.02-.05-.03-.07-.05-3.33-1.92-6.64-3.99-9.91-6.11-22.99-14.91-42.74-32.84-58.1-52.06,23.66-6.52,50.14-9.48,77.45-8.05,4.01,.21,8.02,.51,11.98,.9h0Zm-22.72,89.98h0c19.12,10.23,38.71,17.85,58.02,22.79-15.69,12.36-30.59,27.31-43.98,44.47-3.84-.02-7.71-.13-11.58-.33-27.41-1.43-53.47-7.18-76.41-16.13h0c17.28-17.44,38.7-33.23,63.07-45.62,3.61-1.83,7.25-3.53,10.89-5.18h0Zm18.51,99.17c2.19-3.36,4.46-6.64,6.78-9.87,21.71-.71,42.54-3.91,61.73-9.23-7.39,18.52-12.8,38.87-15.79,60.4-3.34,1.9-6.74,3.74-10.2,5.5-24.43,12.41-49.85,20.42-74.21,24.1,6.22-23.71,16.82-48.03,31.7-70.9h0Zm26.03-33.5h0c13.71-14.87,28.67-27.44,44.06-37.21,3.85,.47,7.66,.77,11.43,.97,5.3,.27,10.53,.32,15.68,.13h0c-5.48,6.94-10.57,14.5-15.23,22.61-16.95,6.59-35.87,11.23-55.93,13.51h0Zm127.2-163.8c2.73-17.98,8.09-36.69,16.16-55.21,0,0,0,.03,.02,.04,6.07,19.29,9.45,38.48,10.22,56.62v.04c-5.49,7.46-10.32,15.07-14.44,22.79-3.26-8.13-7.26-16.25-11.96-24.27h0Zm48.94,8.81v-.05c11.35-14.17,25.42-27.63,41.64-39.61v.03c-4.37,19.67-11.01,37.97-19.45,54.1,0,.02-.02,.03-.03,.05-8.51,3.73-16.54,7.93-24,12.58,.78-5.3,1.3-10.72,1.59-16.24,.19-3.59,.28-7.18,.25-10.84h0Zm93.95,18.53c-13.74,14.9-28.75,27.49-44.17,37.26-9.23-1.01-18.26-1.38-27.04-1.07,.03-.03,.05-.05,.07-.09,5.49-6.9,10.54-14.47,15.17-22.57,16.94-6.62,35.89-11.26,55.96-13.54h0Zm-42.48-14.41c7.4-18.49,12.81-38.89,15.84-60.38v-.04c3.34-1.89,6.72-3.73,10.18-5.49,24.43-12.41,49.85-20.41,74.21-24.09-6.22,23.71-16.82,48.03-31.7,70.9-2.2,3.37-4.47,6.65-6.79,9.88-21.71,.69-42.54,3.87-61.74,9.21h0Zm58.55,90.93c-19.36,6.05-38.62,9.41-56.85,10.18-7.48-5.49-15.13-10.31-22.88-14.42,8.16-3.24,16.28-7.25,24.31-11.89,18.05,2.72,36.83,8.08,55.42,16.13h0Zm-91.35,30.8c5.35,.77,10.78,1.4,16.38,1.7,3.57,.18,7.2,.24,10.85,.23,14.22,11.33,27.72,25.38,39.74,41.58-19.76-4.4-38.14-11.05-54.31-19.45-3.75-8.54-7.98-16.58-12.67-24.04h0Zm83.6,69.04c1.9,3.34,3.75,6.72,5.51,10.18,12.44,24.37,20.46,49.74,24.15,74.04-23.76-6.21-48.14-16.78-71.05-31.63-3.38-2.19-6.67-4.46-9.91-6.78-.69-21.65-3.88-42.43-9.23-61.58,18.56,7.37,38.96,12.77,60.54,15.76h0Zm13.51-20.73c-11.46-18.42-24.63-34.81-38.86-48.73,19.76-2.87,40.11-8.37,60.28-16.53,3.34,1.95,6.65,3.94,9.93,6.06,23,14.9,42.71,32.88,58.08,52.1-23.7,6.49-50.15,9.46-77.45,8.03-4.03-.21-8.02-.53-11.98-.92Zm22.63-89.93c-19.16-10.23-38.75-17.84-58.07-22.79,15.71-12.36,30.59-27.33,43.99-44.49,3.88,.03,7.77,.12,11.7,.33,27.39,1.43,53.46,7.17,76.41,16.14-17.27,17.44-38.69,33.21-63.05,45.6-3.64,1.85-7.31,3.56-10.99,5.21h0Zm3.65-278.21c14.5,21.52,19,51.89,14.33,84.92-28.27,3.32-57.97,12.16-86.71,26.47v-.04c1.49-32.1-2.53-62.86-10.96-90.03h0c28.28-17.61,57.83-25.76,83.36-21.3v-.02Zm-94.66,112.26c-.21,4-.51,8-.9,11.95-18.47,11.44-34.9,24.58-48.86,38.79-2.85-19.7-8.39-40-16.58-60.13,1.96-3.34,3.96-6.66,6.09-9.94,14.93-22.94,32.94-42.59,52.19-57.93,6.53,23.6,9.49,50.01,8.06,77.25h0ZM376.87,27.34c23.36,11.42,42.54,35.39,55.02,66.36-22.83,16.97-44.15,39.43-61.89,66.17-14.84-28.51-33.71-53.13-54.67-72.46,15.65-29.37,37.19-51.18,61.54-60.07h0Zm-71.4,81.53c17.51,17.21,33.32,38.58,45.74,62.91,1.85,3.61,3.6,7.25,5.17,10.88,.02,.04,.03,.06,.05,.1-10.24,19.09-17.86,38.63-22.82,57.87-.02-.03-.04-.05-.06-.08-12.37-15.65-27.36-30.51-44.56-43.87,.02-3.83,.13-7.7,.33-11.57,1.43-27.34,7.19-53.35,16.17-76.24h0Zm-98.6-45.63c3.2-.2,6.44-.22,9.72-.05,23.2,1.21,48.09,12.02,71.14,30.08-11.26,26.09-18.49,56.18-20.4,88.16-27.12-17.3-55.79-29.17-83.63-35.48-1.22-33.25,6.53-62.9,23.17-82.71h0ZM77.61,179.09c21.57-14.43,51.98-19.03,85.09-14.3,3.34,28.19,12.14,57.87,26.5,86.55-32.16-1.49-63.01,2.52-90.23,10.94-17.67-28.21-25.84-57.71-21.36-83.18ZM23.71,343.97c11.45-23.31,35.49-42.46,66.54-54.92,16.99,22.81,39.46,44.07,66.3,61.76h0c-28.59,14.8-53.29,33.63-72.66,54.54-29.43-15.61-51.28-37.11-60.19-61.38h0Zm35.96,169.64c-1.78-25.87,9.49-54.42,30.08-80.69,26.15,11.19,56.3,18.45,88.39,20.35h.05c-17.34,27.07-29.32,55.67-35.62,83.42-33.31,1.15-63.01-6.49-82.9-23.09h0Zm116.14,128.98c-14.5-21.53-19-51.9-14.32-84.93,28.26-3.32,57.95-12.1,86.69-26.4-1.45,32.1,2.54,62.84,11,90.03-28.28,17.63-57.85,25.77-83.38,21.31Zm94.62-112.26c.21-4.02,.54-7.99,.93-11.95,18.49-11.46,34.94-24.63,48.92-38.85,2.87,19.71,8.38,39.99,16.56,60.12-1.98,3.36-3.98,6.71-6.13,10.02-14.94,22.95-32.96,42.61-52.21,57.96-6.5-23.65-9.48-50.04-8.06-77.28h0Zm70.59,166c-23.36-11.41-42.53-35.45-55.03-66.43,22.84-16.98,44.18-39.39,61.92-66.14,14.84,28.55,33.72,53.12,54.68,72.45-15.67,29.4-37.19,51.23-61.57,60.13h0Zm71.4-81.53c-17.48-17.23-33.28-38.59-45.7-62.9-1.86-3.64-3.57-7.3-5.23-10.97,10.24-19.1,17.87-38.63,22.82-57.88,12.4,15.69,27.39,30.57,44.6,43.96-.03,3.84-.12,7.69-.33,11.57-1.43,27.32-7.19,53.34-16.18,76.23h0Zm98.62,45.66c-25.93,1.73-54.55-9.5-80.88-30.04,11.26-26.08,18.47-56.16,20.43-88.17,27.12,17.29,55.78,29.18,83.58,35.46,1.15,33.25-6.5,62.89-23.14,82.74h0Zm129.27-115.88c-21.56,14.46-52,18.95-85.1,14.29-3.33-28.2-12.19-57.83-26.52-86.5,32.18,1.45,63.01-2.53,90.27-10.97,17.65,28.22,25.82,57.71,21.36,83.19h0Zm-12.62-109.99c-17.01-22.78-39.52-44.05-66.31-61.75,28.58-14.8,53.27-33.62,72.63-54.52,29.43,15.63,51.28,37.09,60.18,61.39-11.43,23.3-35.49,42.41-66.51,54.88h0Z"/></g><g><g><ellipse class="cls-34" cx="361.58" cy="358.74" rx="48.72" ry="48.62"/><g class="cls-2"><ellipse class="cls-11" cx="361.58" cy="358.74" rx="48.72" ry="48.62"/></g></g><ellipse class="cls-18" cx="361.58" cy="358.74" rx="48.72" ry="48.62"/></g></g></g></g></svg>