<?xml version="1.0" encoding="UTF-8"?><svg xmlns="http://www.w3.org/2000/svg" xmlns:xlink="http://www.w3.org/1999/xlink" viewBox="0 0 820.8 819.12"><defs><style>.cls-1{fill:#e5bd73;}.cls-2{fill:url(#Degradado_sin_nombre_250);}.cls-3{fill:url(#Unnamed_Pattern_5);}.cls-4{opacity:.81;}.cls-5{fill:url(#Unnamed_Pattern_2-3);}.cls-5,.cls-6,.cls-7,.cls-8{mix-blend-mode:overlay;opacity:.6;}.cls-9{fill:url(#Unnamed_Pattern-2);}.cls-10{fill:#fff;}.cls-11{fill:url(#Degradado_sin_nombre_257);}.cls-12{fill:url(#Degradado_sin_nombre_11-5);filter:url(#drop-shadow-7);}.cls-13{fill:url(#Degradado_sin_nombre_11-3);filter:url(#drop-shadow-3);}.cls-6{fill:url(#Unnamed_Pattern_2-5);}.cls-14{fill:url(#Unnamed_Pattern_2);}.cls-15{fill:url(#Degradado_sin_nombre_8-9);}.cls-16{fill:url(#Unnamed_Pattern-3);}.cls-17,.cls-18{opacity:.9;}.cls-19{fill:url(#Degradado_sin_nombre_8-8);}.cls-20{fill:#6aa7db;}.cls-21{fill:url(#Degradado_sin_nombre_11-6);filter:url(#drop-shadow-8);}.cls-7{fill:url(#Unnamed_Pattern_2-2);}.cls-22{fill:url(#Degradado_sin_nombre_8-5);}.cls-23{isolation:isolate;}.cls-24{fill:url(#Degradado_sin_nombre_8-2);}.cls-25{fill:#f1e9e6;}.cls-26{fill:url(#Degradado_sin_nombre_8-7);}.cls-27{fill:url(#Unnamed_Pattern_4);opacity:.8;}.cls-28{fill:url(#Degradado_sin_nombre_10);}.cls-29{fill:url(#Unnamed_Pattern_2-6);}.cls-30{fill:url(#Degradado_sin_nombre_8-3);}.cls-31{fill:url(#Degradado_sin_nombre_11);filter:url(#drop-shadow-1);}.cls-32{fill:#2a7bbf;}.cls-33{fill:#8d3350;}.cls-34{fill:url(#Degradado_sin_nombre_8-6);}.cls-35{fill:url(#Degradado_sin_nombre_11-8);filter:url(#drop-shadow-10);}.cls-36{fill:url(#Degradado_sin_nombre_11-2);filter:url(#drop-shadow-2);}.cls-37{fill:#23689e;}.cls-38{fill:url(#Degradado_sin_nombre_11-7);filter:url(#drop-shadow-9);}.cls-39{fill:none;}.cls-40{fill:url(#Degradado_sin_nombre_12);filter:url(#drop-shadow-6);}.cls-41{fill:url(#Unnamed_Pattern);}.cls-42{fill:url(#Degradado_sin_nombre_13);filter:url(#drop-shadow-4);}.cls-43{fill:url(#Degradado_sin_nombre_8-4);}.cls-44{fill:url(#Degradado_sin_nombre_9);}.cls-45{fill:url(#Degradado_sin_nombre_8);}.cls-46{fill:url(#Degradado_sin_nombre_11-10);filter:url(#drop-shadow-12);}.cls-47{fill:url(#Degradado_sin_nombre_252);filter:url(#drop-shadow-13);}.cls-18{fill:url(#Unnamed_Pattern_10);}.cls-48{fill:url(#Degradado_sin_nombre_11-9);filter:url(#drop-shadow-11);}.cls-49{fill:url(#Degradado_sin_nombre_8-10);}.cls-50{fill:#36386b;}.cls-51{fill:url(#Degradado_sin_nombre_11-4);filter:url(#drop-shadow-5);}.cls-52{mix-blend-mode:multiply;}.cls-53{fill:url(#Unnamed_Pattern_2-4);}</style><pattern id="Unnamed_Pattern_10" x="0" y="0" width="31.5" height="27.89" patternTransform="translate(-1970.54 -1262.38) rotate(3) scale(.78)" patternUnits="userSpaceOnUse" viewBox="0 0 31.5 27.89"><g><rect class="cls-39" x="0" width="31.5" height="27.89"/><path class="cls-32" d="M33.96,30.08l.91-.91c.14-.14,.14-.37,0-.51l-.91-.91c-.07-.07-.1-.16-.1-.25v-1.29c0-.2-.16-.36-.36-.36h-1.29c-.1,0-.19-.04-.25-.1l-.91-.91c-.14-.14-.37-.14-.51,0l-.91,.91c-.07,.07-.16,.1-.25,.1h-1.29c-.2,0-.36,.16-.36,.36v1.29c0,.1-.04,.19-.11,.25l-.91,.91c-.14,.14-.14,.37,0,.51l.91,.91c.07,.07,.11,.16,.11,.25v1.29c0,.2,.16,.36,.36,.36h1.29c.1,0,.19,.04,.25,.11l.91,.91c.14,.14,.37,.14,.51,0l.91-.91c.07-.07,.16-.11,.25-.11h1.29c.2,0,.36-.16,.36-.36v-1.29c0-.1,.04-.19,.1-.25Z"/><g><path class="cls-32" d="M2.46,30.08l.91-.91c.14-.14,.14-.37,0-.51l-.91-.91c-.07-.07-.1-.16-.1-.25v-1.29c0-.2-.16-.36-.36-.36H.71c-.1,0-.19-.04-.25-.1l-.91-.91c-.14-.14-.37-.14-.51,0l-.91,.91c-.07,.07-.16,.1-.25,.1h-1.29c-.2,0-.36,.16-.36,.36v1.29c0,.1-.04,.19-.11,.25l-.91,.91c-.14,.14-.14,.37,0,.51l.91,.91c.07,.07,.11,.16,.11,.25v1.29c0,.2,.16,.36,.36,.36h1.29c.1,0,.19,.04,.25,.11l.91,.91c.14,.14,.37,.14,.51,0l.91-.91c.07-.07,.16-.11,.25-.11H2c.2,0,.36-.16,.36-.36v-1.29c0-.1,.04-.19,.1-.25Z"/><path class="cls-20" d="M6.84,28.05l6.73-6.73c.48-.48,1.25-.48,1.73,0l6.73,6.73c.48,.48,.48,1.25,0,1.73l-6.73,6.73c-.48,.48-1.25,.48-1.73,0l-6.73-6.73c-.48-.48-.48-1.25,0-1.73Z"/></g><g><path class="cls-32" d="M18.21,16.13l.91-.91c.14-.14,.14-.37,0-.51l-.91-.91c-.07-.07-.1-.16-.1-.25v-1.29c0-.2-.16-.36-.36-.36h-1.29c-.1,0-.19-.04-.25-.1l-.91-.91c-.14-.14-.37-.14-.51,0l-.91,.91c-.07,.07-.16,.1-.25,.1h-1.29c-.2,0-.36,.16-.36,.36v1.29c0,.09-.04,.19-.11,.25l-.91,.91c-.14,.14-.14,.37,0,.51l.91,.91c.07,.07,.11,.16,.11,.25v1.29c0,.2,.16,.36,.36,.36h1.29c.1,0,.19,.04,.25,.1l.91,.91c.14,.14,.37,.14,.51,0l.91-.91c.07-.07,.16-.1,.25-.1h1.29c.2,0,.36-.16,.36-.36v-1.29c0-.1,.04-.19,.1-.25Z"/><path class="cls-20" d="M22.59,14.11l6.73-6.73c.48-.48,1.25-.48,1.73,0l6.73,6.73c.48,.48,.48,1.25,0,1.73l-6.73,6.73c-.48,.48-1.25,.48-1.73,0l-6.73-6.73c-.48-.48-.48-1.25,0-1.73Z"/></g><path class="cls-20" d="M-8.91,14.11L-2.18,7.38c.48-.48,1.25-.48,1.73,0l6.73,6.73c.48,.48,.48,1.25,0,1.73L-.45,22.56c-.48,.48-1.25,.48-1.73,0l-6.73-6.73c-.48-.48-.48-1.25,0-1.73Z"/><path class="cls-32" d="M33.96,2.19l.91-.91c.14-.14,.14-.37,0-.51l-.91-.91c-.07-.07-.1-.16-.1-.25V-1.67c0-.2-.16-.36-.36-.36h-1.29c-.1,0-.19-.04-.25-.11l-.91-.91c-.14-.14-.37-.14-.51,0l-.91,.91c-.07,.07-.16,.11-.25,.11h-1.29c-.2,0-.36,.16-.36,.36V-.39c0,.1-.04,.19-.11,.25l-.91,.91c-.14,.14-.14,.37,0,.51l.91,.91c.07,.07,.11,.16,.11,.25v1.29c0,.2,.16,.36,.36,.36h1.29c.1,0,.19,.04,.25,.1l.91,.91c.14,.14,.37,.14,.51,0l.91-.91c.07-.07,.16-.1,.25-.1h1.29c.2,0,.36-.16,.36-.36v-1.29c0-.1,.04-.19,.1-.25Z"/><g><path class="cls-32" d="M2.46,2.19l.91-.91c.14-.14,.14-.37,0-.51L2.46-.13c-.07-.07-.1-.16-.1-.25V-1.67c0-.2-.16-.36-.36-.36H.71c-.1,0-.19-.04-.25-.11l-.91-.91c-.14-.14-.37-.14-.51,0l-.91,.91c-.07,.07-.16,.11-.25,.11h-1.29c-.2,0-.36,.16-.36,.36V-.39c0,.1-.04,.19-.11,.25l-.91,.91c-.14,.14-.14,.37,0,.51l.91,.91c.07,.07,.11,.16,.11,.25v1.29c0,.2,.16,.36,.36,.36h1.29c.1,0,.19,.04,.25,.1l.91,.91c.14,.14,.37,.14,.51,0l.91-.91c.07-.07,.16-.1,.25-.1H2c.2,0,.36-.16,.36-.36v-1.29c0-.1,.04-.19,.1-.25Z"/><path class="cls-20" d="M6.84,.16l6.73-6.73c.48-.48,1.25-.48,1.73,0L22.03,.16c.48,.48,.48,1.25,0,1.73l-6.73,6.73c-.48,.48-1.25,.48-1.73,0L6.84,1.89c-.48-.48-.48-1.25,0-1.73Z"/></g></g></pattern><pattern id="Unnamed_Pattern_2" x="0" y="0" width="29.74" height="29.48" patternTransform="translate(-3503.67 -3521.97) scale(.54)" patternUnits="userSpaceOnUse" viewBox="0 0 29.74 29.48"><g><rect class="cls-39" y="0" width="29.74" height="29.48"/><path class="cls-10" d="M14.24,35.25c-1.82-2.17-2.71-4.36-3.16-5.8-.6,1.53-1.73,3.86-3.84,6.14-2.66,2.88-5.58,4.28-7.23,4.93,1.45,.47,4.2,1.56,6.78,4.1,2.69,2.64,3.82,5.51,4.29,6.97,.55-1.51,1.7-4.07,4.07-6.52,2.62-2.72,5.45-3.99,7.01-4.56-1.59-.51-5.05-1.86-7.91-5.27Zm-1.56,7.07c-.93,.97-1.39,1.97-1.6,2.57-.18-.58-.63-1.71-1.69-2.75-1.02-1-2.1-1.43-2.67-1.62,.65-.26,1.8-.81,2.85-1.94,.83-.9,1.28-1.82,1.51-2.42,.18,.57,.53,1.43,1.25,2.29,1.13,1.34,2.49,1.88,3.12,2.08-.61,.22-1.73,.72-2.76,1.8Z"/><path class="cls-10" d="M29.11,20.51c-1.82-2.17-2.71-4.36-3.16-5.8-.6,1.53-1.73,3.86-3.84,6.14-2.66,2.88-5.58,4.28-7.23,4.93,1.45,.47,4.2,1.56,6.78,4.1,2.69,2.64,3.82,5.51,4.29,6.97,.55-1.51,1.7-4.07,4.07-6.52,2.62-2.72,5.45-3.99,7.01-4.56-1.59-.51-5.05-1.86-7.91-5.27Zm-1.56,7.07c-.93,.97-1.39,1.97-1.6,2.57-.18-.58-.63-1.71-1.69-2.75-1.02-1-2.1-1.43-2.67-1.62,.65-.26,1.8-.81,2.85-1.94,.83-.9,1.28-1.82,1.51-2.42,.18,.57,.53,1.43,1.25,2.29,1.13,1.34,2.49,1.88,3.12,2.08-.61,.22-1.73,.72-2.76,1.8Z"/><path class="cls-10" d="M-.63,20.51c-1.82-2.17-2.71-4.36-3.16-5.8-.6,1.53-1.73,3.86-3.84,6.14-2.66,2.88-5.58,4.28-7.23,4.93,1.45,.47,4.2,1.56,6.78,4.1,2.69,2.64,3.82,5.51,4.29,6.97,.55-1.51,1.7-4.07,4.07-6.52,2.62-2.72,5.45-3.99,7.01-4.56-1.59-.51-5.05-1.86-7.91-5.27Zm-1.56,7.07c-.93,.97-1.39,1.97-1.6,2.57-.18-.58-.63-1.71-1.69-2.75-1.02-1-2.1-1.43-2.67-1.62,.65-.26,1.8-.81,2.85-1.94,.83-.9,1.28-1.82,1.51-2.42,.18,.57,.53,1.43,1.25,2.29,1.13,1.34,2.49,1.88,3.12,2.08-.61,.22-1.73,.72-2.76,1.8Z"/><path class="cls-10" d="M14.24,5.77C12.42,3.6,11.52,1.4,11.07-.04c-.6,1.53-1.73,3.86-3.84,6.14C4.57,8.99,1.65,10.39,0,11.04c1.45,.47,4.2,1.56,6.78,4.1,2.69,2.64,3.82,5.51,4.29,6.97,.55-1.51,1.7-4.07,4.07-6.52,2.62-2.72,5.45-3.99,7.01-4.56-1.59-.51-5.05-1.86-7.91-5.27Zm-1.56,7.07c-.93,.97-1.39,1.97-1.6,2.57-.18-.57-.63-1.71-1.69-2.75-1.02-1-2.1-1.43-2.67-1.62,.65-.26,1.8-.81,2.85-1.94,.83-.9,1.28-1.82,1.51-2.42,.18,.57,.53,1.43,1.25,2.29,1.13,1.34,2.49,1.88,3.12,2.08-.61,.22-1.73,.72-2.76,1.8Z"/><path class="cls-10" d="M29.11-8.97c-1.82-2.17-2.71-4.36-3.16-5.8-.6,1.53-1.73,3.86-3.84,6.14-2.66,2.88-5.58,4.28-7.23,4.93,1.45,.47,4.2,1.56,6.78,4.1,2.69,2.64,3.82,5.51,4.29,6.97,.55-1.51,1.7-4.07,4.07-6.52,2.62-2.72,5.45-3.99,7.01-4.56-1.59-.51-5.05-1.86-7.91-5.27Zm-1.56,7.07c-.93,.97-1.39,1.97-1.6,2.57-.18-.58-.63-1.71-1.69-2.75-1.02-1-2.1-1.43-2.67-1.62,.65-.26,1.8-.81,2.85-1.94,.83-.9,1.28-1.82,1.51-2.42,.18,.57,.53,1.43,1.25,2.29,1.13,1.34,2.49,1.88,3.12,2.08-.61,.22-1.73,.72-2.76,1.8Z"/><path class="cls-10" d="M-.63-8.97c-1.82-2.17-2.71-4.36-3.16-5.8-.6,1.53-1.73,3.86-3.84,6.14-2.66,2.88-5.58,4.28-7.23,4.93,1.45,.47,4.2,1.56,6.78,4.1,2.69,2.64,3.82,5.51,4.29,6.97C-3.25,5.86-2.09,3.3,.27,.85,2.89-1.87,5.72-3.14,7.28-3.7c-1.59-.51-5.05-1.86-7.91-5.27ZM-2.19-1.91C-3.12-.94-3.58,.07-3.8,.66c-.18-.58-.63-1.71-1.69-2.75-1.02-1-2.1-1.43-2.67-1.62,.65-.26,1.8-.81,2.85-1.94,.83-.9,1.28-1.82,1.51-2.42,.18,.57,.53,1.43,1.25,2.29C-1.42-4.44-.05-3.9,.57-3.7c-.61,.22-1.73,.72-2.76,1.8Z"/></g></pattern><pattern id="Unnamed_Pattern_2-2" patternTransform="translate(-661.04 -686.58) scale(.9)" xlink:href="#Unnamed_Pattern_2"/><pattern id="Unnamed_Pattern_2-3" patternTransform="translate(-661.04 -686.58) scale(.9)" xlink:href="#Unnamed_Pattern_2"/><pattern id="Unnamed_Pattern_2-4" patternTransform="translate(-3494.09 -3523.29) scale(.54)" xlink:href="#Unnamed_Pattern_2"/><pattern id="Unnamed_Pattern_2-5" patternTransform="translate(-661.04 -686.58) scale(.9)" xlink:href="#Unnamed_Pattern_2"/><pattern id="Unnamed_Pattern_2-6" patternTransform="translate(-4920.7 -4939.41) scale(.36)" xlink:href="#Unnamed_Pattern_2"/><pattern id="Unnamed_Pattern_4" x="0" y="0" width="18.77" height="32.21" patternTransform="translate(-1976.65 -1232.69) rotate(3) scale(.78)" patternUnits="userSpaceOnUse" viewBox="0 0 18.77 32.21"><g><rect class="cls-39" x="0" width="18.77" height="32.21"/><g><path class="cls-25" d="M26.92,31.49c-1.35,.68-3.25,1.84-5.14,3.74-1.83,1.84-2.96,3.7-3.63,5.03-.6-1.31-1.71-3.33-3.69-5.28-1.88-1.85-3.79-2.9-5.07-3.49,1.3-.6,3.25-1.69,5.16-3.59,1.92-1.92,3.01-3.88,3.61-5.18,.68,1.32,1.79,3.13,3.55,4.93,1.9,1.94,3.84,3.14,5.22,3.84Z"/><path class="cls-33" d="M22.81,31.49c-.71,.36-1.73,.98-2.72,1.98-.97,.98-1.57,1.97-1.93,2.67-.32-.7-.91-1.77-1.96-2.8-1-.98-2.01-1.54-2.69-1.85,.69-.32,1.72-.89,2.74-1.91,1.02-1.02,1.6-2.06,1.92-2.75,.36,.7,.95,1.66,1.88,2.62,1.01,1.03,2.04,1.66,2.77,2.04Z"/><path class="cls-1" d="M19.07,32.34c-.52,.52-1.37,.52-1.89,0s-.52-1.37,0-1.89c.52-.52,1.37-.52,1.89,0,.52,.52,.52,1.37,0,1.89Z"/></g><g><path class="cls-25" d="M8.15,31.49c-1.35,.68-3.25,1.84-5.14,3.74-1.83,1.84-2.96,3.7-3.63,5.03-.6-1.31-1.71-3.33-3.7-5.28-1.88-1.85-3.79-2.9-5.07-3.49,1.3-.6,3.25-1.69,5.16-3.59,1.92-1.92,3.01-3.88,3.61-5.18,.68,1.32,1.79,3.13,3.55,4.93,1.9,1.94,3.84,3.14,5.22,3.84Z"/><path class="cls-33" d="M4.04,31.49c-.71,.36-1.73,.98-2.72,1.98-.97,.98-1.57,1.97-1.93,2.67-.32-.7-.91-1.77-1.96-2.8-1-.98-2.01-1.54-2.69-1.85,.69-.32,1.72-.89,2.74-1.91,1.02-1.02,1.6-2.06,1.92-2.75,.36,.7,.95,1.66,1.88,2.62,1.01,1.03,2.04,1.66,2.77,2.04Z"/><path class="cls-1" d="M.3,32.34c-.52,.52-1.37,.52-1.89,0s-.52-1.37,0-1.89c.52-.52,1.37-.52,1.89,0,.52,.52,.52,1.37,0,1.89Z"/></g><g><path class="cls-25" d="M17.54,15.38c-1.35,.68-3.25,1.84-5.14,3.74-1.83,1.84-2.96,3.7-3.63,5.03-.6-1.31-1.71-3.33-3.7-5.28-1.88-1.85-3.79-2.9-5.07-3.49,1.3-.6,3.25-1.69,5.16-3.59,1.92-1.92,3.01-3.88,3.61-5.18,.68,1.32,1.79,3.13,3.55,4.93,1.91,1.94,3.84,3.14,5.22,3.84Z"/><path class="cls-33" d="M13.42,15.38c-.71,.36-1.73,.98-2.72,1.98-.97,.98-1.57,1.97-1.93,2.67-.32-.7-.91-1.77-1.96-2.8-1-.98-2.01-1.54-2.69-1.85,.69-.32,1.72-.89,2.74-1.91,1.02-1.02,1.6-2.06,1.92-2.75,.36,.7,.95,1.66,1.88,2.62,1.01,1.03,2.04,1.66,2.77,2.04Z"/><path class="cls-1" d="M9.69,16.24c-.52,.52-1.37,.52-1.89,0-.52-.52-.52-1.37,0-1.89,.52-.52,1.37-.52,1.89,0s.52,1.37,0,1.89Z"/></g><g><path class="cls-25" d="M26.92-.72c-1.35,.68-3.25,1.84-5.14,3.74-1.83,1.84-2.96,3.7-3.63,5.03-.6-1.31-1.71-3.33-3.69-5.28C12.58,.93,10.67-.13,9.38-.72c1.3-.6,3.25-1.69,5.16-3.59,1.92-1.92,3.01-3.88,3.61-5.18,.68,1.32,1.79,3.13,3.55,4.93,1.9,1.94,3.84,3.14,5.22,3.84Z"/><path class="cls-33" d="M22.81-.72c-.71,.36-1.73,.98-2.72,1.98-.97,.98-1.57,1.97-1.93,2.67-.32-.7-.91-1.77-1.96-2.8-1-.98-2.01-1.54-2.69-1.85,.69-.32,1.72-.89,2.74-1.91,1.02-1.02,1.6-2.06,1.92-2.75,.36,.7,.95,1.66,1.88,2.62,1.01,1.03,2.04,1.66,2.77,2.04Z"/><path class="cls-1" d="M19.07,.14c-.52,.52-1.37,.52-1.89,0s-.52-1.37,0-1.89c.52-.52,1.37-.52,1.89,0s.52,1.37,0,1.89Z"/></g><g><path class="cls-25" d="M8.15-.72C6.81-.04,4.9,1.12,3.02,3.02,1.19,4.86,.06,6.72-.62,8.05c-.6-1.31-1.71-3.33-3.7-5.28C-6.19,.93-8.1-.13-9.38-.72c1.3-.6,3.25-1.69,5.16-3.59,1.92-1.92,3.01-3.88,3.61-5.18C.06-8.17,1.17-6.36,2.94-4.56c1.9,1.94,3.84,3.14,5.22,3.84Z"/><path class="cls-33" d="M4.04-.72c-.71,.36-1.73,.98-2.72,1.98C.34,2.24-.26,3.23-.62,3.93c-.32-.7-.91-1.77-1.96-2.8C-3.57,.15-4.59-.41-5.27-.72c.69-.32,1.72-.89,2.74-1.91,1.02-1.02,1.6-2.06,1.92-2.75,.36,.7,.95,1.66,1.88,2.62C2.28-1.72,3.31-1.09,4.04-.72Z"/><path class="cls-1" d="M.3,.14C-.22,.66-1.07,.66-1.59,.14s-.52-1.37,0-1.89c.52-.52,1.37-.52,1.89,0C.82-1.23,.82-.39,.3,.14Z"/></g></g></pattern><pattern id="Unnamed_Pattern_5" x="0" y="0" width="28.84" height="41.84" patternTransform="translate(-4255.65 -3806.59) rotate(3) scale(.47)" patternUnits="userSpaceOnUse" viewBox="0 0 28.84 41.84"><g><rect class="cls-39" y="0" width="28.84" height="41.84"/><g><path class="cls-25" d="M34.73,40.17c-1.15,0-2.21,.37-3.07,1,.15-.92,.36-1.72,.56-2.34-.77,.28-1.89,.62-3.26,.78,.93-.95,1.52-2.25,1.52-3.69,0-2.18-1.32-4.06-3.21-4.87-1.89,.81-3.21,2.68-3.21,4.87,0,1.44,.58,2.74,1.52,3.69-1.37-.16-2.49-.5-3.26-.78,.23,.61,.48,1.44,.66,2.43-.89-.67-1.98-1.08-3.18-1.08-2.18,0-4.06,1.32-4.87,3.21,.81,1.89,2.68,3.21,4.87,3.21,1.26,0,2.41-.45,3.31-1.18-.16,1.4-.51,2.54-.8,3.32,.65-.21,1.51-.43,2.51-.59-.48,.79-.76,1.72-.76,2.71,0,2.18,1.32,4.06,3.21,4.87,1.89-.81,3.21-2.68,3.21-4.87,0-.99-.28-1.91-.76-2.71,1,.16,1.85,.38,2.51,.59-.26-.81-.53-1.92-.68-3.23,.89,.68,1.99,1.09,3.19,1.09,2.18,0,4.06-1.32,4.87-3.21-.81-1.89-2.68-3.21-4.87-3.21Z"/><path class="cls-33" d="M30.17,46.69c-.67-.22-1.69-.47-2.95-.47-1.22,0-2.22,.25-2.88,.47,.24-.64,.54-1.68,.53-2.98-.01-1.24-.29-2.22-.53-2.85,.63,.23,1.64,.52,2.91,.52,1.28,0,2.29-.29,2.92-.52-.21,.66-.45,1.63-.46,2.82-.01,1.28,.24,2.32,.46,3.01Z"/></g><g><path class="cls-25" d="M5.89,40.17c-1.15,0-2.21,.37-3.07,1,.15-.92,.36-1.72,.56-2.34-.77,.28-1.89,.62-3.26,.78,.93-.95,1.52-2.25,1.52-3.69,0-2.18-1.32-4.06-3.21-4.87-1.89,.81-3.21,2.68-3.21,4.87,0,1.44,.58,2.74,1.52,3.69-1.37-.16-2.49-.5-3.26-.78,.23,.61,.48,1.44,.67,2.43-.89-.67-1.98-1.08-3.18-1.08-2.18,0-4.06,1.32-4.87,3.21,.81,1.89,2.68,3.21,4.87,3.21,1.26,0,2.41-.45,3.31-1.18-.16,1.4-.51,2.54-.8,3.32,.65-.21,1.51-.43,2.51-.59-.48,.79-.76,1.72-.76,2.71,0,2.18,1.32,4.06,3.21,4.87,1.89-.81,3.21-2.68,3.21-4.87,0-.99-.28-1.91-.76-2.71,1,.16,1.85,.38,2.51,.59-.26-.81-.53-1.92-.68-3.23,.89,.68,1.99,1.09,3.19,1.09,2.18,0,4.06-1.32,4.87-3.21-.81-1.89-2.68-3.21-4.87-3.21Z"/><path class="cls-33" d="M1.33,46.69c-.67-.22-1.69-.47-2.95-.47-1.22,0-2.22,.25-2.88,.47,.24-.64,.54-1.68,.53-2.98-.01-1.24-.29-2.22-.53-2.85,.63,.23,1.64,.52,2.91,.52,1.28,0,2.29-.29,2.92-.52-.21,.66-.45,1.63-.46,2.82-.01,1.28,.24,2.32,.46,3.01Z"/></g><g><path class="cls-25" d="M20.31,19.25c-1.15,0-2.21,.37-3.07,1,.15-.92,.36-1.72,.56-2.34-.77,.28-1.89,.62-3.26,.78,.93-.95,1.52-2.25,1.52-3.69,0-2.18-1.32-4.06-3.21-4.87-1.89,.81-3.21,2.68-3.21,4.87,0,1.44,.58,2.74,1.52,3.69-1.37-.16-2.49-.5-3.26-.78,.23,.61,.48,1.44,.67,2.43-.89-.67-1.98-1.08-3.18-1.08-2.18,0-4.06,1.32-4.87,3.21,.81,1.89,2.68,3.21,4.87,3.21,1.26,0,2.41-.45,3.31-1.18-.16,1.4-.51,2.54-.8,3.32,.65-.21,1.51-.43,2.51-.59-.48,.79-.76,1.72-.76,2.71,0,2.18,1.32,4.06,3.21,4.87,1.89-.81,3.21-2.68,3.21-4.87,0-.99-.28-1.91-.76-2.71,1,.16,1.85,.38,2.51,.59-.26-.81-.53-1.92-.68-3.23,.89,.68,1.99,1.09,3.19,1.09,2.18,0,4.06-1.32,4.87-3.21-.81-1.89-2.68-3.21-4.87-3.21Z"/><path class="cls-33" d="M15.75,25.77c-.67-.22-1.69-.47-2.95-.47-1.22,0-2.22,.25-2.88,.47,.24-.64,.54-1.68,.53-2.98-.01-1.24-.29-2.22-.53-2.85,.63,.23,1.64,.52,2.91,.52,1.28,0,2.29-.29,2.92-.52-.21,.66-.45,1.63-.46,2.82-.01,1.28,.24,2.32,.46,3.01Z"/><path class="cls-1" d="M12.87,23.86c-.59,0-1.07-.48-1.07-1.07s.48-1.07,1.07-1.07,1.07,.48,1.07,1.07-.48,1.07-1.07,1.07Z"/></g><g><path class="cls-25" d="M34.73-1.68c-1.15,0-2.21,.37-3.07,1,.15-.92,.36-1.72,.56-2.34-.77,.28-1.89,.62-3.26,.78,.93-.95,1.52-2.25,1.52-3.69,0-2.18-1.32-4.06-3.21-4.87-1.89,.81-3.21,2.68-3.21,4.87,0,1.44,.58,2.74,1.52,3.69-1.37-.16-2.49-.5-3.26-.78,.23,.61,.48,1.44,.66,2.43-.89-.67-1.98-1.08-3.18-1.08-2.18,0-4.06,1.32-4.87,3.21,.81,1.89,2.68,3.21,4.87,3.21,1.26,0,2.41-.45,3.31-1.18-.16,1.4-.51,2.54-.8,3.32,.65-.21,1.51-.43,2.51-.59-.48,.79-.76,1.72-.76,2.71,0,2.18,1.32,4.06,3.21,4.87,1.89-.81,3.21-2.68,3.21-4.87,0-.99-.28-1.91-.76-2.71,1,.16,1.85,.38,2.51,.59-.26-.81-.53-1.92-.68-3.23,.89,.68,1.99,1.09,3.19,1.09,2.18,0,4.06-1.32,4.87-3.21-.81-1.89-2.68-3.21-4.87-3.21Z"/><path class="cls-33" d="M30.17,4.85c-.67-.22-1.69-.47-2.95-.47-1.22,0-2.22,.25-2.88,.47,.24-.64,.54-1.68,.53-2.98-.01-1.24-.29-2.22-.53-2.85,.63,.23,1.64,.52,2.91,.52,1.28,0,2.29-.29,2.92-.52-.21,.66-.45,1.63-.46,2.82-.01,1.28,.24,2.32,.46,3.01Z"/><path class="cls-1" d="M27.29,2.94c-.59,0-1.07-.48-1.07-1.07s.48-1.07,1.07-1.07,1.07,.48,1.07,1.07-.48,1.07-1.07,1.07Z"/></g><g><path class="cls-25" d="M5.89-1.68c-1.15,0-2.21,.37-3.07,1,.15-.92,.36-1.72,.56-2.34-.77,.28-1.89,.62-3.26,.78,.93-.95,1.52-2.25,1.52-3.69,0-2.18-1.32-4.06-3.21-4.87-1.89,.81-3.21,2.68-3.21,4.87,0,1.44,.58,2.74,1.52,3.69-1.37-.16-2.49-.5-3.26-.78,.23,.61,.48,1.44,.67,2.43-.89-.67-1.98-1.08-3.18-1.08-2.18,0-4.06,1.32-4.87,3.21,.81,1.89,2.68,3.21,4.87,3.21,1.26,0,2.41-.45,3.31-1.18-.16,1.4-.51,2.54-.8,3.32,.65-.21,1.51-.43,2.51-.59-.48,.79-.76,1.72-.76,2.71,0,2.18,1.32,4.06,3.21,4.87,1.89-.81,3.21-2.68,3.21-4.87,0-.99-.28-1.91-.76-2.71,1,.16,1.85,.38,2.51,.59-.26-.81-.53-1.92-.68-3.23,.89,.68,1.99,1.09,3.19,1.09,2.18,0,4.06-1.32,4.87-3.21-.81-1.89-2.68-3.21-4.87-3.21Z"/><path class="cls-33" d="M1.33,4.85c-.67-.22-1.69-.47-2.95-.47-1.22,0-2.22,.25-2.88,.47,.24-.64,.54-1.68,.53-2.98-.01-1.24-.29-2.22-.53-2.85,.63,.23,1.64,.52,2.91,.52,1.28,0,2.29-.29,2.92-.52-.21,.66-.45,1.63-.46,2.82-.01,1.28,.24,2.32,.46,3.01Z"/></g></g></pattern><pattern id="Unnamed_Pattern" x="0" y="0" width="103" height="96.45" patternTransform="translate(-5375.22 -4937.4) rotate(3) scale(.31)" patternUnits="userSpaceOnUse" viewBox="0 0 103 96.45"><g><rect class="cls-39" y="0" width="103" height="96.45"/><polygon class="cls-32" points="122 121.64 127.8 115.84 122 110.04 122 101.84 113.8 101.84 108 96.04 102.2 101.84 94 101.84 94 110.04 88.2 115.84 94 121.64 94 129.84 102.2 129.84 108 135.64 113.8 129.84 122 129.84 122 121.64"/><polygon class="cls-32" points="70.5 121.64 76.3 115.84 70.5 110.04 70.5 101.84 62.3 101.84 56.5 96.04 50.7 101.84 42.5 101.84 42.5 110.04 36.7 115.84 42.5 121.64 42.5 129.84 50.7 129.84 56.5 135.64 62.3 129.84 70.5 129.84 70.5 121.64"/><polygon class="cls-32" points="19 121.64 24.8 115.84 19 110.04 19 101.84 10.8 101.84 5 96.04 -.8 101.84 -9 101.84 -9 110.04 -14.8 115.84 -9 121.64 -9 129.84 -.8 129.84 5 135.64 10.8 129.84 19 129.84 19 121.64"/><g><polygon class="cls-32" points="96.25 73.41 102.05 67.61 96.25 61.81 96.25 53.61 88.05 53.61 82.25 47.81 76.45 53.61 68.25 53.61 68.25 61.81 62.45 67.61 68.25 73.41 68.25 81.61 76.45 81.61 82.25 87.41 88.05 81.61 96.25 81.61 96.25 73.41"/><polygon class="cls-20" points="90.2 70.91 93.5 67.61 90.2 64.32 90.2 59.66 85.55 59.66 82.25 56.36 78.95 59.66 74.3 59.66 74.3 64.32 71 67.61 74.3 70.91 74.3 75.57 78.95 75.57 82.25 78.86 85.55 75.57 90.2 75.57 90.2 70.91"/></g><g><polygon class="cls-32" points="44.75 73.41 50.55 67.61 44.75 61.81 44.75 53.61 36.55 53.61 30.75 47.81 24.95 53.61 16.75 53.61 16.75 61.81 10.95 67.61 16.75 73.41 16.75 81.61 24.95 81.61 30.75 87.41 36.55 81.61 44.75 81.61 44.75 73.41"/><polygon class="cls-20" points="38.7 70.91 42 67.61 38.7 64.32 38.7 59.66 34.05 59.66 30.75 56.36 27.45 59.66 22.8 59.66 22.8 64.32 19.5 67.61 22.8 70.91 22.8 75.57 27.45 75.57 30.75 78.86 34.05 75.57 38.7 75.57 38.7 70.91"/></g><g><polygon class="cls-32" points="122 25.19 127.8 19.39 122 13.59 122 5.39 113.8 5.39 108 -.41 102.2 5.39 94 5.39 94 13.59 88.2 19.39 94 25.19 94 33.39 102.2 33.39 108 39.19 113.8 33.39 122 33.39 122 25.19"/><polygon class="cls-20" points="115.95 22.68 119.25 19.39 115.95 16.09 115.95 11.43 111.3 11.43 108 8.14 104.7 11.43 100.05 11.43 100.05 16.09 96.75 19.39 100.05 22.68 100.05 27.34 104.7 27.34 108 30.64 111.3 27.34 115.95 27.34 115.95 22.68"/></g><g><polygon class="cls-32" points="70.5 25.19 76.3 19.39 70.5 13.59 70.5 5.39 62.3 5.39 56.5 -.41 50.7 5.39 42.5 5.39 42.5 13.59 36.7 19.39 42.5 25.19 42.5 33.39 50.7 33.39 56.5 39.19 62.3 33.39 70.5 33.39 70.5 25.19"/><polygon class="cls-20" points="64.45 22.68 67.75 19.39 64.45 16.09 64.45 11.43 59.8 11.43 56.5 8.14 53.2 11.43 48.55 11.43 48.55 16.09 45.25 19.39 48.55 22.68 48.55 27.34 53.2 27.34 56.5 30.64 59.8 27.34 64.45 27.34 64.45 22.68"/></g><g><polygon class="cls-32" points="19 25.19 24.8 19.39 19 13.59 19 5.39 10.8 5.39 5 -.41 -.8 5.39 -9 5.39 -9 13.59 -14.8 19.39 -9 25.19 -9 33.39 -.8 33.39 5 39.19 10.8 33.39 19 33.39 19 25.19"/><polygon class="cls-20" points="12.95 22.68 16.25 19.39 12.95 16.09 12.95 11.43 8.3 11.43 5 8.14 1.7 11.43 -2.95 11.43 -2.95 16.09 -6.25 19.39 -2.95 22.68 -2.95 27.34 1.7 27.34 5 30.64 8.3 27.34 12.95 27.34 12.95 22.68"/></g></g></pattern><pattern id="Unnamed_Pattern-2" patternTransform="translate(-5991 -5668.48) rotate(3) scale(.23)" xlink:href="#Unnamed_Pattern"/><linearGradient id="Degradado_sin_nombre_11" x1="652.72" y1="460.56" x2="741.49" y2="513.22" gradientTransform="translate(71.03 -12.74) rotate(3)" gradientUnits="userSpaceOnUse"><stop offset="0" stop-color="#d5d5d5"/><stop offset="1" stop-color="#fff"/></linearGradient><filter id="drop-shadow-1" filterUnits="userSpaceOnUse"><feOffset dx="-4.67" dy="3.89"/><feGaussianBlur result="blur" stdDeviation="5.45"/><feFlood flood-color="#6b6864" flood-opacity=".5"/><feComposite in2="blur" operator="in"/><feComposite in="SourceGraphic"/></filter><linearGradient id="Degradado_sin_nombre_11-2" x1="579.3" y1="654.75" x2="655.37" y2="654.75" xlink:href="#Degradado_sin_nombre_11"/><filter id="drop-shadow-2" filterUnits="userSpaceOnUse"><feOffset dx="-4.67" dy="3.89"/><feGaussianBlur result="blur-2" stdDeviation="5.45"/><feFlood flood-color="#6b6864" flood-opacity=".5"/><feComposite in2="blur-2" operator="in"/><feComposite in="SourceGraphic"/></filter><linearGradient id="Degradado_sin_nombre_11-3" x1="71.98" y1="650.65" x2="149.35" y2="650.65" xlink:href="#Degradado_sin_nombre_11"/><filter id="drop-shadow-3" filterUnits="userSpaceOnUse"><feOffset dx="-4.67" dy="3.89"/><feGaussianBlur result="blur-3" stdDeviation="5.45"/><feFlood flood-color="#6b6864" flood-opacity=".5"/><feComposite in2="blur-3" operator="in"/><feComposite in="SourceGraphic"/></filter><linearGradient id="Degradado_sin_nombre_13" x1="450.98" y1="99.55" x2="471.09" y2="14.36" gradientTransform="translate(71.03 -12.74) rotate(3)" gradientUnits="userSpaceOnUse"><stop offset="0" stop-color="#b7b7b7"/><stop offset=".15" stop-color="#c3c3c3"/><stop offset=".71" stop-color="#eee"/><stop offset="1" stop-color="#fff"/></linearGradient><filter id="drop-shadow-4" filterUnits="userSpaceOnUse"><feOffset dx="-4.67" dy="3.89"/><feGaussianBlur result="blur-4" stdDeviation="5.45"/><feFlood flood-color="#6b6864" flood-opacity=".5"/><feComposite in2="blur-4" operator="in"/><feComposite in="SourceGraphic"/></filter><linearGradient id="Degradado_sin_nombre_11-4" x1="594.48" y1="183.95" x2="647.85" y2="112.54" xlink:href="#Degradado_sin_nombre_11"/><filter id="drop-shadow-5" filterUnits="userSpaceOnUse"><feOffset dx="-4.67" dy="3.89"/><feGaussianBlur result="blur-5" stdDeviation="5.45"/><feFlood flood-color="#6b6864" flood-opacity=".5"/><feComposite in2="blur-5" operator="in"/><feComposite in="SourceGraphic"/></filter><linearGradient id="Degradado_sin_nombre_12" x1="285.67" y1="91.22" x2="267.83" y2="21.49" gradientTransform="translate(71.03 -12.74) rotate(3)" gradientUnits="userSpaceOnUse"><stop offset="0" stop-color="#b7b7b7"/><stop offset="1" stop-color="#fff"/></linearGradient><filter id="drop-shadow-6" filterUnits="userSpaceOnUse"><feOffset dx="-4.67" dy="3.89"/><feGaussianBlur result="blur-6" stdDeviation="5.45"/><feFlood flood-color="#6b6864" flood-opacity=".5"/><feComposite in2="blur-6" operator="in"/><feComposite in="SourceGraphic"/></filter><linearGradient id="Degradado_sin_nombre_11-5" x1="691.95" y1="310.76" x2="748.44" y2="310.76" xlink:href="#Degradado_sin_nombre_11"/><filter id="drop-shadow-7" filterUnits="userSpaceOnUse"><feOffset dx="-4.67" dy="3.89"/><feGaussianBlur result="blur-7" stdDeviation="5.45"/><feFlood flood-color="#6b6864" flood-opacity=".5"/><feComposite in2="blur-7" operator="in"/><feComposite in="SourceGraphic"/></filter><linearGradient id="Degradado_sin_nombre_11-6" x1="219.16" y1="753.26" x2="323.36" y2="753.26" xlink:href="#Degradado_sin_nombre_11"/><filter id="drop-shadow-8" filterUnits="userSpaceOnUse"><feOffset dx="-4.67" dy="3.89"/><feGaussianBlur result="blur-8" stdDeviation="5.45"/><feFlood flood-color="#6b6864" flood-opacity=".5"/><feComposite in2="blur-8" operator="in"/><feComposite in="SourceGraphic"/></filter><linearGradient id="Degradado_sin_nombre_11-7" x1="402.55" y1="754.01" x2="507.22" y2="754.01" xlink:href="#Degradado_sin_nombre_11"/><filter id="drop-shadow-9" filterUnits="userSpaceOnUse"><feOffset dx="-4.67" dy="3.89"/><feGaussianBlur result="blur-9" stdDeviation="5.45"/><feFlood flood-color="#6b6864" flood-opacity=".5"/><feComposite in2="blur-9" operator="in"/><feComposite in="SourceGraphic"/></filter><linearGradient id="Degradado_sin_nombre_11-8" x1="-13.46" y1="304.75" x2="48.01" y2="304.75" xlink:href="#Degradado_sin_nombre_11"/><filter id="drop-shadow-10" filterUnits="userSpaceOnUse"><feOffset dx="-4.67" dy="3.89"/><feGaussianBlur result="blur-10" stdDeviation="5.45"/><feFlood flood-color="#6b6864" flood-opacity=".5"/><feComposite in2="blur-10" operator="in"/><feComposite in="SourceGraphic"/></filter><linearGradient id="Degradado_sin_nombre_11-9" x1="77.19" y1="145.32" x2="150.82" y2="145.32" xlink:href="#Degradado_sin_nombre_11"/><filter id="drop-shadow-11" filterUnits="userSpaceOnUse"><feOffset dx="-4.67" dy="3.89"/><feGaussianBlur result="blur-11" stdDeviation="5.45"/><feFlood flood-color="#6b6864" flood-opacity=".5"/><feComposite in2="blur-11" operator="in"/><feComposite in="SourceGraphic"/></filter><linearGradient id="Degradado_sin_nombre_11-10" x1="-15.81" y1="492.44" x2="44.54" y2="492.44" xlink:href="#Degradado_sin_nombre_11"/><filter id="drop-shadow-12" filterUnits="userSpaceOnUse"><feOffset dx="-4.67" dy="3.89"/><feGaussianBlur result="blur-12" stdDeviation="5.45"/><feFlood flood-color="#6b6864" flood-opacity=".5"/><feComposite in2="blur-12" operator="in"/><feComposite in="SourceGraphic"/></filter><linearGradient id="Degradado_sin_nombre_8" x1="649.6" y1="463.68" x2="738.36" y2="516.34" gradientTransform="translate(71.03 -12.74) rotate(3)" gradientUnits="userSpaceOnUse"><stop offset="0" stop-color="#e0dfdf"/><stop offset="1" stop-color="#fff"/></linearGradient><linearGradient id="Degradado_sin_nombre_8-2" x1="576.18" y1="657.86" x2="652.25" y2="657.86" xlink:href="#Degradado_sin_nombre_8"/><linearGradient id="Degradado_sin_nombre_8-3" x1="68.86" y1="653.76" x2="146.22" y2="653.76" xlink:href="#Degradado_sin_nombre_8"/><linearGradient id="Degradado_sin_nombre_10" x1="447.85" y1="102.67" x2="467.97" y2="17.47" gradientTransform="translate(71.03 -12.74) rotate(3)" gradientUnits="userSpaceOnUse"><stop offset="0" stop-color="#c2c1c0"/><stop offset=".05" stop-color="#c5c4c3"/><stop offset=".68" stop-color="#efeeee"/><stop offset="1" stop-color="#fff"/></linearGradient><linearGradient id="Degradado_sin_nombre_8-4" x1="591.36" y1="187.07" x2="644.72" y2="115.66" xlink:href="#Degradado_sin_nombre_8"/><linearGradient id="Degradado_sin_nombre_9" x1="282.55" y1="94.33" x2="264.71" y2="24.61" gradientTransform="translate(71.03 -12.74) rotate(3)" gradientUnits="userSpaceOnUse"><stop offset="0" stop-color="#c2c1c0"/><stop offset="1" stop-color="#fff"/></linearGradient><linearGradient id="Degradado_sin_nombre_8-5" x1="688.83" y1="313.87" x2="745.32" y2="313.87" xlink:href="#Degradado_sin_nombre_8"/><linearGradient id="Degradado_sin_nombre_8-6" x1="216.04" y1="756.38" x2="320.24" y2="756.38" xlink:href="#Degradado_sin_nombre_8"/><linearGradient id="Degradado_sin_nombre_8-7" x1="399.42" y1="757.13" x2="504.09" y2="757.13" xlink:href="#Degradado_sin_nombre_8"/><linearGradient id="Degradado_sin_nombre_8-8" x1="-16.58" y1="307.87" x2="44.89" y2="307.87" xlink:href="#Degradado_sin_nombre_8"/><linearGradient id="Degradado_sin_nombre_8-9" x1="74.06" y1="148.44" x2="147.69" y2="148.44" xlink:href="#Degradado_sin_nombre_8"/><linearGradient id="Degradado_sin_nombre_8-10" x1="-18.93" y1="495.55" x2="41.42" y2="495.55" xlink:href="#Degradado_sin_nombre_8"/><linearGradient id="Degradado_sin_nombre_252" x1="253.88" y1="635.78" x2="602.71" y2="136.85" gradientUnits="userSpaceOnUse"><stop offset="0" stop-color="#fff"/><stop offset="1" stop-color="#e0dfdf"/></linearGradient><filter id="drop-shadow-13" filterUnits="userSpaceOnUse"><feOffset dx="-4.67" dy="3.89"/><feGaussianBlur result="blur-13" stdDeviation="5.45"/><feFlood flood-color="#75716d" flood-opacity=".5"/><feComposite in2="blur-13" operator="in"/><feComposite in="SourceGraphic"/></filter><linearGradient id="Degradado_sin_nombre_257" x1="202.67" y1="633.43" x2="550.45" y2="136.01" gradientTransform="translate(71.03 -12.74) rotate(3)" gradientUnits="userSpaceOnUse"><stop offset="0" stop-color="#e0dfdf"/><stop offset=".22" stop-color="#eae9e9"/><stop offset=".66" stop-color="#f9f9f9"/><stop offset="1" stop-color="#fff"/></linearGradient><pattern id="Unnamed_Pattern-3" patternTransform="translate(-5261.1 -5079.41) scale(.31)" xlink:href="#Unnamed_Pattern"/><radialGradient id="Degradado_sin_nombre_250" cx="414.49" cy="406.9" fx="414.49" fy="406.9" r="23.19" gradientTransform="translate(-540.12 -529.89) scale(2.31)" gradientUnits="userSpaceOnUse"><stop offset="0" stop-color="#fff" stop-opacity="0"/><stop offset=".3" stop-color="#fff" stop-opacity="0"/><stop offset=".42" stop-color="#f0f0f0" stop-opacity=".14"/><stop offset=".68" stop-color="#cacaca" stop-opacity=".49"/><stop offset="1" stop-color="#959595"/></radialGradient></defs><g class="cls-23"><g id="Layer_1"><g><g><path class="cls-20" d="M384.71,276.44s.04,.06,.07,.09c5.44-21.12,13.81-42.55,25.04-63.5-.02-.04-.03-.07-.05-.11-1.72-3.99-3.64-7.99-5.67-11.94-13.63-26.69-30.97-50.14-50.19-69.02-9.84,25.11-16.16,53.65-17.74,83.65-.22,4.24-.34,8.49-.36,12.69,18.87,14.66,35.33,30.97,48.89,48.14Z"/><g><path class="cls-50" d="M534.12,223.66s0,.03,0,.04c31.54-15.69,64.13-25.4,95.14-29.04,5.13-36.24,.2-69.56-15.72-93.17-28-4.88-60.43,4.05-91.46,23.37,0,0,0,0,0,0,9.25,29.81,13.67,63.57,12.03,98.78Z"/><path class="cls-18" d="M534.12,223.66s0,.03,0,.04c31.54-15.69,64.13-25.4,95.14-29.04,5.13-36.24,.2-69.56-15.72-93.17-28-4.88-60.43,4.05-91.46,23.37,0,0,0,0,0,0,9.25,29.81,13.67,63.57,12.03,98.78Z"/></g><path class="cls-33" d="M342.49,444.76s0,0,0,0c-5.65,.21-11.38,.17-17.2-.14-4.14-.22-8.32-.54-12.54-1.06-16.87,10.72-33.3,24.51-48.34,40.83,0,0,0,0,0,0,22-2.5,42.77-7.59,61.37-14.82,5.11-8.9,10.7-17.2,16.71-24.81Z"/><path class="cls-20" d="M282.5,572.51c3.8-1.93,7.52-3.96,11.19-6.04,3.29-23.62,9.22-45.95,17.33-66.27-21.05,5.83-43.9,9.34-67.73,10.13-2.54,3.53-5.03,7.13-7.44,10.83-16.33,25.09-27.95,51.78-34.78,77.79,26.72-4.04,54.63-12.81,81.42-26.44Z"/><path class="cls-37" d="M134.4,468.08s0,0,.01,0c25.17,9.82,53.77,16.13,83.84,17.7,4.25,.22,8.5,.34,12.71,.36,14.69-18.83,31.04-35.22,48.26-48.79-21.19-5.41-42.68-13.78-63.66-25,0,0,0,0,0,0-4,1.8-7.99,3.66-11.95,5.68-26.73,13.59-50.24,30.91-69.2,50.05Z"/><g class="cls-8"><path class="cls-14" d="M134.4,468.08s0,0,.01,0c25.17,9.82,53.77,16.13,83.84,17.7,4.25,.22,8.5,.34,12.71,.36,14.69-18.83,31.04-35.22,48.26-48.79-21.19-5.41-42.68-13.78-63.66-25,0,0,0,0,0,0-4,1.8-7.99,3.66-11.95,5.68-26.73,13.59-50.24,30.91-69.2,50.05Z"/></g><path class="cls-20" d="M206.11,378.59c3.58,2.31,7.22,4.58,10.87,6.7,.03,.02,.06,.03,.08,.05,22.15-8.96,44.48-15,66.17-18.15-.02-.02-.05-.05-.07-.07-15.65-15.25-30.13-33.23-42.68-53.48-4.34-.43-8.74-.76-13.15-.99-29.97-1.56-59.02,1.68-84.98,8.83,16.86,21.09,38.52,40.76,63.75,57.12Z"/><path class="cls-33" d="M317.19,364.53s.05,.04,.08,.06c10.23-.02,20.17,.65,29.74,2.04,0-.01-.02-.03-.03-.04-5.16-8.17-9.77-16.97-13.9-26.35-17.74-9.23-37.86-16.51-59.49-21.29,13.18,17.81,28,33.22,43.6,45.58Z"/><path class="cls-37" d="M300.74,233.16c-25.18-16.31-51.93-27.93-78.02-34.72,4.03,26.65,12.88,54.51,26.55,81.26,1.93,3.8,3.92,7.5,6.01,11.15q0,.05,.05,0c23.63,3.31,46.06,9.24,66.4,17.34-5.85-21.02-9.38-43.84-10.16-67.64-3.52-2.56-7.15-5.03-10.83-7.4Z"/><path class="cls-7" d="M300.74,233.16c-25.18-16.31-51.93-27.93-78.02-34.72,4.03,26.65,12.88,54.51,26.55,81.26,1.93,3.8,3.92,7.5,6.01,11.15q0,.05,.05,0c23.63,3.31,46.06,9.24,66.4,17.34-5.85-21.02-9.38-43.84-10.16-67.64-3.52-2.56-7.15-5.03-10.83-7.4Z"/><path class="cls-33" d="M421.21,514.39c-5.13-8.82-9.51-17.74-13.09-26.69-4.51,8.47-9.81,16.83-15.83,25,.85,19.97,4.54,41.05,11.19,62.24,8.85-20.31,14.73-40.84,17.72-60.56Z"/><path class="cls-33" d="M508.05,454.52c-4.01,.01-7.99-.05-11.91-.25-6.14-.32-12.1-1.01-17.97-1.86,5.14,8.19,9.78,17.02,13.9,26.38,17.74,9.22,37.91,16.51,59.59,21.34-13.19-17.77-28.01-33.19-43.6-45.62Z"/><path class="cls-37" d="M381.6,615.58c2.36-3.63,4.57-7.3,6.73-10.99-8.97-22.08-15.02-44.34-18.17-65.96-15.33,15.62-33.39,30.07-53.67,42.63-.43,4.34-.79,8.71-1.02,13.11-1.57,29.89,1.7,58.85,8.84,84.79,21.13-16.84,40.91-38.41,57.29-63.59Z"/><path class="cls-5" d="M381.6,615.58c2.36-3.63,4.57-7.3,6.73-10.99-8.97-22.08-15.02-44.34-18.17-65.96-15.33,15.62-33.39,30.07-53.67,42.63-.43,4.34-.79,8.71-1.02,13.11-1.57,29.89,1.7,58.85,8.84,84.79,21.13-16.84,40.91-38.41,57.29-63.59Z"/><path class="cls-37" d="M524.48,585.88c25.14,16.29,51.89,27.89,77.96,34.7-4.05-26.66-12.84-54.51-26.5-81.24-1.94-3.79-3.97-7.51-6.05-11.17-23.67-3.28-46.05-9.2-66.42-17.29,5.87,21.02,9.37,43.8,10.13,67.57,3.55,2.54,7.16,5.03,10.87,7.44Z"/><g class="cls-8"><path class="cls-53" d="M524.48,585.88c25.14,16.29,51.89,27.89,77.96,34.7-4.05-26.66-12.84-54.51-26.5-81.24-1.94-3.79-3.97-7.51-6.05-11.17-23.67-3.28-46.05-9.2-66.42-17.29,5.87,21.02,9.37,43.8,10.13,67.57,3.55,2.54,7.16,5.03,10.87,7.44Z"/></g><path class="cls-39" d="M404.09,200.97c-13.63-26.69-30.97-50.14-50.19-69.02-9.84,25.11-16.16,53.65-17.74,83.65-.22,4.24-.34,8.49-.36,12.69,18.87,14.66,35.33,30.97,48.89,48.14,.02,.03,.04,.06,.07,.09,5.44-21.12,13.81-42.55,25.04-63.5-.02-.04-.03-.07-.05-.11-1.72-3.99-3.64-7.99-5.67-11.94Z"/><path class="cls-20" d="M471.26,687.08c9.86-25.12,16.17-53.66,17.75-83.64,.22-4.25,.32-8.48,.36-12.69-18.89-14.68-35.34-31.02-48.94-48.23-5.44,21.12-13.81,42.56-25.04,63.51,1.82,4.03,3.7,8.05,5.74,12.04,13.62,26.67,30.97,50.1,50.14,69.01Z"/><path class="cls-37" d="M621.6,401.02c26.73-13.59,50.22-30.9,69.18-50.03-25.18-9.84-53.79-16.14-83.84-17.71-4.3-.22-8.58-.33-12.83-.36-14.71,18.84-31.04,35.26-48.27,48.82,21.19,5.42,42.69,13.78,63.71,25,4.04-1.82,8.06-3.69,12.06-5.72Z"/><path class="cls-6" d="M621.6,401.02c26.73-13.59,50.22-30.9,69.18-50.03-25.18-9.84-53.79-16.14-83.84-17.71-4.3-.22-8.58-.33-12.83-.36-14.71,18.84-31.04,35.26-48.27,48.82,21.19,5.42,42.69,13.78,63.71,25,4.04-1.82,8.06-3.69,12.06-5.72Z"/><path class="cls-50" d="M369.52,474.99c-8.19,5.14-17.01,9.75-26.36,13.87,0,0-.01,0-.02,0-9.23,17.69-16.53,37.8-21.36,59.41,17.84-13.17,33.31-27.99,45.78-43.57-.03-10.24,.65-20.2,2.05-29.77-.03,.02-.06,.04-.09,.06Z"/><path class="cls-50" d="M378.49,309.84c-10.74-16.82-24.55-33.19-40.92-48.17,2.5,21.96,7.61,42.69,14.86,61.25,8.92,5.08,17.26,10.63,24.86,16.69,.03,.03,.07,.06,.1,.08-.34-9.65,.05-19.58,1.18-29.73-.03-.04-.05-.08-.07-.12Z"/><path class="cls-50" d="M482.01,330.24s.02-.03,.03-.05c9.25-17.7,16.55-37.78,21.34-59.36,0,0,0-.02,0-.03-17.79,13.14-33.23,27.92-45.69,43.46,0,.02,0,.04,0,.06,.04,4-.06,7.95-.27,11.89-.32,6.05-.88,11.99-1.74,17.82,8.18-5.1,16.99-9.71,26.33-13.8Z"/><path class="cls-50" d="M487.62,557.37c-2.51-21.96-7.61-42.71-14.88-61.25-8.94-5.11-17.27-10.7-24.92-16.72,.34,9.62-.05,19.53-1.17,29.65,10.75,16.87,24.59,33.29,40.98,48.32Z"/><path class="cls-20" d="M542.7,246.54c-3.79,1.93-7.5,3.95-11.16,6.02v.04c-3.32,23.58-9.27,45.96-17.38,66.25,21.07-5.86,43.92-9.35,67.74-10.11,2.55-3.54,5.04-7.14,7.45-10.84,16.33-25.09,27.95-51.78,34.78-77.79-26.72,4.04-54.63,12.81-81.42,26.43Z"/><path class="cls-37" d="M443.59,203.47c-2.34,3.6-4.53,7.25-6.68,10.91,8.98,22.07,15.06,44.35,18.19,65.97,15.31-15.59,33.35-30.02,53.61-42.56,.43-4.33,.76-8.72,.99-13.11,1.57-29.89-1.68-58.87-8.84-84.76-21.12,16.83-40.88,38.39-57.26,63.56Z"/><g class="cls-8"><path class="cls-29" d="M443.59,203.47c-2.34,3.6-4.53,7.25-6.68,10.91,8.98,22.07,15.06,44.35,18.19,65.97,15.31-15.59,33.35-30.02,53.61-42.56,.43-4.33,.76-8.72,.99-13.11,1.57-29.89-1.68-58.87-8.84-84.76-21.12,16.83-40.88,38.39-57.26,63.56Z"/></g><path class="cls-33" d="M482.72,374.29s-.06,.07-.08,.1c9.63-.34,19.54,.05,29.67,1.17,16.92-10.72,33.39-24.53,48.46-40.88-22.01,2.5-42.81,7.6-61.4,14.86-5.08,8.88-10.63,17.19-16.65,24.76Z"/><path class="cls-20" d="M619.11,440.45c-3.6-2.33-7.24-4.51-10.9-6.65-22.13,8.95-44.46,14.99-66.14,18.14,15.62,15.28,30.07,33.27,42.64,53.47,4.35,.43,8.73,.78,13.15,1.01,29.95,1.56,58.97-1.7,84.98-8.81-16.87-21.08-38.49-40.81-63.73-57.16Z"/><path class="cls-33" d="M421.71,244.09c-8.85,20.32-14.74,40.85-17.73,60.58,5.15,8.8,9.54,17.71,13.12,26.63,4.52-8.47,9.81-16.83,15.84-25,0-.01,0-.03,0-.04-.83-19.9-4.55-40.96-11.21-62.12,0-.01-.01-.03-.02-.04Z"/><path class="cls-50" d="M578.39,418.62c-20.4-8.84-41.01-14.72-60.81-17.7-8.81,5.1-17.73,9.49-26.67,13.05,8.5,4.51,16.9,9.8,25.1,15.82,20.01-.85,41.14-4.53,62.38-11.17Z"/><path class="cls-50" d="M309.1,389.26c-19.97,.86-41.06,4.53-62.26,11.15,20.3,8.86,40.84,14.79,60.53,17.75,0,0,.01,0,.02,0,8.87-5.14,17.84-9.53,26.85-13.12-.01,0-.03-.01-.04-.02-8.48-4.44-16.91-9.73-25.11-15.76Z"/><path class="cls-33" d="M214.2,509.83c-35.21-2.09-68.29-10.05-96.98-22.33-22.6,28.82-34.95,60.15-33,88.53,21.82,18.21,54.41,26.59,90.96,25.33,6.91-30.45,20.06-61.83,39.08-91.53-.02,0-.04,0-.06,0Z"/><path class="cls-50" d="M291.06,595.4c-31.54,15.69-64.11,25.33-95.12,28.97-5.14,36.25-.2,69.57,15.71,93.19,28.01,4.9,60.45-4.04,91.48-23.38-9.29-29.83-13.66-63.56-12.07-98.78Z"/><path class="cls-33" d="M400.48,631.07c-19.47,29.36-42.88,53.94-67.94,72.57,13.72,33.99,34.75,60.37,60.38,72.89,26.74-9.76,50.37-33.71,67.55-65.97-23-21.21-43.72-48.17-60-79.49Z"/><path class="cls-50" d="M110.8,457.27c21.25-22.94,48.34-43.6,79.71-59.84,0,0,0,0-.01,0-29.44-19.42-54.1-42.73-72.74-67.76-34.07,13.67-60.45,34.68-73.01,60.26,9.77,26.64,33.75,50.22,66.04,67.35Z"/><g><path class="cls-33" d="M598.84,530.79c15.73,31.47,25.45,63.97,29.1,94.91,36.32,5.12,69.71,.2,93.37-15.68,4.89-27.96-4.07-60.32-23.44-91.28-29.9,9.27-63.72,13.64-99.04,12.04Z"/><path class="cls-27" d="M598.84,530.79c15.73,31.47,25.45,63.97,29.1,94.91,36.32,5.12,69.71,.2,93.37-15.68,4.89-27.96-4.07-60.32-23.44-91.28-29.9,9.27-63.72,13.64-99.04,12.04Z"/></g><g><path class="cls-50" d="M513.16,607.48c-2.15,35.11-10.06,68.11-22.42,96.74,28.89,22.54,60.28,34.86,88.74,32.96,18.25-21.78,26.65-54.3,25.39-90.78-30.51-6.89-61.95-19.94-91.71-38.91Z"/><path class="cls-18" d="M513.16,607.48c-2.15,35.11-10.06,68.11-22.42,96.74,28.89,22.54,60.28,34.86,88.74,32.96,18.25-21.78,26.65-54.3,25.39-90.78-30.51-6.89-61.95-19.94-91.71-38.91Z"/></g><g><path class="cls-33" d="M707.96,331.56c22.61-28.83,34.96-60.16,33.01-88.55-21.82-18.21-54.41-26.58-90.96-25.33-6.91,30.44-20.05,61.81-39.06,91.5,35.21,2.15,68.31,10.04,97,22.38Z"/><g class="cls-4"><path class="cls-3" d="M707.96,331.56c22.61-28.83,34.96-60.16,33.01-88.55-21.82-18.21-54.41-26.58-90.96-25.33-6.91,30.44-20.05,61.81-39.06,91.5,35.21,2.15,68.31,10.04,97,22.38Z"/></g></g><g><path class="cls-50" d="M707.46,489.36c34.02-13.69,60.43-34.66,72.97-60.21-9.77-26.66-33.75-50.21-66.03-67.36-21.24,22.93-48.33,43.58-79.69,59.82,29.4,19.42,54.1,42.76,72.76,67.75Z"/><g class="cls-17"><path class="cls-41" d="M707.46,489.36c34.02-13.69,60.43-34.66,72.97-60.21-9.77-26.66-33.75-50.21-66.03-67.36-21.24,22.93-48.33,43.58-79.69,59.82,29.4,19.42,54.1,42.76,72.76,67.75Z"/></g></g><path class="cls-33" d="M226.32,288.27c-15.76-31.46-25.42-64.03-29.08-94.96-36.33-5.19-69.69-.14-93.36,15.69-4.92,27.95,4.04,60.33,23.44,91.27,29.87-9.23,63.71-13.64,99-12Z"/><g><path class="cls-33" d="M424.72,187.91c19.46-29.34,42.86-53.98,67.91-72.6-13.7-33.97-34.75-60.28-60.37-72.81-26.7,9.75-50.34,33.69-67.52,65.91,23,21.2,43.71,48.21,59.98,79.5Z"/><path class="cls-27" d="M424.72,187.91c19.46-29.34,42.86-53.98,67.91-72.6-13.7-33.97-34.75-60.28-60.37-72.81-26.7,9.75-50.34,33.69-67.52,65.91,23,21.2,43.71,48.21,59.98,79.5Z"/></g><g><path class="cls-50" d="M312.07,211.56c2.09-35.09,10.02-68.1,22.38-96.73-25.31-19.81-52.6-31.67-78.06-33-3.59-.19-7.15-.17-10.66,.05-18.25,21.74-26.75,54.26-25.42,90.75,30.55,6.91,62,19.95,91.76,38.93Z"/><g class="cls-17"><path class="cls-9" d="M312.07,211.56c2.09-35.09,10.02-68.1,22.38-96.73-25.31-19.81-52.6-31.67-78.06-33-3.59-.19-7.15-.17-10.66,.05-18.25,21.74-26.75,54.26-25.42,90.75,30.55,6.91,62,19.95,91.76,38.93Z"/></g></g></g><g><g><path class="cls-31" d="M772.69,469.98c-6.25,4.99-13.27,9.38-20.53,13.42,7.21,13.41,11.65,27.16,12.72,40.72-8.33,9.34-19.01,17.09-31.45,23.19,3.27,7.62,6.13,15.38,8.09,23.11,18.23-8.59,33.76-20.12,45.3-34.56l2.76-3.46-.11-4.42c-.48-19.55-6.39-39.21-16.78-58Z"/><path class="cls-36" d="M692.73,635.93c-8.15,.47-16.14,1.38-24.07,2.14-.15,16.29-3.21,31.38-9.43,44.41-12.89,4.24-27.23,5.49-42.33,4.09-.11,.78-.18,1.57-.3,2.35-1.06,7.02-1.88,14.48-3.37,21.72,13.98,1.41,27.58,1.01,40.38-1.57,6.45-1.3,12.71-3.12,18.73-5.48l4.13-1.61,2.12-3.88c9.9-18.12,14.56-39.37,14.47-62.19-.11,0-.22,.01-.32,.02Z"/><path class="cls-13" d="M181.51,670.23c-.79-3.78-1.43-7.65-1.96-11.57-14.67-.61-28.3-3.62-40.19-9.28-3.73-11.24-5.16-23.6-4.53-36.6-8.06-2.9-16.08-6.38-23.7-10.52-2.31,21.43-.12,41.92,7.06,60.2l1.62,4.12,3.89,2.12c17.66,9.6,38.28,14.28,60.42,14.5-.96-4.6-1.79-9.02-2.62-12.95Z"/><path class="cls-42" d="M492.42,71.28c13.59-7.34,27.53-11.85,41.27-12.93,8.83,7.84,16.22,17.79,22.17,29.32,7.92-2.9,16.11-4.97,24.21-6.03-8.58-18.21-20.15-33.66-34.61-45.18l-3.46-2.76-4.43,.11c-20.17,.49-40.44,6.73-59.78,17.66,5.38,5.93,10.23,12.7,14.63,19.8Z"/><path class="cls-51" d="M645.65,132.06c1.86,7.38,3.01,14.85,3.57,22.31,15.82,.3,30.48,3.35,43.19,9.4,3.89,11.72,5.3,24.64,4.46,38.26,3.67,.53,7.3,1.11,10.84,1.76,4.34,.79,8.82,1.76,13.29,2.99,1.61-19.94-.7-38.98-7.43-56.08l-1.62-4.12-3.89-2.12c-18.32-9.96-39.84-14.6-62.94-14.43,.18,.68,.36,1.37,.53,2.04Z"/><path class="cls-40" d="M313.83,78.47c8.15-13.36,18.07-24.38,29.56-32.26,11.93,2.46,23.68,7.59,34.93,14.93,5.53-6.4,11.69-12.18,18.36-16.97-16.96-12.01-35.21-19.95-54.02-22.79l-4.43-.66-3.77,2.31c-17.25,10.5-31.69,26.05-42.96,45.2,7.7,2.71,15.14,6.31,22.34,10.24Z"/><path class="cls-12" d="M800.26,325.34c-10.25-16.76-25.29-30.87-43.8-41.99-.58,1.7-1.18,3.39-1.78,5.02-2.18,5.95-4.67,12.01-7.49,17.96,12.25,7.82,22.43,17.17,29.83,27.92-2.53,12.21-7.85,24.22-15.52,35.69,6.6,5.07,12.83,10.61,18.18,16.59,11.69-16.68,19.43-34.6,22.22-53.05l.66-4.37-2.31-3.77Z"/><path class="cls-21" d="M341.58,740.65c-14.3,8.08-29.01,13.02-43.51,14.15-8.74-7.77-16.08-17.6-22-28.99-6.95,2.28-14.08,4.03-21.43,4.95-1.01,.13-2.05,.26-3.12,.39,8.6,18.36,20.22,33.94,34.78,45.53l3.46,2.76,4.43-.11c6.47-.16,12.93-.9,19.38-2.2,13.79-2.78,27.46-8.17,40.69-15.72-4.46-6.81-8.65-13.75-12.69-20.77Z"/><path class="cls-38" d="M516.07,737.59c-7.78,12.03-17.06,22.03-27.71,29.33-12.6-2.6-25-8.18-36.81-16.21-5.81,6.03-11.96,11.83-18.3,16.97,17.48,12.75,36.39,21.13,55.89,24.07l4.38,.66,3.78-2.31c16.68-10.16,30.74-25.04,41.85-43.33-7.88-2.27-15.63-5.43-23.08-9.18Z"/><path class="cls-35" d="M60.26,345.27c5.4-5.3,11.23-10.1,16.87-14.39,.73-.56,1.5-1,2.25-1.52-7.09-13.3-11.46-26.92-12.51-40.36,9.72-10.87,22.63-19.61,37.79-26.1-3.68-7.21-7.03-14.58-9.16-22.62-20.56,8.77-37.92,21.16-50.56,36.98l-2.77,3.45,.13,4.46c.49,20.29,6.84,40.67,17.95,60.09Z"/><path class="cls-48" d="M163.14,172.24c.48-15.21,3.54-29.31,9.41-41.56,3.35-1.09,6.79-1.99,10.31-2.7,9.27-1.87,19.15-2.38,29.4-1.65,.75-6.24,1.6-12.46,2.77-18.63,.28-1.48,.58-3.44,.99-5.56-20.13-1.67-39.35,.63-56.6,7.38l-4.11,1.65-2.11,3.88c-9.53,17.43-14.28,37.73-14.59,59.55,8.19-1.06,16.3-2.11,24.53-2.38Z"/><path class="cls-46" d="M88.3,509.16c-13.95-8.27-25.43-18.42-33.58-30.25,2.34-11.28,7.09-22.4,13.84-33.07-6.4-5.56-12.26-11.72-17.09-18.34-11.35,16.44-18.87,34.06-21.62,52.19l-.67,4.37,2.31,3.77c11.16,18.25,28.01,33.35,48.81,44.87,2.03-7.96,4.75-15.83,7.99-23.53Z"/></g><g><path class="cls-45" d="M769.41,472.93c-6.25,4.99-13.27,9.38-20.53,13.42,7.21,13.41,11.65,27.16,12.72,40.72-8.33,9.34-19.01,17.09-31.45,23.19,3.27,7.62,6.13,15.38,8.09,23.11,18.23-8.59,33.75-20.12,45.3-34.56l2.76-3.46-.11-4.42c-.48-19.55-6.39-39.21-16.78-58Z"/><path class="cls-24" d="M689.45,638.88c-8.15,.47-16.14,1.38-24.07,2.14-.15,16.29-3.21,31.38-9.43,44.41-12.88,4.24-27.23,5.49-42.33,4.09-.11,.78-.18,1.57-.3,2.35-1.06,7.02-1.88,14.48-3.37,21.72,13.98,1.41,27.58,1.01,40.38-1.57,6.45-1.3,12.71-3.12,18.73-5.48l4.13-1.61,2.12-3.88c9.9-18.12,14.56-39.37,14.47-62.19-.11,0-.22,.01-.32,.02Z"/><path class="cls-30" d="M178.23,673.18c-.79-3.78-1.43-7.65-1.96-11.57-14.67-.61-28.3-3.62-40.19-9.28-3.73-11.24-5.16-23.6-4.53-36.6-8.06-2.9-16.08-6.38-23.7-10.52-2.31,21.43-.12,41.92,7.06,60.2l1.62,4.12,3.89,2.12c17.66,9.6,38.28,14.28,60.42,14.5-.96-4.6-1.79-9.02-2.62-12.95Z"/><path class="cls-28" d="M489.14,74.23c13.59-7.34,27.53-11.85,41.27-12.93,8.83,7.84,16.22,17.79,22.17,29.32,7.92-2.9,16.11-4.97,24.21-6.03-8.58-18.21-20.15-33.66-34.62-45.18l-3.46-2.76-4.43,.11c-20.17,.49-40.44,6.73-59.78,17.66,5.38,5.93,10.23,12.7,14.63,19.8Z"/><path class="cls-43" d="M642.37,135.01c1.86,7.38,3.01,14.85,3.57,22.31,15.82,.3,30.48,3.35,43.19,9.4,3.89,11.72,5.3,24.64,4.46,38.26,3.67,.53,7.3,1.11,10.84,1.76,4.34,.79,8.82,1.76,13.29,2.99,1.61-19.94-.7-38.98-7.43-56.08l-1.62-4.12-3.89-2.12c-18.32-9.96-39.84-14.6-62.94-14.43,.18,.68,.36,1.37,.53,2.04Z"/><path class="cls-44" d="M310.55,81.42c8.15-13.35,18.07-24.38,29.56-32.26,11.93,2.46,23.68,7.59,34.93,14.93,5.53-6.4,11.69-12.18,18.36-16.97-16.96-12.01-35.21-19.95-54.02-22.79l-4.43-.66-3.77,2.31c-17.25,10.5-31.69,26.05-42.96,45.2,7.7,2.71,15.14,6.31,22.34,10.24Z"/><path class="cls-22" d="M796.98,328.29c-10.25-16.76-25.29-30.87-43.8-41.99-.58,1.7-1.18,3.39-1.78,5.02-2.18,5.95-4.67,12.01-7.49,17.96,12.25,7.82,22.43,17.17,29.83,27.92-2.53,12.21-7.85,24.22-15.52,35.69,6.6,5.07,12.83,10.61,18.18,16.59,11.69-16.68,19.43-34.6,22.22-53.05l.66-4.37-2.31-3.77Z"/><path class="cls-34" d="M338.3,743.6c-14.3,8.08-29.01,13.02-43.51,14.15-8.74-7.77-16.08-17.6-22-28.99-6.95,2.28-14.08,4.03-21.43,4.95-1.01,.13-2.05,.26-3.12,.4,8.6,18.36,20.22,33.94,34.78,45.53l3.46,2.76,4.43-.11c6.47-.16,12.93-.9,19.38-2.2,13.79-2.78,27.46-8.17,40.69-15.72-4.46-6.81-8.65-13.75-12.69-20.77Z"/><path class="cls-26" d="M512.79,740.54c-7.78,12.03-17.06,22.03-27.71,29.33-12.6-2.6-25-8.18-36.81-16.21-5.81,6.03-11.96,11.83-18.3,16.97,17.48,12.75,36.39,21.13,55.89,24.07l4.38,.66,3.78-2.31c16.68-10.16,30.74-25.04,41.85-43.33-7.88-2.27-15.63-5.43-23.08-9.18Z"/><path class="cls-19" d="M56.98,348.22c5.4-5.3,11.23-10.1,16.87-14.39,.73-.56,1.5-1,2.25-1.52-7.09-13.3-11.46-26.92-12.51-40.36,9.72-10.87,22.63-19.61,37.79-26.1-3.68-7.21-7.03-14.58-9.16-22.62-20.56,8.77-37.92,21.16-50.56,36.98l-2.77,3.45,.13,4.46c.49,20.29,6.84,40.67,17.95,60.09Z"/><path class="cls-15" d="M159.86,175.19c.48-15.21,3.54-29.31,9.41-41.56,3.35-1.09,6.79-1.99,10.31-2.7,9.27-1.87,19.15-2.38,29.4-1.65,.75-6.24,1.6-12.46,2.77-18.63,.28-1.48,.58-3.44,.99-5.56-20.13-1.67-39.35,.63-56.6,7.38l-4.11,1.65-2.11,3.88c-9.53,17.43-14.27,37.73-14.59,59.55,8.19-1.06,16.3-2.11,24.53-2.38Z"/><path class="cls-49" d="M85.02,512.1c-13.95-8.27-25.43-18.42-33.58-30.25,2.34-11.28,7.09-22.4,13.84-33.07-6.4-5.56-12.25-11.72-17.09-18.34-11.35,16.44-18.87,34.06-21.62,52.19l-.67,4.37,2.31,3.77c11.16,18.25,28.01,33.35,48.81,44.87,2.03-7.96,4.75-15.83,7.99-23.53Z"/></g><g><path class="cls-39" d="M482.01,330.24s.02-.03,.03-.05c9.25-17.7,16.55-37.78,21.34-59.36,0,0,0-.02,0-.03-17.79,13.14-33.23,27.92-45.69,43.46,0,.02,0,.04,0,.06,.04,4-.06,7.95-.27,11.89-.32,6.05-.88,11.99-1.74,17.82,8.18-5.1,16.99-9.71,26.33-13.8Z"/><path class="cls-39" d="M282.5,572.51c3.8-1.93,7.52-3.96,11.19-6.04,3.29-23.62,9.22-45.95,17.33-66.27-21.05,5.83-43.9,9.34-67.73,10.13-2.54,3.53-5.03,7.13-7.44,10.83-16.33,25.09-27.96,51.78-34.78,77.79,26.72-4.04,54.63-12.81,81.42-26.44Z"/><path class="cls-39" d="M432.94,306.3s0-.03,0-.04c-.83-19.9-4.55-40.96-11.21-62.12,0-.01-.01-.03-.02-.04-8.85,20.32-14.74,40.85-17.73,60.58,5.15,8.8,9.54,17.71,13.12,26.63,4.52-8.47,9.81-16.83,15.84-25Z"/><path class="cls-39" d="M342.49,444.76s0,0,0,0c-5.65,.21-11.38,.17-17.2-.14-4.14-.22-8.32-.54-12.54-1.06-16.87,10.72-33.3,24.51-48.34,40.83,0,0,0,0,0,0,22-2.5,42.77-7.59,61.37-14.82,5.11-8.9,10.7-17.2,16.71-24.81Z"/><path class="cls-39" d="M589.34,297.89c16.33-25.09,27.95-51.78,34.78-77.79-26.72,4.04-54.63,12.81-81.42,26.43-3.79,1.93-7.5,3.95-11.16,6.02v.04c-3.32,23.58-9.27,45.96-17.38,66.25,21.07-5.86,43.92-9.35,67.74-10.11,2.55-3.54,5.04-7.14,7.45-10.84Z"/><path class="cls-39" d="M551.65,500.14c-13.19-17.77-28.01-33.19-43.6-45.62-4.01,.01-7.99-.05-11.91-.25-6.14-.32-12.1-1-17.97-1.86,5.14,8.19,9.78,17.02,13.9,26.38,17.74,9.22,37.91,16.51,59.59,21.34Z"/><path class="cls-39" d="M516.01,429.79c20.01-.85,41.14-4.53,62.38-11.17-20.4-8.84-41.01-14.72-60.81-17.7-8.81,5.1-17.73,9.49-26.67,13.05,8.5,4.51,16.9,9.8,25.1,15.82Z"/><path class="cls-39" d="M482.72,374.29s-.06,.07-.08,.1c9.63-.34,19.54,.05,29.67,1.17,16.92-10.72,33.39-24.53,48.46-40.88-22.01,2.51-42.81,7.6-61.4,14.86-5.08,8.88-10.63,17.19-16.65,24.76Z"/><path class="cls-39" d="M134.4,468.08s0,0,.01,0c25.17,9.82,53.77,16.13,83.84,17.7,4.25,.22,8.5,.34,12.71,.36,14.69-18.83,31.04-35.22,48.26-48.79-21.19-5.41-42.68-13.78-63.66-25,0,0,0,0,0,0-4,1.8-7.99,3.66-11.95,5.68-26.73,13.59-50.24,30.91-69.2,50.05Z"/><path class="cls-39" d="M524.48,585.88c25.14,16.29,51.89,27.89,77.96,34.7-4.05-26.66-12.84-54.51-26.5-81.24-1.94-3.79-3.97-7.51-6.05-11.17-23.67-3.28-46.05-9.2-66.42-17.29,5.87,21.02,9.37,43.8,10.13,67.57,3.55,2.54,7.16,5.03,10.87,7.44Z"/><path class="cls-39" d="M487.62,557.37c-2.51-21.96-7.61-42.71-14.88-61.25-8.94-5.11-17.27-10.7-24.92-16.72,.34,9.62-.05,19.53-1.17,29.65,10.75,16.87,24.59,33.29,40.98,48.32Z"/><path class="cls-39" d="M392.29,512.71c.85,19.97,4.54,41.05,11.19,62.24,8.85-20.31,14.73-40.84,17.72-60.56-5.13-8.82-9.51-17.74-13.09-26.69-4.51,8.47-9.81,16.83-15.83,25Z"/><path class="cls-39" d="M369.52,474.99c-8.19,5.14-17.01,9.75-26.36,13.87,0,0-.01,0-.02,0-9.23,17.69-16.53,37.8-21.36,59.41,17.84-13.17,33.31-27.99,45.78-43.57-.03-10.24,.65-20.2,2.05-29.77-.03,.02-.06,.04-.09,.06Z"/><path class="cls-39" d="M707.96,331.56c22.61-28.83,34.96-60.16,33.01-88.55-21.82-18.21-54.41-26.58-90.96-25.33-6.91,30.44-20.05,61.81-39.06,91.5,35.21,2.15,68.31,10.04,97,22.38Z"/><path class="cls-39" d="M378.49,309.84c-10.74-16.82-24.55-33.19-40.92-48.17,2.5,21.96,7.61,42.69,14.86,61.25,8.92,5.08,17.26,10.63,24.86,16.69,.03,.03,.07,.06,.1,.08-.34-9.65,.05-19.58,1.18-29.73-.03-.04-.05-.08-.07-.12Z"/><path class="cls-39" d="M300.74,233.16c-25.18-16.31-51.93-27.93-78.02-34.72,4.03,26.65,12.88,54.51,26.55,81.26,1.93,3.8,3.92,7.5,6.01,11.15q0,.05,.05,0c23.63,3.31,46.06,9.24,66.4,17.34-5.85-21.02-9.38-43.84-10.16-67.64-3.52-2.56-7.15-5.03-10.83-7.4Z"/><path class="cls-39" d="M206.11,378.59c3.58,2.31,7.22,4.58,10.87,6.7,.03,.02,.06,.03,.08,.05,22.15-8.96,44.48-15,66.17-18.15-.02-.02-.05-.05-.07-.07-15.65-15.25-30.13-33.23-42.68-53.48-4.34-.43-8.74-.76-13.15-.99-29.97-1.56-59.02,1.68-84.98,8.83,16.86,21.09,38.52,40.76,63.75,57.12Z"/><path class="cls-39" d="M246.84,400.42c20.3,8.86,40.84,14.79,60.53,17.75,0,0,.01,0,.02,0,8.87-5.14,17.85-9.53,26.85-13.12-.01,0-.03-.01-.04-.02-8.48-4.44-16.91-9.73-25.11-15.76-19.97,.86-41.06,4.53-62.26,11.15Z"/><path class="cls-39" d="M273.6,318.95c13.18,17.81,28,33.22,43.6,45.58,.03,.02,.05,.04,.08,.06,10.23-.02,20.17,.65,29.74,2.04,0-.01-.02-.03-.03-.04-5.16-8.17-9.77-16.97-13.9-26.35-17.74-9.23-37.86-16.51-59.49-21.29Z"/><path class="cls-39" d="M424.72,187.91c19.46-29.34,42.86-53.98,67.91-72.6-13.7-33.97-34.75-60.28-60.37-72.81-26.7,9.75-50.34,33.69-67.52,65.91,23,21.2,43.71,48.21,59.98,79.5Z"/><path class="cls-39" d="M513.16,607.48c-2.15,35.11-10.06,68.11-22.42,96.74,28.89,22.54,60.28,34.86,88.74,32.96,18.25-21.78,26.65-54.3,25.39-90.78-30.51-6.89-61.95-19.94-91.71-38.91Z"/><path class="cls-39" d="M400.48,631.07c-19.47,29.36-42.88,53.94-67.94,72.57,13.72,33.99,34.75,60.37,60.38,72.89,26.74-9.76,50.37-33.71,67.55-65.97-23-21.21-43.72-48.17-60-79.49Z"/><path class="cls-39" d="M195.94,624.36c-5.14,36.25-.2,69.57,15.71,93.19,28.01,4.9,60.45-4.04,91.48-23.38-9.29-29.83-13.66-63.56-12.07-98.78-31.53,15.69-64.11,25.33-95.12,28.97Z"/><path class="cls-39" d="M381.6,615.58c2.36-3.63,4.57-7.3,6.73-10.99-8.97-22.08-15.02-44.34-18.17-65.96-15.33,15.62-33.39,30.07-53.67,42.63-.43,4.34-.79,8.71-1.02,13.11-1.57,29.89,1.7,58.85,8.84,84.79,21.13-16.84,40.91-38.41,57.29-63.59Z"/><path class="cls-39" d="M440.42,542.52c-5.44,21.12-13.81,42.56-25.04,63.51,1.82,4.03,3.7,8.05,5.74,12.04,13.62,26.67,30.97,50.1,50.14,69.01,9.86-25.12,16.17-53.66,17.75-83.64,.22-4.25,.32-8.48,.36-12.69-18.89-14.68-35.34-31.02-48.94-48.23Z"/><path class="cls-39" d="M598.84,530.79c15.73,31.47,25.45,63.97,29.1,94.91,36.32,5.12,69.71,.2,93.37-15.68,4.89-27.96-4.07-60.32-23.44-91.28-29.9,9.27-63.72,13.64-99.04,12.04Z"/><path class="cls-39" d="M619.11,440.45c-3.6-2.33-7.24-4.51-10.9-6.65-22.13,8.95-44.46,14.99-66.14,18.14,15.62,15.28,30.07,33.27,42.64,53.47,4.35,.43,8.73,.78,13.15,1.01,29.95,1.56,58.97-1.7,84.98-8.81-16.87-21.08-38.49-40.81-63.73-57.16Z"/><path class="cls-39" d="M714.39,361.79c-21.24,22.93-48.33,43.58-79.69,59.82,29.4,19.42,54.1,42.76,72.76,67.75,34.02-13.69,60.43-34.66,72.97-60.21-9.77-26.66-33.75-50.21-66.03-67.36Z"/><path class="cls-39" d="M384.71,276.44s.04,.06,.07,.09c5.44-21.12,13.81-42.55,25.04-63.5-.02-.04-.03-.07-.05-.11-1.72-3.99-3.64-7.99-5.67-11.94-13.63-26.69-30.97-50.14-50.19-69.02-9.84,25.11-16.16,53.65-17.74,83.65-.22,4.24-.34,8.49-.36,12.69,18.87,14.66,35.33,30.97,48.89,48.14Z"/><path class="cls-39" d="M534.12,223.66s0,.03,0,.04c31.54-15.69,64.13-25.4,95.14-29.04,5.13-36.24,.2-69.56-15.72-93.17-28-4.88-60.43,4.05-91.46,23.37,0,0,0,0,0,0,9.25,29.81,13.67,63.57,12.03,98.78Z"/><path class="cls-39" d="M443.59,203.47c-2.34,3.6-4.53,7.25-6.68,10.91,8.98,22.07,15.06,44.35,18.19,65.97,15.31-15.59,33.35-30.02,53.61-42.56,.43-4.33,.76-8.72,.99-13.11,1.57-29.89-1.68-58.87-8.84-84.76-21.12,16.83-40.88,38.39-57.26,63.56Z"/><path class="cls-39" d="M690.78,350.99c-25.18-9.84-53.79-16.14-83.84-17.71-4.3-.22-8.58-.33-12.84-.36-14.71,18.84-31.04,35.26-48.27,48.82,21.19,5.42,42.69,13.78,63.71,25,4.04-1.82,8.06-3.69,12.06-5.72,26.73-13.59,50.22-30.9,69.18-50.03Z"/><path class="cls-39" d="M190.51,397.43s0,0-.01,0c-29.44-19.42-54.1-42.73-72.74-67.76-34.07,13.67-60.45,34.68-73.01,60.26,9.77,26.64,33.75,50.22,66.04,67.35,21.25-22.94,48.34-43.6,79.72-59.84Z"/><path class="cls-39" d="M312.07,211.56c2.09-35.09,10.02-68.1,22.38-96.73-25.31-19.81-52.6-31.67-78.06-33-3.59-.19-7.15-.17-10.66,.05-18.25,21.74-26.75,54.26-25.42,90.75,30.55,6.91,62,19.95,91.76,38.93Z"/><path class="cls-39" d="M214.2,509.83c-35.21-2.09-68.29-10.05-96.98-22.33-22.6,28.82-34.95,60.15-33,88.53,21.82,18.21,54.41,26.59,90.96,25.33,6.91-30.45,20.06-61.83,39.08-91.53-.02,0-.04,0-.06,0Z"/><path class="cls-39" d="M226.32,288.27c-15.76-31.46-25.42-64.03-29.08-94.96-36.33-5.19-69.69-.14-93.36,15.69-4.92,27.95,4.04,60.33,23.44,91.27,29.87-9.23,63.71-13.64,99-12Z"/><path class="cls-47" d="M807.44,422.24c-10.28-33.54-37.42-62.73-74.77-83.67,25.7-34.34,38.66-72.12,34.36-107.01l-.54-4.39-3.24-3.02c-25.73-23.93-63.93-35.57-106.8-35.05,5.06-42.59-2.53-81.83-23.75-109.92l-2.67-3.53-4.32-.99c-34.26-7.89-73.16,.96-110,22.77-16.97-39.37-43.26-69.46-75.68-83.2l-4.12-1.73-4.23,1.3c-33.63,10.25-62.87,37.34-83.86,74.58-34.44-25.65-72.29-38.57-107.23-34.27l-4.4,.58-3.01,3.24c-23.98,25.64-35.77,63.67-35.28,106.44-42.63-5.06-81.91,2.61-110.02,23.78l-3.54,2.65-.99,4.36c-7.93,34.18,.94,72.98,22.82,109.73-39.47,16.93-69.62,43.21-83.4,75.57l-1.74,4.06,1.3,4.22c10.27,33.56,37.42,62.73,74.75,83.67,0,0,.01,0,.02,0-25.69,34.34-38.64,72.11-34.34,106.99l.54,4.39,3.24,3.02c22.9,21.3,55.63,32.96,92.78,34.9,4.6,.24,9.28,.3,14.01,.24-5.04,42.56,2.56,81.76,23.76,109.83l2.67,3.53,4.32,.99c6.3,1.45,12.75,2.34,19.32,2.68,29.16,1.52,60.58-7.74,90.64-25.53,16.96,39.42,43.28,69.53,75.74,83.27l4.08,1.73,4.24-1.3c33.64-10.26,62.91-37.37,83.89-74.67,28.1,20.93,58.47,33.48,87.71,35,6.57,.34,13.09,.13,19.5-.65l4.4-.54,3.02-3.23c23.97-25.65,35.63-63.73,35.13-106.46,4.79,.57,9.55,1,14.24,1.25,37.14,1.94,70.93-6.25,95.92-25.05l3.54-2.66,1-4.31c7.91-34.17-.97-73-22.83-109.76,39.47-16.92,69.62-43.18,83.38-75.54l1.73-4.07-1.3-4.23Zm-64.17-183.27c1.95,28.39-10.41,59.72-33.02,88.55-28.7-12.34-61.79-20.23-97-22.38,19.01-29.69,32.15-61.05,39.06-91.5,36.55-1.26,69.14,7.12,90.96,25.33Zm-293.17,236.39c7.64,6.02,15.98,11.61,24.92,16.72,7.27,18.55,12.37,39.29,14.88,61.25-16.39-15.03-30.23-31.45-40.98-48.32,1.12-10.12,1.52-20.03,1.17-29.65Zm-26.61,34.99c-2.99,19.72-8.88,40.25-17.72,60.56-6.65-21.19-10.34-42.28-11.19-62.24,6.02-8.18,11.31-16.54,15.83-25,3.58,8.95,7.96,17.87,13.09,26.69Zm-53.64-9.69c-12.47,15.59-27.95,30.4-45.78,43.57,4.84-21.61,12.14-41.72,21.36-59.41,0,0,.01,0,.02,0,9.35-4.12,18.17-8.73,26.36-13.87,.03-.02,.06-.04,.09-.06-1.39,9.58-2.07,19.53-2.05,29.77Zm9.82-165.01s-.07-.06-.1-.08c-7.6-6.07-15.94-11.62-24.86-16.69-7.25-18.56-12.36-39.29-14.86-61.25,16.37,14.99,30.18,31.36,40.92,48.17,.03,.04,.05,.08,.07,.12-1.13,10.15-1.52,20.09-1.18,29.73Zm-30.4,26.9s.02,.03,.03,.04c-9.57-1.38-19.51-2.06-29.74-2.04-.03-.02-.05-.04-.08-.06-15.59-12.36-30.42-27.77-43.6-45.58,21.63,4.78,41.75,12.06,59.49,21.29,4.13,9.38,8.74,18.18,13.9,26.35Zm-12.78,38.43s.02,.01,.04,.02c-9,3.59-17.98,7.97-26.85,13.12,0,0-.01,0-.02,0-19.69-2.95-40.24-8.89-60.53-17.75,21.19-6.62,42.28-10.29,62.26-11.15,8.19,6.03,16.63,11.33,25.11,15.76Zm-78.88-114.17q-.05,.05-.05,0c-2.09-3.65-4.08-7.35-6.01-11.15-13.67-26.75-22.52-54.61-26.55-81.26,26.09,6.78,52.84,18.41,78.02,34.72,3.68,2.37,7.31,4.84,10.83,7.4,.78,23.79,4.31,46.62,10.16,67.64-20.34-8.1-42.77-14.03-66.4-17.34Zm-14.85,22.78c12.54,20.26,27.03,38.23,42.68,53.48,.02,.02,.05,.05,.07,.07-21.69,3.14-44.02,9.19-66.17,18.15-.03-.02-.06-.03-.08-.05-3.65-2.11-7.28-4.38-10.87-6.7-25.23-16.36-46.89-36.03-63.75-57.12,25.96-7.15,55.01-10.4,84.98-8.83,4.4,.23,8.8,.56,13.15,.99Zm-24.93,98.72s0,0,0,0c20.98,11.22,42.47,19.59,63.66,25-17.22,13.56-33.56,29.96-48.26,48.79-4.21-.02-8.46-.14-12.71-.36-30.07-1.57-58.67-7.87-83.84-17.7,0,0,0,0-.01,0,18.96-19.14,42.46-36.46,69.2-50.05,3.96-2.01,7.95-3.87,11.95-5.68Zm20.31,108.81c2.4-3.69,4.89-7.29,7.44-10.83,23.82-.78,46.68-4.29,67.73-10.13-8.11,20.32-14.04,42.65-17.33,66.27-3.67,2.08-7.39,4.1-11.19,6.04-26.8,13.62-54.7,22.4-81.42,26.44,6.83-26.01,18.46-52.7,34.78-77.79Zm28.56-36.76s0,0,0,0c15.04-16.32,31.46-30.11,48.33-40.83,4.22,.52,8.4,.84,12.54,1.06,5.82,.3,11.55,.35,17.2,.14,0,0,0,0,0,0-6.01,7.61-11.6,15.91-16.71,24.81-18.6,7.23-39.36,12.32-61.37,14.82Zm139.57-179.72c2.99-19.73,8.88-40.26,17.73-60.58,0,.01,.01,.03,.01,.04,6.66,21.16,10.37,42.22,11.21,62.12,0,.01,0,.03,0,.04-6.02,8.18-11.32,16.54-15.84,25-3.58-8.92-7.97-17.83-13.12-26.63Zm53.7,9.66s0-.04,0-.06c12.45-15.55,27.89-30.32,45.69-43.46,0,0,0,.02,0,.03-4.79,21.58-12.08,41.66-21.34,59.36,0,.02-.02,.03-.03,.05-9.34,4.09-18.15,8.7-26.33,13.8,.86-5.82,1.43-11.76,1.75-17.82,.21-3.94,.31-7.88,.27-11.89Zm103.08,20.34c-15.08,16.35-31.54,30.16-48.46,40.88-10.13-1.11-20.04-1.51-29.67-1.17,.03-.03,.06-.07,.08-.1,6.02-7.57,11.57-15.88,16.65-24.76,18.59-7.26,39.38-12.35,61.4-14.86Zm-46.61-15.82c8.12-20.29,14.06-42.67,17.38-66.25v-.04c3.66-2.07,7.37-4.09,11.17-6.02,26.8-13.62,54.7-22.39,81.42-26.43-6.83,26.01-18.46,52.7-34.78,77.79-2.41,3.7-4.9,7.3-7.45,10.84-23.82,.76-46.67,4.25-67.74,10.11Zm64.24,99.77c-21.24,6.64-42.37,10.32-62.38,11.17-8.21-6.02-16.6-11.31-25.1-15.82,8.95-3.56,17.86-7.95,26.67-13.05,19.8,2.98,40.41,8.86,60.81,17.7Zm-100.23,33.79c5.87,.85,11.83,1.54,17.97,1.86,3.92,.2,7.9,.26,11.91,.25,15.6,12.43,30.42,27.85,43.6,45.62-21.68-4.83-41.85-12.12-59.59-21.34-4.11-9.37-8.76-18.19-13.89-26.38Zm91.73,75.76c2.08,3.66,4.11,7.37,6.05,11.17,13.65,26.74,22.45,54.58,26.5,81.24-26.07-6.81-52.82-18.41-77.96-34.7-3.71-2.4-7.32-4.89-10.87-7.43-.76-23.76-4.26-46.55-10.13-67.57,20.36,8.09,42.75,14.01,66.42,17.29Zm14.82-22.75c-12.57-20.21-27.02-38.2-42.64-53.47,21.68-3.15,44.01-9.18,66.14-18.14,3.66,2.14,7.3,4.32,10.9,6.65,25.24,16.35,46.86,36.08,63.73,57.16-26,7.12-55.02,10.38-84.98,8.81-4.42-.23-8.8-.58-13.15-1.01Zm24.83-98.67c-21.02-11.22-42.52-19.57-63.71-25,17.24-13.56,33.56-29.99,48.27-48.82,4.26,.03,8.53,.13,12.84,.36,30.05,1.57,58.66,7.87,83.84,17.71-18.95,19.14-42.45,36.44-69.18,50.03-3.99,2.03-8.02,3.9-12.06,5.72Zm4-305.25c15.91,23.61,20.85,56.93,15.72,93.17-31.02,3.64-63.6,13.34-95.14,29.04,0-.01,0-.03,0-.04,1.64-35.22-2.78-68.97-12.03-98.78,0,0,0,0,0,0,31.03-19.32,63.45-28.26,91.46-23.37Zm-103.85,123.17c-.23,4.39-.56,8.78-.99,13.11-20.26,12.55-38.29,26.97-53.61,42.56-3.13-21.62-9.21-43.89-18.19-65.97,2.15-3.66,4.34-7.31,6.68-10.91,16.38-25.17,36.14-46.73,57.26-63.56,7.16,25.89,10.41,54.87,8.84,84.76ZM434.55,38.46c25.63,12.53,46.67,38.83,60.37,72.81-25.05,18.62-48.44,43.26-67.91,72.6-16.28-31.28-36.99-58.29-59.98-79.5,17.17-32.23,40.81-56.16,67.52-65.91Zm-78.34,89.45c19.21,18.88,36.56,42.33,50.19,69.02,2.03,3.96,3.95,7.96,5.67,11.95,.02,.04,.03,.07,.05,.11-11.23,20.95-19.6,42.38-25.04,63.5-.02-.03-.04-.06-.07-.09-13.57-17.17-30.02-33.48-48.89-48.14,.02-4.2,.14-8.45,.36-12.69,1.57-30,7.89-58.54,17.74-83.65Zm-108.18-50.07c3.51-.22,7.07-.24,10.66-.05,25.46,1.33,52.76,13.19,78.06,33-12.36,28.63-20.29,61.64-22.38,96.73-29.76-18.98-61.21-32.01-91.76-38.93-1.34-36.48,7.17-69.01,25.42-90.75ZM106.18,204.96c23.67-15.83,57.03-20.88,93.36-15.69,3.66,30.93,13.32,63.5,29.08,94.96-35.29-1.64-69.13,2.77-99,12-19.39-30.95-28.35-63.32-23.44-91.27Zm-59.13,180.91c12.56-25.58,38.94-46.59,73.01-60.26,18.64,25.03,43.3,48.35,72.74,67.76,0,0,0,0,.01,0-31.37,16.24-58.47,36.9-79.71,59.84-32.29-17.13-56.27-40.72-66.04-67.35Zm39.46,186.12c-1.95-28.38,10.41-59.71,33-88.53,28.69,12.28,61.77,20.24,96.98,22.33,.02,0,.04,0,.06,0-19.03,29.7-32.17,61.08-39.08,91.53-36.55,1.26-69.13-7.12-90.96-25.33Zm127.43,141.52c-15.91-23.62-20.85-56.94-15.71-93.19,31.01-3.64,63.58-13.28,95.12-28.97-1.59,35.22,2.79,68.95,12.07,98.78-31.03,19.34-63.47,28.28-91.48,23.38Zm103.82-123.17c.23-4.41,.59-8.77,1.02-13.11,20.29-12.57,38.34-27.02,53.67-42.63,3.15,21.63,9.2,43.88,18.17,65.96-2.17,3.69-4.37,7.36-6.73,10.99-16.39,25.18-36.16,46.75-57.29,63.59-7.13-25.95-10.4-54.9-8.84-84.79Zm77.45,182.15c-25.63-12.52-46.66-38.9-60.38-72.89,25.06-18.63,48.47-43.22,67.94-72.57,16.28,31.32,37,58.28,60,79.49-17.19,32.26-40.81,56.21-67.55,65.97Zm78.34-89.45c-19.18-18.9-36.52-42.34-50.14-69.01-2.04-3.99-3.92-8.01-5.74-12.04,11.23-20.96,19.61-42.39,25.04-63.51,13.6,17.21,30.05,33.54,48.94,48.23-.03,4.21-.13,8.44-.36,12.69-1.57,29.98-7.89,58.52-17.75,83.64Zm108.21,50.1c-28.45,1.9-59.85-10.42-88.74-32.96,12.36-28.62,20.27-61.62,22.42-96.73,29.76,18.97,61.2,32.02,91.71,38.92,1.27,36.48-7.13,69-25.39,90.78Zm141.84-127.15c-23.66,15.87-57.05,20.79-93.37,15.68-3.65-30.94-13.37-63.45-29.1-94.91,35.31,1.59,69.13-2.78,99.04-12.04,19.37,30.96,28.33,63.32,23.44,91.28Zm-13.85-120.67c-18.66-24.99-43.36-48.33-72.76-67.75,31.36-16.24,58.45-36.89,79.69-59.82,32.29,17.15,56.26,40.7,66.03,67.36-12.54,25.56-38.94,46.53-72.97,60.21Z"/><path class="cls-11" d="M805.15,426.28c-10.28-33.54-37.42-62.73-74.77-83.67,25.7-34.34,38.66-72.12,34.36-107.01l-.54-4.39-3.24-3.02c-25.73-23.93-63.93-35.57-106.8-35.05,5.06-42.59-2.53-81.83-23.75-109.92l-2.67-3.53-4.32-.99c-34.26-7.89-73.16,.96-110,22.77-16.97-39.37-43.26-69.46-75.68-83.2l-4.12-1.73-4.23,1.3c-33.63,10.25-62.87,37.34-83.86,74.58-34.44-25.65-72.29-38.57-107.23-34.26l-4.4,.58-3.01,3.24c-23.98,25.64-35.77,63.67-35.28,106.44-42.63-5.06-81.91,2.61-110.02,23.78l-3.54,2.65-.99,4.36c-7.93,34.18,.94,72.98,22.82,109.73-39.47,16.93-69.62,43.21-83.4,75.57l-1.74,4.06,1.3,4.22c10.27,33.56,37.42,62.73,74.75,83.67,0,0,.01,0,.02,0-25.69,34.34-38.64,72.11-34.34,106.99l.54,4.39,3.24,3.02c22.9,21.3,55.63,32.96,92.78,34.9,4.6,.24,9.28,.3,14.01,.24-5.04,42.56,2.56,81.76,23.76,109.83l2.67,3.53,4.32,.99c6.3,1.45,12.75,2.34,19.32,2.68,29.16,1.52,60.58-7.74,90.64-25.53,16.96,39.42,43.28,69.53,75.74,83.27l4.08,1.73,4.24-1.3c33.64-10.26,62.91-37.37,83.89-74.67,28.1,20.93,58.47,33.48,87.71,35,6.57,.34,13.09,.13,19.5-.65l4.4-.54,3.02-3.23c23.97-25.65,35.64-63.73,35.13-106.46,4.79,.57,9.55,1,14.24,1.25,37.14,1.94,70.93-6.25,95.93-25.05l3.54-2.66,1-4.31c7.91-34.17-.97-73-22.83-109.75,39.47-16.92,69.62-43.18,83.38-75.54l1.73-4.07-1.3-4.23Zm-64.17-183.27c1.95,28.39-10.41,59.72-33.01,88.55-28.7-12.34-61.79-20.23-97-22.38,19.01-29.69,32.15-61.05,39.06-91.5,36.55-1.26,69.14,7.12,90.96,25.33Zm-293.17,236.39c7.64,6.02,15.98,11.61,24.92,16.72,7.27,18.55,12.37,39.29,14.88,61.25-16.39-15.03-30.23-31.45-40.98-48.32,1.12-10.12,1.52-20.03,1.17-29.65Zm-26.61,34.99c-2.99,19.72-8.88,40.25-17.72,60.56-6.65-21.19-10.34-42.28-11.19-62.24,6.02-8.18,11.31-16.54,15.83-25,3.58,8.95,7.96,17.87,13.09,26.69Zm-53.64-9.69c-12.47,15.58-27.95,30.4-45.78,43.57,4.84-21.61,12.14-41.72,21.36-59.41,0,0,.01,0,.02,0,9.35-4.12,18.17-8.72,26.36-13.87,.03-.02,.06-.04,.09-.06-1.39,9.58-2.07,19.53-2.05,29.77Zm9.82-165.01s-.07-.06-.1-.08c-7.6-6.07-15.94-11.62-24.86-16.69-7.25-18.56-12.36-39.29-14.86-61.25,16.37,14.99,30.18,31.36,40.92,48.17,.03,.04,.05,.08,.07,.12-1.13,10.15-1.52,20.09-1.18,29.73Zm-30.4,26.9s.02,.03,.03,.04c-9.57-1.38-19.51-2.06-29.74-2.04-.03-.02-.05-.04-.08-.06-15.59-12.36-30.42-27.77-43.6-45.58,21.63,4.78,41.75,12.06,59.49,21.29,4.13,9.38,8.74,18.18,13.9,26.35Zm-12.78,38.43s.02,.01,.04,.02c-9,3.59-17.98,7.97-26.85,13.12,0,0-.01,0-.02,0-19.69-2.95-40.24-8.89-60.53-17.75,21.19-6.62,42.28-10.29,62.26-11.15,8.19,6.03,16.63,11.33,25.11,15.76Zm-78.88-114.17q-.05,.05-.05,0c-2.09-3.65-4.08-7.35-6.01-11.15-13.67-26.75-22.52-54.61-26.55-81.26,26.09,6.78,52.84,18.41,78.02,34.72,3.68,2.37,7.31,4.84,10.83,7.4,.78,23.79,4.31,46.62,10.16,67.64-20.34-8.1-42.77-14.03-66.4-17.34Zm-14.85,22.78c12.54,20.26,27.03,38.23,42.68,53.48,.02,.02,.05,.05,.07,.07-21.69,3.14-44.02,9.19-66.17,18.15-.03-.02-.06-.03-.08-.05-3.65-2.11-7.28-4.38-10.87-6.7-25.23-16.36-46.89-36.03-63.75-57.12,25.96-7.15,55.01-10.4,84.98-8.83,4.4,.23,8.8,.56,13.15,.99Zm-24.93,98.72s0,0,0,0c20.98,11.22,42.47,19.59,63.66,25-17.22,13.56-33.56,29.96-48.26,48.79-4.21-.02-8.46-.14-12.71-.36-30.07-1.57-58.67-7.88-83.84-17.7,0,0,0,0-.01,0,18.96-19.14,42.46-36.46,69.2-50.05,3.96-2.01,7.95-3.87,11.95-5.68Zm20.31,108.81c2.4-3.69,4.89-7.29,7.44-10.83,23.82-.78,46.68-4.29,67.73-10.13-8.11,20.32-14.04,42.65-17.33,66.27-3.67,2.08-7.39,4.1-11.19,6.04-26.8,13.62-54.7,22.4-81.42,26.44,6.83-26.01,18.46-52.7,34.78-77.79Zm28.56-36.76s0,0,0,0c15.04-16.32,31.46-30.11,48.34-40.83,4.22,.52,8.4,.84,12.54,1.06,5.82,.3,11.55,.35,17.2,.14,0,0,0,0,0,0-6.01,7.61-11.6,15.91-16.71,24.81-18.6,7.23-39.36,12.32-61.37,14.82Zm139.57-179.72c2.99-19.73,8.88-40.26,17.73-60.58,0,.01,.01,.03,.02,.04,6.66,21.16,10.37,42.22,11.21,62.12,0,.01,0,.03,0,.04-6.02,8.18-11.32,16.54-15.84,25-3.58-8.92-7.97-17.83-13.12-26.63Zm53.7,9.66s0-.04,0-.06c12.45-15.55,27.89-30.32,45.69-43.46,0,0,0,.02,0,.03-4.79,21.58-12.08,41.66-21.34,59.36,0,.02-.02,.03-.03,.05-9.34,4.09-18.15,8.7-26.33,13.8,.86-5.82,1.43-11.76,1.74-17.82,.21-3.94,.31-7.88,.27-11.89Zm103.08,20.34c-15.08,16.35-31.54,30.16-48.46,40.88-10.13-1.11-20.04-1.51-29.67-1.17,.03-.03,.06-.06,.08-.1,6.02-7.57,11.57-15.88,16.65-24.76,18.59-7.26,39.38-12.35,61.4-14.86Zm-46.61-15.82c8.12-20.29,14.06-42.67,17.38-66.25v-.04c3.66-2.07,7.37-4.09,11.17-6.02,26.8-13.62,54.7-22.39,81.42-26.43-6.83,26.01-18.46,52.7-34.78,77.79-2.41,3.7-4.9,7.3-7.45,10.84-23.82,.76-46.67,4.25-67.74,10.11Zm64.24,99.77c-21.24,6.64-42.37,10.32-62.38,11.17-8.21-6.02-16.6-11.31-25.1-15.82,8.95-3.56,17.86-7.95,26.67-13.05,19.8,2.98,40.41,8.86,60.81,17.7Zm-100.23,33.79c5.87,.85,11.83,1.54,17.97,1.86,3.92,.2,7.9,.26,11.91,.25,15.6,12.43,30.42,27.85,43.6,45.62-21.68-4.83-41.85-12.12-59.59-21.34-4.11-9.37-8.76-18.19-13.9-26.38Zm91.73,75.76c2.08,3.66,4.11,7.37,6.05,11.17,13.65,26.74,22.45,54.58,26.5,81.24-26.07-6.81-52.82-18.41-77.96-34.7-3.71-2.4-7.32-4.89-10.87-7.44-.76-23.76-4.26-46.55-10.13-67.57,20.36,8.09,42.75,14.01,66.42,17.29Zm14.82-22.75c-12.57-20.21-27.02-38.19-42.64-53.47,21.68-3.15,44.01-9.18,66.14-18.14,3.66,2.14,7.3,4.32,10.9,6.65,25.24,16.35,46.86,36.08,63.73,57.16-26,7.12-55.02,10.38-84.98,8.81-4.42-.23-8.8-.58-13.15-1.01Zm24.83-98.67c-21.02-11.22-42.52-19.57-63.71-25,17.24-13.56,33.56-29.99,48.27-48.82,4.26,.03,8.53,.13,12.84,.36,30.05,1.57,58.66,7.87,83.84,17.71-18.95,19.14-42.45,36.44-69.18,50.03-3.99,2.03-8.02,3.91-12.06,5.72Zm4-305.25c15.91,23.61,20.85,56.93,15.72,93.17-31.02,3.64-63.6,13.34-95.14,29.04,0-.01,0-.03,0-.04,1.64-35.22-2.78-68.97-12.03-98.78,0,0,0,0,0,0,31.03-19.32,63.45-28.26,91.46-23.37Zm-103.85,123.17c-.23,4.39-.56,8.78-.99,13.11-20.26,12.55-38.29,26.97-53.61,42.56-3.13-21.62-9.21-43.89-18.19-65.97,2.15-3.66,4.34-7.31,6.68-10.91,16.38-25.17,36.14-46.73,57.26-63.56,7.16,25.89,10.41,54.87,8.84,84.76ZM432.25,42.5c25.63,12.53,46.68,38.83,60.37,72.81-25.05,18.62-48.44,43.26-67.91,72.6-16.28-31.28-36.99-58.29-59.98-79.5,17.17-32.23,40.81-56.16,67.52-65.91Zm-78.34,89.45c19.21,18.88,36.56,42.33,50.19,69.02,2.03,3.96,3.95,7.96,5.67,11.94,.02,.04,.03,.07,.05,.11-11.23,20.95-19.6,42.38-25.04,63.5-.02-.03-.04-.06-.07-.09-13.57-17.17-30.02-33.48-48.89-48.14,.02-4.2,.14-8.45,.36-12.69,1.57-30,7.89-58.54,17.74-83.65Zm-108.18-50.07c3.51-.22,7.07-.24,10.66-.05,25.46,1.33,52.76,13.19,78.06,33-12.36,28.63-20.29,61.64-22.38,96.73-29.76-18.98-61.21-32.01-91.76-38.93-1.34-36.48,7.17-69.01,25.42-90.75ZM103.89,209c23.67-15.83,57.03-20.88,93.36-15.69,3.66,30.93,13.32,63.5,29.08,94.96-35.29-1.64-69.13,2.77-99,12-19.39-30.95-28.35-63.32-23.44-91.27Zm-59.13,180.91c12.56-25.58,38.94-46.59,73.01-60.26,18.64,25.03,43.3,48.35,72.74,67.76,0,0,0,0,.01,0-31.37,16.24-58.47,36.9-79.72,59.84-32.29-17.13-56.27-40.72-66.04-67.35Zm39.46,186.12c-1.95-28.38,10.41-59.71,33-88.53,28.69,12.28,61.77,20.24,96.98,22.33,.02,0,.04,0,.06,0-19.03,29.7-32.17,61.08-39.08,91.53-36.55,1.26-69.13-7.12-90.96-25.33Zm127.43,141.52c-15.91-23.62-20.85-56.94-15.71-93.19,31.01-3.64,63.58-13.28,95.12-28.97-1.59,35.22,2.79,68.95,12.07,98.78-31.03,19.34-63.47,28.28-91.48,23.38Zm103.82-123.17c.23-4.41,.59-8.77,1.02-13.11,20.29-12.57,38.34-27.02,53.67-42.63,3.15,21.63,9.2,43.88,18.17,65.96-2.17,3.69-4.37,7.36-6.73,10.99-16.39,25.18-36.16,46.75-57.29,63.59-7.13-25.95-10.4-54.9-8.84-84.79Zm77.45,182.15c-25.63-12.52-46.66-38.9-60.38-72.89,25.06-18.63,48.47-43.22,67.94-72.57,16.28,31.32,37,58.28,60,79.49-17.19,32.26-40.81,56.21-67.55,65.97Zm78.34-89.45c-19.18-18.9-36.52-42.34-50.14-69.01-2.04-3.99-3.92-8.01-5.74-12.04,11.23-20.96,19.61-42.39,25.04-63.51,13.6,17.21,30.05,33.54,48.94,48.23-.03,4.21-.13,8.44-.36,12.69-1.57,29.98-7.89,58.52-17.75,83.64Zm108.21,50.1c-28.45,1.9-59.85-10.42-88.74-32.96,12.36-28.62,20.27-61.62,22.42-96.74,29.76,18.97,61.2,32.02,91.71,38.91,1.26,36.48-7.13,69-25.39,90.78Zm141.84-127.15c-23.66,15.87-57.05,20.79-93.37,15.68-3.65-30.94-13.37-63.45-29.1-94.91,35.31,1.59,69.13-2.78,99.04-12.04,19.37,30.96,28.33,63.32,23.44,91.28Zm-13.85-120.67c-18.66-24.99-43.36-48.33-72.76-67.75,31.36-16.24,58.45-36.89,79.69-59.82,32.29,17.15,56.26,40.7,66.03,67.36-12.54,25.56-38.94,46.53-72.97,60.21Z"/></g><g><g><ellipse class="cls-50" cx="415.47" cy="406.11" rx="53.46" ry="53.35"/><g class="cls-17"><ellipse class="cls-16" cx="415.47" cy="406.11" rx="53.46" ry="53.35"/></g></g><g class="cls-52"><ellipse class="cls-2" cx="415.47" cy="406.11" rx="53.46" ry="53.35"/></g></g></g></g></g></g></svg>