<?xml version="1.0" encoding="UTF-8"?><svg xmlns="http://www.w3.org/2000/svg" viewBox="0 0 820.8 819.12"><defs><style>.cls-1{opacity:.81;}.cls-2,.cls-3,.cls-4,.cls-5{fill:#fff;}.cls-3,.cls-6{opacity:.9;}.cls-7{isolation:isolate;}.cls-4{opacity:.8;}.cls-5,.cls-8{mix-blend-mode:overlay;opacity:.6;}</style></defs><g class="cls-7"><g id="Layer_1"><g><g><path class="cls-2" d="M376.97,278.3s.05,.06,.07,.08c4.19-21.4,11.29-43.28,21.28-64.85-.02-.03-.03-.07-.05-.11-1.95-3.88-4.1-7.76-6.36-11.59-15.16-25.85-33.85-48.24-54.14-65.96-8.36,25.65-13,54.51-12.81,84.55,.03,4.25,.15,8.5,.38,12.69,19.7,13.53,37.08,28.85,51.63,45.19Z"/><g><path class="cls-2" d="M523.04,216.87s0,.03,0,.04c30.57-17.51,62.53-29.11,93.28-34.56,3-36.48-3.87-69.45-21.14-92.09-28.24-3.24-60.09,7.58-89.93,28.68,0,0,0,0,0,0,10.98,29.22,17.37,62.66,17.79,97.91Z"/><path class="cls-3" d="M523.04,216.87s0,.03,0,.04c30.57-17.51,62.53-29.11,93.28-34.56,3-36.48-3.87-69.45-21.14-92.09-28.24-3.24-60.09,7.58-89.93,28.68,0,0,0,0,0,0,10.98,29.22,17.37,62.66,17.79,97.91Z"/></g><path class="cls-2" d="M344.67,448.8s0,0,0,0c-5.62,.54-11.35,.83-17.18,.87-4.14,.03-8.33-.05-12.58-.32-16.22,11.69-31.81,26.41-45.86,43.59,0,0,0,0,0,0,21.82-3.78,42.25-10.08,60.39-18.38,4.58-9.18,9.67-17.8,15.23-25.75Z"/><path class="cls-2" d="M292.25,579.84c3.68-2.15,7.28-4.39,10.82-6.68,1.9-23.77,6.52-46.41,13.43-67.17-20.67,7.05-43.28,11.9-67.02,14.07-2.33,3.68-4.61,7.41-6.79,11.24-14.83,26-24.88,53.33-30.17,79.69,26.44-5.6,53.78-15.99,79.74-31.15Z"/><path class="cls-2" d="M138.3,484.25s0,0,.02,0c25.7,8.33,54.62,12.95,84.73,12.76,4.25-.03,8.5-.16,12.71-.38,13.57-19.66,28.93-36.98,45.32-51.53-21.47-4.16-43.41-11.26-65.01-21.23,0,0,0,0,0,0-3.89,2.04-7.77,4.12-11.6,6.37-25.89,15.14-48.34,33.79-66.15,54.01Z"/><g class="cls-8"><path class="cls-2" d="M138.3,484.25s0,0,.02,0c25.7,8.33,54.62,12.95,84.73,12.76,4.25-.03,8.5-.16,12.71-.38,13.57-19.66,28.93-36.98,45.32-51.53-21.47-4.16-43.41-11.26-65.01-21.23,0,0,0,0,0,0-3.89,2.04-7.77,4.12-11.6,6.37-25.89,15.14-48.34,33.79-66.15,54.01Z"/></g><path class="cls-2" d="M204.65,390.72c3.71,2.1,7.48,4.15,11.24,6.05,.03,.01,.06,.03,.09,.04,21.59-10.24,43.52-17.58,64.99-21.99-.03-.02-.05-.04-.08-.06-16.51-14.31-32.03-31.41-45.73-50.89-4.36-.17-8.77-.25-13.18-.22-30.01,.19-58.82,5.13-84.32,13.79,18.07,20.07,40.84,38.43,66.98,53.29Z"/><path class="cls-2" d="M314.73,370.19s.06,.04,.08,.06c10.21-.62,20.17-.53,29.8,.3,0-.01-.02-.02-.03-.04-5.62-7.85-10.75-16.37-15.41-25.5-18.25-8.18-38.76-14.27-60.63-17.77,14.2,17.01,29.9,31.52,46.19,42.95Z"/><path class="cls-2" d="M290.61,240c-26.09-14.8-53.48-24.85-79.92-30.09,5.59,26.37,16.04,53.66,31.26,79.56,2.15,3.68,4.35,7.26,6.66,10.78q0,.05,.05,0c23.79,1.92,46.52,6.53,67.3,13.43-7.07-20.64-11.92-43.22-14.1-66.93-3.66-2.35-7.43-4.61-11.24-6.76Z"/><path class="cls-5" d="M290.61,240c-26.09-14.8-53.48-24.85-79.92-30.09,5.59,26.37,16.04,53.66,31.26,79.56,2.15,3.68,4.35,7.26,6.66,10.78q0,.05,.05,0c23.79,1.92,46.52,6.53,67.3,13.43-7.07-20.64-11.92-43.22-14.1-66.93-3.66-2.35-7.43-4.61-11.24-6.76Z"/><path class="cls-2" d="M427.33,513.71c-5.64-8.5-10.53-17.15-14.63-25.87-4.01,8.72-8.81,17.37-14.34,25.89,2.02,19.88,6.93,40.72,14.82,61.48,7.64-20.8,12.32-41.63,14.15-61.5Z"/><path class="cls-2" d="M510.52,448.86c-4,.25-7.98,.42-11.91,.45-6.14,.04-12.14-.3-18.05-.8,5.61,7.88,10.76,16.42,15.41,25.53,18.25,8.16,38.81,14.26,60.74,17.82-14.2-16.97-29.9-31.49-46.2-42.99Z"/><path class="cls-2" d="M393.71,617.04c2.14-3.76,4.13-7.56,6.08-11.36-10.24-21.52-17.59-43.38-22-64.79-14.39,16.49-31.57,31.97-51.09,45.7-.18,4.36-.28,8.74-.25,13.15,.18,29.93,5.14,58.64,13.78,84.13,20.11-18.04,38.59-40.74,53.47-66.83Z"/><path class="cls-5" d="M393.71,617.04c2.14-3.76,4.13-7.56,6.08-11.36-10.24-21.52-17.59-43.38-22-64.79-14.39,16.49-31.57,31.97-51.09,45.7-.18,4.36-.28,8.74-.25,13.15,.18,29.93,5.14,58.64,13.78,84.13,20.11-18.04,38.59-40.74,53.47-66.83Z"/><path class="cls-2" d="M534.61,579.03c26.05,14.79,53.44,24.81,79.86,30.08-5.6-26.38-16.01-53.66-31.2-79.55-2.16-3.67-4.4-7.26-6.7-10.8-23.82-1.89-46.51-6.49-67.31-13.38,7.09,20.64,11.91,43.18,14.06,66.86,3.69,2.33,7.45,4.6,11.29,6.79Z"/><g class="cls-8"><path class="cls-2" d="M534.61,579.03c26.05,14.79,53.44,24.81,79.86,30.08-5.6-26.38-16.01-53.66-31.2-79.55-2.16-3.67-4.4-7.26-6.7-10.8-23.82-1.89-46.51-6.49-67.31-13.38,7.09,20.64,11.91,43.18,14.06,66.86,3.69,2.33,7.45,4.6,11.29,6.79Z"/></g><path class="cls-2" d="M391.91,201.83c-15.16-25.85-33.85-48.24-54.14-65.96-8.36,25.65-13,54.51-12.81,84.55,.03,4.25,.15,8.5,.38,12.69,19.7,13.53,37.08,28.85,51.63,45.19,.02,.03,.05,.06,.07,.08,4.19-21.4,11.29-43.28,21.28-64.85-.02-.03-.03-.07-.05-.11-1.95-3.88-4.1-7.76-6.36-11.59Z"/><path class="cls-2" d="M487.4,683.17c8.37-25.65,13.01-54.51,12.82-84.53-.03-4.26-.17-8.49-.39-12.69-19.72-13.55-37.1-28.9-51.68-45.28-4.19,21.41-11.3,43.29-21.28,64.87,2.05,3.92,4.17,7.82,6.43,11.68,15.16,25.83,33.84,48.21,54.09,65.96Z"/><path class="cls-2" d="M620.75,388.81c25.88-15.13,48.33-33.78,66.13-53.99-25.71-8.35-54.64-12.97-84.73-12.78-4.31,.03-8.58,.18-12.83,.4-13.58,19.66-28.92,37.02-45.33,51.56,21.47,4.18,43.42,11.26,65.06,21.23,3.92-2.05,7.83-4.16,11.7-6.42Z"/><path class="cls-5" d="M620.75,388.81c25.88-15.13,48.33-33.78,66.13-53.99-25.71-8.35-54.64-12.97-84.73-12.78-4.31,.03-8.58,.18-12.83,.4-13.58,19.66-28.92,37.02-45.33,51.56,21.47,4.18,43.42,11.26,65.06,21.23,3.92-2.05,7.83-4.16,11.7-6.42Z"/><path class="cls-2" d="M373.43,477.4c-7.87,5.61-16.41,10.73-25.5,15.39,0,0-.01,0-.01,0-8.18,18.19-14.29,38.7-17.85,60.56,17.04-14.19,31.62-29.89,43.16-46.17-.63-10.22-.53-20.2,.3-29.84-.03,.02-.06,.04-.09,.07Z"/><path class="cls-2" d="M372.71,312.01c-11.71-16.16-26.45-31.7-43.67-45.7,3.78,21.78,10.09,42.17,18.42,60.27,9.2,4.54,17.85,9.6,25.79,15.21,.04,.03,.07,.05,.11,.08-.91-9.61-1.09-19.55-.56-29.75-.03-.04-.05-.08-.08-.12Z"/><path class="cls-2" d="M477.25,326.32s.02-.03,.02-.05c8.2-18.21,14.31-38.68,17.83-60.5,0,0,0-.02,0-.03-16.99,14.16-31.54,29.81-43.07,46.06,0,.02,0,.04,0,.06,.28,3.99,.4,7.94,.43,11.88,.04,6.06-.18,12.03-.7,17.89,7.87-5.57,16.39-10.69,25.48-15.31Z"/><path class="cls-2" d="M496.14,552.73c-3.79-21.78-10.1-42.19-18.44-60.28-9.22-4.58-17.87-9.67-25.85-15.23,.9,9.59,1.09,19.5,.56,29.67,11.72,16.21,26.49,31.79,43.73,45.84Z"/><path class="cls-2" d="M532.94,239.2c-3.67,2.15-7.26,4.38-10.79,6.67v.04c-1.93,23.73-6.56,46.42-13.48,67.15,20.69-7.08,43.29-11.91,67.03-14.06,2.34-3.68,4.61-7.43,6.8-11.26,14.83-26,24.88-53.32,30.17-79.69-26.44,5.6-53.78,15.99-79.74,31.15Z"/><path class="cls-2" d="M431.49,202c-2.13,3.73-4.1,7.5-6.03,11.28,10.26,21.51,17.63,43.39,22.02,64.79,14.38-16.46,31.54-31.92,51.02-45.63,.18-4.35,.25-8.75,.22-13.15-.18-29.93-5.12-58.67-13.79-84.1-20.1,18.04-38.57,40.72-53.45,66.8Z"/><g class="cls-8"><path class="cls-2" d="M431.49,202c-2.13,3.73-4.1,7.5-6.03,11.28,10.26,21.51,17.63,43.39,22.02,64.79,14.38-16.46,31.54-31.92,51.02-45.63,.18-4.35,.25-8.75,.22-13.15-.18-29.93-5.12-58.67-13.79-84.1-20.1,18.04-38.57,40.72-53.45,66.8Z"/></g><path class="cls-2" d="M480.54,370.25s-.05,.07-.08,.1c9.59-.9,19.51-1.09,29.69-.57,16.26-11.69,31.9-26.44,45.99-43.65-21.83,3.79-42.29,10.09-60.42,18.42-4.55,9.17-9.61,17.78-15.18,25.69Z"/><path class="cls-2" d="M620.57,428.32c-3.73-2.11-7.49-4.07-11.27-6-21.57,10.23-43.51,17.56-64.96,21.97,16.49,14.34,31.97,31.45,45.7,50.89,4.37,.18,8.76,.27,13.18,.24,29.99-.19,58.77-5.15,84.32-13.77-18.08-20.06-40.81-38.49-66.96-53.34Z"/><path class="cls-2" d="M412.02,243.84c-7.65,20.8-12.32,41.65-14.15,61.52,5.65,8.48,10.55,17.12,14.65,25.81,4.01-8.72,8.81-17.37,14.35-25.89,0-.01,0-.03,0-.04-2-19.81-6.94-40.62-14.82-61.36,0-.01-.01-.03-.02-.04Z"/><path class="cls-2" d="M578.64,408.91c-20.88-7.64-41.8-12.3-61.74-14.11-8.5,5.61-17.14,10.51-25.86,14.59,8.75,4,17.44,8.79,25.99,14.32,19.93-2.02,40.81-6.93,61.62-14.8Z"/><path class="cls-2" d="M308.09,395.35c-19.89,2.03-40.73,6.92-61.5,14.77,20.78,7.66,41.64,12.38,61.47,14.17,0,0,.01,0,.02,0,8.55-5.65,17.26-10.56,26.03-14.67-.01,0-.03-.01-.04-.02-8.72-3.93-17.45-8.72-25.99-14.27Z"/><path class="cls-2" d="M220.41,521.26c-35.27-.03-68.76-6.03-98.12-16.62-20.87,30.1-31.37,62.09-27.77,90.31,22.85,16.9,55.87,23.36,92.28,19.97,5.12-30.81,16.4-62.9,33.66-93.66-.02,0-.04,0-.06,0Z"/><path class="cls-2" d="M302.14,602.19c-30.56,17.5-62.52,29.04-93.26,34.48-3.01,36.49,3.87,69.46,21.14,92.11,28.25,3.25,60.11-7.57,89.96-28.69-11.01-29.23-17.36-62.65-17.83-97.9Z"/><path class="cls-2" d="M413.46,631.4c-17.72,30.44-39.65,56.36-63.58,76.42,15.68,33.13,38.22,58.23,64.54,69.23,26.12-11.31,48.31-36.6,63.58-69.81-24.2-19.83-46.46-45.53-64.54-75.84Z"/><path class="cls-2" d="M114.11,474.84c19.87-24.15,45.71-46.35,76.08-64.4,0,0,0,0-.01,0-30.52-17.66-56.51-39.5-76.58-63.39-33.21,15.64-58.31,38.15-69.36,64.42,11.31,26.02,36.63,48.16,69.87,63.38Z"/><g><path class="cls-2" d="M605.61,519.69c17.54,30.49,29.15,62.37,34.6,93.05,36.56,2.98,69.6-3.88,92.3-21.11,3.25-28.2-7.59-59.98-28.74-89.75-29.31,11-62.82,17.34-98.16,17.82Z"/><path class="cls-4" d="M605.61,519.69c17.54,30.49,29.15,62.37,34.6,93.05,36.56,2.98,69.6-3.88,92.3-21.11,3.25-28.2-7.59-59.98-28.74-89.75-29.31,11-62.82,17.34-98.16,17.82Z"/></g><g><path class="cls-2" d="M524.56,601.26c-.09,35.18-6.06,68.59-16.72,97.88,30.16,20.81,62.22,31.28,90.51,27.71,16.95-22.81,23.43-55.77,20.03-92.11-30.86-5.1-63.01-16.29-93.83-33.48Z"/><path class="cls-3" d="M524.56,601.26c-.09,35.18-6.06,68.59-16.72,97.88,30.16,20.81,62.22,31.28,90.51,27.71,16.95-22.81,23.43-55.77,20.03-92.11-30.86-5.1-63.01-16.29-93.83-33.48Z"/></g><g><path class="cls-2" d="M702.9,314.42c20.88-30.1,31.38-62.1,27.78-90.33-22.85-16.9-55.87-23.36-92.28-19.96-5.12,30.8-16.4,62.87-33.64,93.62,35.28,.08,68.78,6.03,98.15,16.67Z"/><g class="cls-1"><path class="cls-2" d="M702.9,314.42c20.88-30.1,31.38-62.1,27.78-90.33-22.85-16.9-55.87-23.36-92.28-19.96-5.12,30.8-16.4,62.87-33.64,93.62,35.28,.08,68.78,6.03,98.15,16.67Z"/></g></g><g><path class="cls-2" d="M711.62,471.98c33.17-15.65,58.3-38.13,69.32-64.38-11.32-26.04-36.63-48.15-69.86-63.38-19.87,24.14-45.7,46.34-76.06,64.38,30.49,17.67,56.51,39.52,76.6,63.38Z"/><g class="cls-6"><path class="cls-2" d="M711.62,471.98c33.17-15.65,58.3-38.13,69.32-64.38-11.32-26.04-36.63-48.15-69.86-63.38-19.87,24.14-45.7,46.34-76.06,64.38,30.49,17.67,56.51,39.52,76.6,63.38Z"/></g></g><path class="cls-2" d="M219.55,299.38c-17.57-30.49-29.12-62.43-34.58-93.1-36.57-3.05-69.57,3.93-92.28,21.12-3.27,28.19,7.57,59.99,28.73,89.75,29.28-10.96,62.8-17.34,98.13-17.77Z"/><g><path class="cls-2" d="M411.74,187.58c17.71-30.43,39.63-56.39,63.54-76.45-15.66-33.11-38.21-58.14-64.53-69.15-26.09,11.29-48.29,36.57-63.54,69.75,24.2,19.82,46.45,45.57,64.53,75.85Z"/><path class="cls-4" d="M411.74,187.58c17.71-30.43,39.63-56.39,63.54-76.45-15.66-33.11-38.21-58.14-64.53-69.15-26.09,11.29-48.29,36.57-63.54,69.75,24.2,19.82,46.45,45.57,64.53,75.85Z"/></g><g><path class="cls-2" d="M300.66,217.78c.04-35.15,6.02-68.57,16.69-97.88-26.42-18.29-54.36-28.53-79.86-28.37-3.6,.02-7.15,.25-10.64,.67-16.94,22.77-23.53,55.74-20.07,92.08,30.9,5.11,63.06,16.29,93.88,33.49Z"/><g class="cls-6"><path class="cls-2" d="M300.66,217.78c.04-35.15,6.02-68.57,16.69-97.88-26.42-18.29-54.36-28.53-79.86-28.37-3.6,.02-7.15,.25-10.64,.67-16.94,22.77-23.53,55.74-20.07,92.08,30.9,5.11,63.06,16.29,93.88,33.49Z"/></g></g></g><g><path class="cls-2" d="M769.41,472.93c-6.25,4.99-13.27,9.38-20.53,13.42,7.21,13.41,11.65,27.16,12.72,40.72-8.33,9.34-19.01,17.09-31.45,23.19,3.27,7.62,6.13,15.38,8.09,23.11,18.23-8.59,33.75-20.12,45.3-34.56l2.76-3.46-.11-4.42c-.48-19.55-6.39-39.21-16.78-58Z"/><path class="cls-2" d="M689.45,638.88c-8.15,.47-16.14,1.38-24.07,2.14-.15,16.29-3.21,31.38-9.43,44.41-12.88,4.24-27.23,5.49-42.33,4.09-.11,.78-.18,1.57-.3,2.35-1.06,7.02-1.88,14.48-3.37,21.72,13.98,1.41,27.58,1.01,40.38-1.57,6.45-1.3,12.71-3.12,18.73-5.48l4.13-1.61,2.12-3.88c9.9-18.12,14.56-39.37,14.47-62.19-.11,0-.22,.01-.32,.02Z"/><path class="cls-2" d="M178.23,673.18c-.79-3.78-1.43-7.65-1.96-11.57-14.67-.61-28.3-3.62-40.19-9.28-3.73-11.24-5.16-23.6-4.53-36.6-8.06-2.9-16.08-6.38-23.7-10.52-2.31,21.43-.12,41.92,7.06,60.2l1.62,4.12,3.89,2.12c17.66,9.6,38.28,14.28,60.42,14.5-.96-4.6-1.79-9.02-2.62-12.95Z"/><path class="cls-2" d="M489.14,74.23c13.59-7.34,27.53-11.85,41.27-12.93,8.83,7.84,16.22,17.79,22.17,29.32,7.92-2.9,16.11-4.97,24.21-6.03-8.58-18.21-20.15-33.66-34.62-45.18l-3.46-2.76-4.43,.11c-20.17,.49-40.44,6.73-59.78,17.66,5.38,5.93,10.23,12.7,14.63,19.8Z"/><path class="cls-2" d="M642.37,135.01c1.86,7.38,3.01,14.85,3.57,22.31,15.82,.3,30.48,3.35,43.19,9.4,3.89,11.72,5.3,24.64,4.46,38.26,3.67,.53,7.3,1.11,10.84,1.76,4.34,.79,8.82,1.76,13.29,2.99,1.61-19.94-.7-38.98-7.43-56.08l-1.62-4.12-3.89-2.12c-18.32-9.96-39.84-14.6-62.94-14.43,.18,.68,.36,1.37,.53,2.04Z"/><path class="cls-2" d="M310.55,81.42c8.15-13.35,18.07-24.38,29.56-32.26,11.93,2.46,23.68,7.59,34.93,14.93,5.53-6.4,11.69-12.18,18.36-16.97-16.96-12.01-35.21-19.95-54.02-22.79l-4.43-.66-3.77,2.31c-17.25,10.5-31.69,26.05-42.96,45.2,7.7,2.71,15.14,6.31,22.34,10.24Z"/><path class="cls-2" d="M796.98,328.29c-10.25-16.76-25.29-30.87-43.8-41.99-.58,1.7-1.18,3.39-1.78,5.02-2.18,5.95-4.67,12.01-7.49,17.96,12.25,7.82,22.43,17.17,29.83,27.92-2.53,12.21-7.85,24.22-15.52,35.69,6.6,5.07,12.83,10.61,18.18,16.59,11.69-16.68,19.43-34.6,22.22-53.05l.66-4.37-2.31-3.77Z"/><path class="cls-2" d="M338.3,743.6c-14.3,8.08-29.01,13.02-43.51,14.15-8.74-7.77-16.08-17.6-22-28.99-6.95,2.28-14.08,4.03-21.43,4.95-1.01,.13-2.05,.26-3.12,.4,8.6,18.36,20.22,33.94,34.78,45.53l3.46,2.76,4.43-.11c6.47-.16,12.93-.9,19.38-2.2,13.79-2.78,27.46-8.17,40.69-15.72-4.46-6.81-8.65-13.75-12.69-20.77Z"/><path class="cls-2" d="M512.79,740.54c-7.78,12.03-17.06,22.03-27.71,29.33-12.6-2.6-25-8.18-36.81-16.21-5.81,6.03-11.96,11.83-18.3,16.97,17.48,12.75,36.39,21.13,55.89,24.07l4.38,.66,3.78-2.31c16.68-10.16,30.74-25.04,41.85-43.33-7.88-2.27-15.63-5.43-23.08-9.18Z"/><path class="cls-2" d="M56.98,348.22c5.4-5.3,11.23-10.1,16.87-14.39,.73-.56,1.5-1,2.25-1.52-7.09-13.3-11.46-26.92-12.51-40.36,9.72-10.87,22.63-19.61,37.79-26.1-3.68-7.21-7.03-14.58-9.16-22.62-20.56,8.77-37.92,21.16-50.56,36.98l-2.77,3.45,.13,4.46c.49,20.29,6.84,40.67,17.95,60.09Z"/><path class="cls-2" d="M159.86,175.19c.48-15.21,3.54-29.31,9.41-41.56,3.35-1.09,6.79-1.99,10.31-2.7,9.27-1.87,19.15-2.38,29.4-1.65,.75-6.24,1.6-12.46,2.77-18.63,.28-1.48,.58-3.44,.99-5.56-20.13-1.67-39.35,.63-56.6,7.38l-4.11,1.65-2.11,3.88c-9.53,17.43-14.27,37.73-14.59,59.55,8.19-1.06,16.3-2.11,24.53-2.38Z"/><path class="cls-2" d="M85.02,512.1c-13.95-8.27-25.43-18.42-33.58-30.25,2.34-11.28,7.09-22.4,13.84-33.07-6.4-5.56-12.25-11.72-17.09-18.34-11.35,16.44-18.87,34.06-21.62,52.19l-.67,4.37,2.31,3.77c11.16,18.25,28.01,33.35,48.81,44.87,2.03-7.96,4.75-15.83,7.99-23.53Z"/></g></g></g></g></svg>