<?xml version="1.0" encoding="UTF-8"?><svg xmlns="http://www.w3.org/2000/svg" xmlns:xlink="http://www.w3.org/1999/xlink" viewBox="0 0 962.21 745.87"><defs><style>.cls-1{fill:url(#Degradado_sin_nombre_250);}.cls-2{fill:url(#Unnamed_Pattern_5);}.cls-3{opacity:.81;}.cls-4{fill:url(#Unnamed_Pattern_2-3);}.cls-4,.cls-5,.cls-6,.cls-7{mix-blend-mode:overlay;opacity:.6;}.cls-8{fill:url(#Unnamed_Pattern-2);}.cls-9{fill:#fff;}.cls-10{fill:url(#Degradado_sin_nombre_257);}.cls-11{fill:url(#Degradado_sin_nombre_11-5);filter:url(#drop-shadow-7);}.cls-12{fill:url(#Degradado_sin_nombre_11-3);filter:url(#drop-shadow-3);}.cls-5{fill:url(#Unnamed_Pattern_2-5);}.cls-13{fill:url(#Unnamed_Pattern_2);}.cls-14{fill:url(#Degradado_sin_nombre_8-9);}.cls-15{fill:#8c334f;}.cls-16{fill:url(#Unnamed_Pattern-3);}.cls-17,.cls-18{opacity:.9;}.cls-19{fill:url(#Degradado_sin_nombre_8-8);}.cls-20{fill:url(#Degradado_sin_nombre_11-6);filter:url(#drop-shadow-8);}.cls-6{fill:url(#Unnamed_Pattern_2-2);}.cls-21{fill:url(#Degradado_sin_nombre_8-5);}.cls-22{isolation:isolate;}.cls-23{fill:url(#Degradado_sin_nombre_8-2);}.cls-24{fill:url(#Degradado_sin_nombre_8-7);}.cls-25{fill:#68a8de;}.cls-26{fill:url(#Unnamed_Pattern_4);opacity:.8;}.cls-27{fill:url(#Degradado_sin_nombre_10);}.cls-28{fill:url(#Unnamed_Pattern_2-6);}.cls-29{fill:#e6be73;}.cls-30{fill:url(#Degradado_sin_nombre_8-3);}.cls-31{fill:url(#Degradado_sin_nombre_11);filter:url(#drop-shadow-1);}.cls-32{fill:#2a7bbf;}.cls-33{fill:url(#Degradado_sin_nombre_8-6);}.cls-34{fill:url(#Degradado_sin_nombre_11-8);filter:url(#drop-shadow-10);}.cls-35{fill:#f2eae7;}.cls-36{fill:url(#Degradado_sin_nombre_11-2);filter:url(#drop-shadow-2);}.cls-37{fill:#23689e;}.cls-38{fill:url(#Degradado_sin_nombre_11-7);filter:url(#drop-shadow-9);}.cls-39{fill:none;}.cls-40{fill:url(#Degradado_sin_nombre_12);filter:url(#drop-shadow-6);}.cls-41{fill:url(#Unnamed_Pattern);}.cls-42{fill:url(#Degradado_sin_nombre_13);filter:url(#drop-shadow-4);}.cls-43{fill:url(#Degradado_sin_nombre_8-4);}.cls-44{fill:url(#Degradado_sin_nombre_9);}.cls-45{fill:url(#Degradado_sin_nombre_8);}.cls-46{fill:url(#Degradado_sin_nombre_11-10);filter:url(#drop-shadow-12);}.cls-47{fill:url(#Degradado_sin_nombre_252);filter:url(#drop-shadow-13);}.cls-18{fill:url(#Unnamed_Pattern_10);}.cls-48{fill:url(#Degradado_sin_nombre_11-9);filter:url(#drop-shadow-11);}.cls-49{fill:url(#Degradado_sin_nombre_8-10);}.cls-50{fill:#36386b;}.cls-51{fill:url(#Degradado_sin_nombre_11-4);filter:url(#drop-shadow-5);}.cls-52{mix-blend-mode:multiply;}.cls-53{fill:url(#Unnamed_Pattern_2-4);}</style><pattern id="Unnamed_Pattern_10" x="0" y="0" width="31.5" height="27.89" patternTransform="translate(-1803.83 -1983.71) rotate(3) scale(.78)" patternUnits="userSpaceOnUse" viewBox="0 0 31.5 27.89"><g><rect class="cls-39" x="0" width="31.5" height="27.89"/><path class="cls-32" d="M33.96,30.08l.91-.91c.14-.14,.14-.37,0-.51l-.91-.91c-.07-.07-.1-.16-.1-.25v-1.29c0-.2-.16-.36-.36-.36h-1.29c-.1,0-.19-.04-.25-.1l-.91-.91c-.14-.14-.37-.14-.51,0l-.91,.91c-.07,.07-.16,.1-.25,.1h-1.29c-.2,0-.36,.16-.36,.36v1.29c0,.1-.04,.19-.11,.25l-.91,.91c-.14,.14-.14,.37,0,.51l.91,.91c.07,.07,.11,.16,.11,.25v1.29c0,.2,.16,.36,.36,.36h1.29c.1,0,.19,.04,.25,.11l.91,.91c.14,.14,.37,.14,.51,0l.91-.91c.07-.07,.16-.11,.25-.11h1.29c.2,0,.36-.16,.36-.36v-1.29c0-.1,.04-.19,.1-.25Z"/><g><path class="cls-32" d="M2.46,30.08l.91-.91c.14-.14,.14-.37,0-.51l-.91-.91c-.07-.07-.1-.16-.1-.25v-1.29c0-.2-.16-.36-.36-.36H.71c-.1,0-.19-.04-.25-.1l-.91-.91c-.14-.14-.37-.14-.51,0l-.91,.91c-.07,.07-.16,.1-.25,.1h-1.29c-.2,0-.36,.16-.36,.36v1.29c0,.1-.04,.19-.11,.25l-.91,.91c-.14,.14-.14,.37,0,.51l.91,.91c.07,.07,.11,.16,.11,.25v1.29c0,.2,.16,.36,.36,.36h1.29c.1,0,.19,.04,.25,.11l.91,.91c.14,.14,.37,.14,.51,0l.91-.91c.07-.07,.16-.11,.25-.11H2c.2,0,.36-.16,.36-.36v-1.29c0-.1,.04-.19,.1-.25Z"/><path class="cls-25" d="M6.84,28.05l6.73-6.73c.48-.48,1.25-.48,1.73,0l6.73,6.73c.48,.48,.48,1.25,0,1.73l-6.73,6.73c-.48,.48-1.25,.48-1.73,0l-6.73-6.73c-.48-.48-.48-1.25,0-1.73Z"/></g><g><path class="cls-32" d="M18.21,16.13l.91-.91c.14-.14,.14-.37,0-.51l-.91-.91c-.07-.07-.1-.16-.1-.25v-1.29c0-.2-.16-.36-.36-.36h-1.29c-.1,0-.19-.04-.25-.1l-.91-.91c-.14-.14-.37-.14-.51,0l-.91,.91c-.07,.07-.16,.1-.25,.1h-1.29c-.2,0-.36,.16-.36,.36v1.29c0,.09-.04,.19-.11,.25l-.91,.91c-.14,.14-.14,.37,0,.51l.91,.91c.07,.07,.11,.16,.11,.25v1.29c0,.2,.16,.36,.36,.36h1.29c.1,0,.19,.04,.25,.1l.91,.91c.14,.14,.37,.14,.51,0l.91-.91c.07-.07,.16-.1,.25-.1h1.29c.2,0,.36-.16,.36-.36v-1.29c0-.1,.04-.19,.1-.25Z"/><path class="cls-25" d="M22.59,14.11l6.73-6.73c.48-.48,1.25-.48,1.73,0l6.73,6.73c.48,.48,.48,1.25,0,1.73l-6.73,6.73c-.48,.48-1.25,.48-1.73,0l-6.73-6.73c-.48-.48-.48-1.25,0-1.73Z"/></g><path class="cls-25" d="M-8.91,14.11L-2.18,7.38c.48-.48,1.25-.48,1.73,0l6.73,6.73c.48,.48,.48,1.25,0,1.73L-.45,22.56c-.48,.48-1.25,.48-1.73,0l-6.73-6.73c-.48-.48-.48-1.25,0-1.73Z"/><path class="cls-32" d="M33.96,2.19l.91-.91c.14-.14,.14-.37,0-.51l-.91-.91c-.07-.07-.1-.16-.1-.25V-1.67c0-.2-.16-.36-.36-.36h-1.29c-.1,0-.19-.04-.25-.11l-.91-.91c-.14-.14-.37-.14-.51,0l-.91,.91c-.07,.07-.16,.11-.25,.11h-1.29c-.2,0-.36,.16-.36,.36V-.39c0,.1-.04,.19-.11,.25l-.91,.91c-.14,.14-.14,.37,0,.51l.91,.91c.07,.07,.11,.16,.11,.25v1.29c0,.2,.16,.36,.36,.36h1.29c.1,0,.19,.04,.25,.1l.91,.91c.14,.14,.37,.14,.51,0l.91-.91c.07-.07,.16-.1,.25-.1h1.29c.2,0,.36-.16,.36-.36v-1.29c0-.1,.04-.19,.1-.25Z"/><g><path class="cls-32" d="M2.46,2.19l.91-.91c.14-.14,.14-.37,0-.51L2.46-.13c-.07-.07-.1-.16-.1-.25V-1.67c0-.2-.16-.36-.36-.36H.71c-.1,0-.19-.04-.25-.11l-.91-.91c-.14-.14-.37-.14-.51,0l-.91,.91c-.07,.07-.16,.11-.25,.11h-1.29c-.2,0-.36,.16-.36,.36V-.39c0,.1-.04,.19-.11,.25l-.91,.91c-.14,.14-.14,.37,0,.51l.91,.91c.07,.07,.11,.16,.11,.25v1.29c0,.2,.16,.36,.36,.36h1.29c.1,0,.19,.04,.25,.1l.91,.91c.14,.14,.37,.14,.51,0l.91-.91c.07-.07,.16-.1,.25-.1H2c.2,0,.36-.16,.36-.36v-1.29c0-.1,.04-.19,.1-.25Z"/><path class="cls-25" d="M6.84,.16l6.73-6.73c.48-.48,1.25-.48,1.73,0L22.03,.16c.48,.48,.48,1.25,0,1.73l-6.73,6.73c-.48,.48-1.25,.48-1.73,0L6.84,1.89c-.48-.48-.48-1.25,0-1.73Z"/></g></g></pattern><pattern id="Unnamed_Pattern_2" x="0" y="0" width="29.74" height="29.48" patternTransform="translate(-3366.21 -4292.92) scale(.54)" patternUnits="userSpaceOnUse" viewBox="0 0 29.74 29.48"><g><rect class="cls-39" y="0" width="29.74" height="29.48"/><path class="cls-9" d="M14.24,35.25c-1.82-2.17-2.71-4.36-3.16-5.8-.6,1.53-1.73,3.86-3.84,6.14-2.66,2.88-5.58,4.28-7.23,4.93,1.45,.47,4.2,1.56,6.78,4.1,2.69,2.64,3.82,5.51,4.29,6.97,.55-1.51,1.7-4.07,4.07-6.52,2.62-2.72,5.45-3.99,7.01-4.56-1.59-.51-5.05-1.86-7.91-5.27Zm-1.56,7.07c-.93,.97-1.39,1.97-1.6,2.57-.18-.58-.63-1.71-1.69-2.75-1.02-1-2.1-1.43-2.67-1.62,.65-.26,1.8-.81,2.85-1.94,.83-.9,1.28-1.82,1.51-2.42,.18,.57,.53,1.43,1.25,2.29,1.13,1.34,2.49,1.88,3.12,2.08-.61,.22-1.73,.72-2.76,1.8Z"/><path class="cls-9" d="M29.11,20.51c-1.82-2.17-2.71-4.36-3.16-5.8-.6,1.53-1.73,3.86-3.84,6.14-2.66,2.88-5.58,4.28-7.23,4.93,1.45,.47,4.2,1.56,6.78,4.1,2.69,2.64,3.82,5.51,4.29,6.97,.55-1.51,1.7-4.07,4.07-6.52,2.62-2.72,5.45-3.99,7.01-4.56-1.59-.51-5.05-1.86-7.91-5.27Zm-1.56,7.07c-.93,.97-1.39,1.97-1.6,2.57-.18-.58-.63-1.71-1.69-2.75-1.02-1-2.1-1.43-2.67-1.62,.65-.26,1.8-.81,2.85-1.94,.83-.9,1.28-1.82,1.51-2.42,.18,.57,.53,1.43,1.25,2.29,1.13,1.34,2.49,1.88,3.12,2.08-.61,.22-1.73,.72-2.76,1.8Z"/><path class="cls-9" d="M-.63,20.51c-1.82-2.17-2.71-4.36-3.16-5.8-.6,1.53-1.73,3.86-3.84,6.14-2.66,2.88-5.58,4.28-7.23,4.93,1.45,.47,4.2,1.56,6.78,4.1,2.69,2.64,3.82,5.51,4.29,6.97,.55-1.51,1.7-4.07,4.07-6.52,2.62-2.72,5.45-3.99,7.01-4.56-1.59-.51-5.05-1.86-7.91-5.27Zm-1.56,7.07c-.93,.97-1.39,1.97-1.6,2.57-.18-.58-.63-1.71-1.69-2.75-1.02-1-2.1-1.43-2.67-1.62,.65-.26,1.8-.81,2.85-1.94,.83-.9,1.28-1.82,1.51-2.42,.18,.57,.53,1.43,1.25,2.29,1.13,1.34,2.49,1.88,3.12,2.08-.61,.22-1.73,.72-2.76,1.8Z"/><path class="cls-9" d="M14.24,5.77C12.42,3.6,11.52,1.4,11.07-.04c-.6,1.53-1.73,3.86-3.84,6.14C4.57,8.99,1.65,10.39,0,11.04c1.45,.47,4.2,1.56,6.78,4.1,2.69,2.64,3.82,5.51,4.29,6.97,.55-1.51,1.7-4.07,4.07-6.52,2.62-2.72,5.45-3.99,7.01-4.56-1.59-.51-5.05-1.86-7.91-5.27Zm-1.56,7.07c-.93,.97-1.39,1.97-1.6,2.57-.18-.57-.63-1.71-1.69-2.75-1.02-1-2.1-1.43-2.67-1.62,.65-.26,1.8-.81,2.85-1.94,.83-.9,1.28-1.82,1.51-2.42,.18,.57,.53,1.43,1.25,2.29,1.13,1.34,2.49,1.88,3.12,2.08-.61,.22-1.73,.72-2.76,1.8Z"/><path class="cls-9" d="M29.11-8.97c-1.82-2.17-2.71-4.36-3.16-5.8-.6,1.53-1.73,3.86-3.84,6.14-2.66,2.88-5.58,4.28-7.23,4.93,1.45,.47,4.2,1.56,6.78,4.1,2.69,2.64,3.82,5.51,4.29,6.97,.55-1.51,1.7-4.07,4.07-6.52,2.62-2.72,5.45-3.99,7.01-4.56-1.59-.51-5.05-1.86-7.91-5.27Zm-1.56,7.07c-.93,.97-1.39,1.97-1.6,2.57-.18-.58-.63-1.71-1.69-2.75-1.02-1-2.1-1.43-2.67-1.62,.65-.26,1.8-.81,2.85-1.94,.83-.9,1.28-1.82,1.51-2.42,.18,.57,.53,1.43,1.25,2.29,1.13,1.34,2.49,1.88,3.12,2.08-.61,.22-1.73,.72-2.76,1.8Z"/><path class="cls-9" d="M-.63-8.97c-1.82-2.17-2.71-4.36-3.16-5.8-.6,1.53-1.73,3.86-3.84,6.14-2.66,2.88-5.58,4.28-7.23,4.93,1.45,.47,4.2,1.56,6.78,4.1,2.69,2.64,3.82,5.51,4.29,6.97C-3.25,5.86-2.09,3.3,.27,.85,2.89-1.87,5.72-3.14,7.28-3.7c-1.59-.51-5.05-1.86-7.91-5.27ZM-2.19-1.91C-3.12-.94-3.58,.07-3.8,.66c-.18-.58-.63-1.71-1.69-2.75-1.02-1-2.1-1.43-2.67-1.62,.65-.26,1.8-.81,2.85-1.94,.83-.9,1.28-1.82,1.51-2.42,.18,.57,.53,1.43,1.25,2.29C-1.42-4.44-.05-3.9,.57-3.7c-.61,.22-1.73,.72-2.76,1.8Z"/></g></pattern><pattern id="Unnamed_Pattern_2-2" patternTransform="translate(-479.16 -1414.91) scale(.9)" xlink:href="#Unnamed_Pattern_2"/><pattern id="Unnamed_Pattern_2-3" patternTransform="translate(-479.16 -1414.91) scale(.9)" xlink:href="#Unnamed_Pattern_2"/><pattern id="Unnamed_Pattern_2-4" patternTransform="translate(-3354.48 -4288.63) scale(.54)" xlink:href="#Unnamed_Pattern_2"/><pattern id="Unnamed_Pattern_2-5" patternTransform="translate(-479.16 -1414.91) scale(.9)" xlink:href="#Unnamed_Pattern_2"/><pattern id="Unnamed_Pattern_2-6" patternTransform="translate(-4812.82 -5735.74) scale(.36)" xlink:href="#Unnamed_Pattern_2"/><pattern id="Unnamed_Pattern_4" x="0" y="0" width="18.77" height="32.21" patternTransform="translate(-1805.33 -1962.05) rotate(3) scale(.78)" patternUnits="userSpaceOnUse" viewBox="0 0 18.77 32.21"><g><rect class="cls-39" x="0" width="18.77" height="32.21"/><g><path class="cls-35" d="M26.92,31.49c-1.35,.68-3.25,1.84-5.14,3.74-1.83,1.84-2.96,3.7-3.63,5.03-.6-1.31-1.71-3.33-3.69-5.28-1.88-1.85-3.79-2.9-5.07-3.49,1.3-.6,3.25-1.69,5.16-3.59,1.92-1.92,3.01-3.88,3.61-5.18,.68,1.32,1.79,3.13,3.55,4.93,1.9,1.94,3.84,3.14,5.22,3.84Z"/><path class="cls-15" d="M22.81,31.49c-.71,.36-1.73,.98-2.72,1.98-.97,.98-1.57,1.97-1.93,2.67-.32-.7-.91-1.77-1.96-2.8-1-.98-2.01-1.54-2.69-1.85,.69-.32,1.72-.89,2.74-1.91,1.02-1.02,1.6-2.06,1.92-2.75,.36,.7,.95,1.66,1.88,2.62,1.01,1.03,2.04,1.66,2.77,2.04Z"/><path class="cls-29" d="M19.07,32.34c-.52,.52-1.37,.52-1.89,0s-.52-1.37,0-1.89c.52-.52,1.37-.52,1.89,0,.52,.52,.52,1.37,0,1.89Z"/></g><g><path class="cls-35" d="M8.15,31.49c-1.35,.68-3.25,1.84-5.14,3.74-1.83,1.84-2.96,3.7-3.63,5.03-.6-1.31-1.71-3.33-3.7-5.28-1.88-1.85-3.79-2.9-5.07-3.49,1.3-.6,3.25-1.69,5.16-3.59,1.92-1.92,3.01-3.88,3.61-5.18,.68,1.32,1.79,3.13,3.55,4.93,1.9,1.94,3.84,3.14,5.22,3.84Z"/><path class="cls-15" d="M4.04,31.49c-.71,.36-1.73,.98-2.72,1.98-.97,.98-1.57,1.97-1.93,2.67-.32-.7-.91-1.77-1.96-2.8-1-.98-2.01-1.54-2.69-1.85,.69-.32,1.72-.89,2.74-1.91,1.02-1.02,1.6-2.06,1.92-2.75,.36,.7,.95,1.66,1.88,2.62,1.01,1.03,2.04,1.66,2.77,2.04Z"/><path class="cls-29" d="M.3,32.34c-.52,.52-1.37,.52-1.89,0s-.52-1.37,0-1.89c.52-.52,1.37-.52,1.89,0,.52,.52,.52,1.37,0,1.89Z"/></g><g><path class="cls-35" d="M17.54,15.38c-1.35,.68-3.25,1.84-5.14,3.74-1.83,1.84-2.96,3.7-3.63,5.03-.6-1.31-1.71-3.33-3.7-5.28-1.88-1.85-3.79-2.9-5.07-3.49,1.3-.6,3.25-1.69,5.16-3.59,1.92-1.92,3.01-3.88,3.61-5.18,.68,1.32,1.79,3.13,3.55,4.93,1.91,1.94,3.84,3.14,5.22,3.84Z"/><path class="cls-15" d="M13.42,15.38c-.71,.36-1.73,.98-2.72,1.98-.97,.98-1.57,1.97-1.93,2.67-.32-.7-.91-1.77-1.96-2.8-1-.98-2.01-1.54-2.69-1.85,.69-.32,1.72-.89,2.74-1.91,1.02-1.02,1.6-2.06,1.92-2.75,.36,.7,.95,1.66,1.88,2.62,1.01,1.03,2.04,1.66,2.77,2.04Z"/><path class="cls-29" d="M9.69,16.24c-.52,.52-1.37,.52-1.89,0-.52-.52-.52-1.37,0-1.89,.52-.52,1.37-.52,1.89,0s.52,1.37,0,1.89Z"/></g><g><path class="cls-35" d="M26.92-.72c-1.35,.68-3.25,1.84-5.14,3.74-1.83,1.84-2.96,3.7-3.63,5.03-.6-1.31-1.71-3.33-3.69-5.28C12.58,.93,10.67-.13,9.38-.72c1.3-.6,3.25-1.69,5.16-3.59,1.92-1.92,3.01-3.88,3.61-5.18,.68,1.32,1.79,3.13,3.55,4.93,1.9,1.94,3.84,3.14,5.22,3.84Z"/><path class="cls-15" d="M22.81-.72c-.71,.36-1.73,.98-2.72,1.98-.97,.98-1.57,1.97-1.93,2.67-.32-.7-.91-1.77-1.96-2.8-1-.98-2.01-1.54-2.69-1.85,.69-.32,1.72-.89,2.74-1.91,1.02-1.02,1.6-2.06,1.92-2.75,.36,.7,.95,1.66,1.88,2.62,1.01,1.03,2.04,1.66,2.77,2.04Z"/><path class="cls-29" d="M19.07,.14c-.52,.52-1.37,.52-1.89,0s-.52-1.37,0-1.89c.52-.52,1.37-.52,1.89,0s.52,1.37,0,1.89Z"/></g><g><path class="cls-35" d="M8.15-.72C6.81-.04,4.9,1.12,3.02,3.02,1.19,4.86,.06,6.72-.62,8.05c-.6-1.31-1.71-3.33-3.7-5.28C-6.19,.93-8.1-.13-9.38-.72c1.3-.6,3.25-1.69,5.16-3.59,1.92-1.92,3.01-3.88,3.61-5.18C.06-8.17,1.17-6.36,2.94-4.56c1.9,1.94,3.84,3.14,5.22,3.84Z"/><path class="cls-15" d="M4.04-.72c-.71,.36-1.73,.98-2.72,1.98C.34,2.24-.26,3.23-.62,3.93c-.32-.7-.91-1.77-1.96-2.8C-3.57,.15-4.59-.41-5.27-.72c.69-.32,1.72-.89,2.74-1.91,1.02-1.02,1.6-2.06,1.92-2.75,.36,.7,.95,1.66,1.88,2.62C2.28-1.72,3.31-1.09,4.04-.72Z"/><path class="cls-29" d="M.3,.14C-.22,.66-1.07,.66-1.59,.14s-.52-1.37,0-1.89c.52-.52,1.37-.52,1.89,0C.82-1.23,.82-.39,.3,.14Z"/></g></g></pattern><pattern id="Unnamed_Pattern_5" x="0" y="0" width="28.84" height="41.84" patternTransform="translate(-4116.7 -4588.99) rotate(3) scale(.47)" patternUnits="userSpaceOnUse" viewBox="0 0 28.84 41.84"><g><rect class="cls-39" y="0" width="28.84" height="41.84"/><g><path class="cls-35" d="M34.73,40.17c-1.15,0-2.21,.37-3.07,1,.15-.92,.36-1.72,.56-2.34-.77,.28-1.89,.62-3.26,.78,.93-.95,1.52-2.25,1.52-3.69,0-2.18-1.32-4.06-3.21-4.87-1.89,.81-3.21,2.68-3.21,4.87,0,1.44,.58,2.74,1.52,3.69-1.37-.16-2.49-.5-3.26-.78,.23,.61,.48,1.44,.66,2.43-.89-.67-1.98-1.08-3.18-1.08-2.18,0-4.06,1.32-4.87,3.21,.81,1.89,2.68,3.21,4.87,3.21,1.26,0,2.41-.45,3.31-1.18-.16,1.4-.51,2.54-.8,3.32,.65-.21,1.51-.43,2.51-.59-.48,.79-.76,1.72-.76,2.71,0,2.18,1.32,4.06,3.21,4.87,1.89-.81,3.21-2.68,3.21-4.87,0-.99-.28-1.91-.76-2.71,1,.16,1.85,.38,2.51,.59-.26-.81-.53-1.92-.68-3.23,.89,.68,1.99,1.09,3.19,1.09,2.18,0,4.06-1.32,4.87-3.21-.81-1.89-2.68-3.21-4.87-3.21Z"/><path class="cls-15" d="M30.17,46.69c-.67-.22-1.69-.47-2.95-.47-1.22,0-2.22,.25-2.88,.47,.24-.64,.54-1.68,.53-2.98-.01-1.24-.29-2.22-.53-2.85,.63,.23,1.64,.52,2.91,.52,1.28,0,2.29-.29,2.92-.52-.21,.66-.45,1.63-.46,2.82-.01,1.28,.24,2.32,.46,3.01Z"/></g><g><path class="cls-35" d="M5.89,40.17c-1.15,0-2.21,.37-3.07,1,.15-.92,.36-1.72,.56-2.34-.77,.28-1.89,.62-3.26,.78,.93-.95,1.52-2.25,1.52-3.69,0-2.18-1.32-4.06-3.21-4.87-1.89,.81-3.21,2.68-3.21,4.87,0,1.44,.58,2.74,1.52,3.69-1.37-.16-2.49-.5-3.26-.78,.23,.61,.48,1.44,.67,2.43-.89-.67-1.98-1.08-3.18-1.08-2.18,0-4.06,1.32-4.87,3.21,.81,1.89,2.68,3.21,4.87,3.21,1.26,0,2.41-.45,3.31-1.18-.16,1.4-.51,2.54-.8,3.32,.65-.21,1.51-.43,2.51-.59-.48,.79-.76,1.72-.76,2.71,0,2.18,1.32,4.06,3.21,4.87,1.89-.81,3.21-2.68,3.21-4.87,0-.99-.28-1.91-.76-2.71,1,.16,1.85,.38,2.51,.59-.26-.81-.53-1.92-.68-3.23,.89,.68,1.99,1.09,3.19,1.09,2.18,0,4.06-1.32,4.87-3.21-.81-1.89-2.68-3.21-4.87-3.21Z"/><path class="cls-15" d="M1.33,46.69c-.67-.22-1.69-.47-2.95-.47-1.22,0-2.22,.25-2.88,.47,.24-.64,.54-1.68,.53-2.98-.01-1.24-.29-2.22-.53-2.85,.63,.23,1.64,.52,2.91,.52,1.28,0,2.29-.29,2.92-.52-.21,.66-.45,1.63-.46,2.82-.01,1.28,.24,2.32,.46,3.01Z"/></g><g><path class="cls-35" d="M20.31,19.25c-1.15,0-2.21,.37-3.07,1,.15-.92,.36-1.72,.56-2.34-.77,.28-1.89,.62-3.26,.78,.93-.95,1.52-2.25,1.52-3.69,0-2.18-1.32-4.06-3.21-4.87-1.89,.81-3.21,2.68-3.21,4.87,0,1.44,.58,2.74,1.52,3.69-1.37-.16-2.49-.5-3.26-.78,.23,.61,.48,1.44,.67,2.43-.89-.67-1.98-1.08-3.18-1.08-2.18,0-4.06,1.32-4.87,3.21,.81,1.89,2.68,3.21,4.87,3.21,1.26,0,2.41-.45,3.31-1.18-.16,1.4-.51,2.54-.8,3.32,.65-.21,1.51-.43,2.51-.59-.48,.79-.76,1.72-.76,2.71,0,2.18,1.32,4.06,3.21,4.87,1.89-.81,3.21-2.68,3.21-4.87,0-.99-.28-1.91-.76-2.71,1,.16,1.85,.38,2.51,.59-.26-.81-.53-1.92-.68-3.23,.89,.68,1.99,1.09,3.19,1.09,2.18,0,4.06-1.32,4.87-3.21-.81-1.89-2.68-3.21-4.87-3.21Z"/><path class="cls-15" d="M15.75,25.77c-.67-.22-1.69-.47-2.95-.47-1.22,0-2.22,.25-2.88,.47,.24-.64,.54-1.68,.53-2.98-.01-1.24-.29-2.22-.53-2.85,.63,.23,1.64,.52,2.91,.52,1.28,0,2.29-.29,2.92-.52-.21,.66-.45,1.63-.46,2.82-.01,1.28,.24,2.32,.46,3.01Z"/><path class="cls-29" d="M12.87,23.86c-.59,0-1.07-.48-1.07-1.07s.48-1.07,1.07-1.07,1.07,.48,1.07,1.07-.48,1.07-1.07,1.07Z"/></g><g><path class="cls-35" d="M34.73-1.68c-1.15,0-2.21,.37-3.07,1,.15-.92,.36-1.72,.56-2.34-.77,.28-1.89,.62-3.26,.78,.93-.95,1.52-2.25,1.52-3.69,0-2.18-1.32-4.06-3.21-4.87-1.89,.81-3.21,2.68-3.21,4.87,0,1.44,.58,2.74,1.52,3.69-1.37-.16-2.49-.5-3.26-.78,.23,.61,.48,1.44,.66,2.43-.89-.67-1.98-1.08-3.18-1.08-2.18,0-4.06,1.32-4.87,3.21,.81,1.89,2.68,3.21,4.87,3.21,1.26,0,2.41-.45,3.31-1.18-.16,1.4-.51,2.54-.8,3.32,.65-.21,1.51-.43,2.51-.59-.48,.79-.76,1.72-.76,2.71,0,2.18,1.32,4.06,3.21,4.87,1.89-.81,3.21-2.68,3.21-4.87,0-.99-.28-1.91-.76-2.71,1,.16,1.85,.38,2.51,.59-.26-.81-.53-1.92-.68-3.23,.89,.68,1.99,1.09,3.19,1.09,2.18,0,4.06-1.32,4.87-3.21-.81-1.89-2.68-3.21-4.87-3.21Z"/><path class="cls-15" d="M30.17,4.85c-.67-.22-1.69-.47-2.95-.47-1.22,0-2.22,.25-2.88,.47,.24-.64,.54-1.68,.53-2.98-.01-1.24-.29-2.22-.53-2.85,.63,.23,1.64,.52,2.91,.52,1.28,0,2.29-.29,2.92-.52-.21,.66-.45,1.63-.46,2.82-.01,1.28,.24,2.32,.46,3.01Z"/><path class="cls-29" d="M27.29,2.94c-.59,0-1.07-.48-1.07-1.07s.48-1.07,1.07-1.07,1.07,.48,1.07,1.07-.48,1.07-1.07,1.07Z"/></g><g><path class="cls-35" d="M5.89-1.68c-1.15,0-2.21,.37-3.07,1,.15-.92,.36-1.72,.56-2.34-.77,.28-1.89,.62-3.26,.78,.93-.95,1.52-2.25,1.52-3.69,0-2.18-1.32-4.06-3.21-4.87-1.89,.81-3.21,2.68-3.21,4.87,0,1.44,.58,2.74,1.52,3.69-1.37-.16-2.49-.5-3.26-.78,.23,.61,.48,1.44,.67,2.43-.89-.67-1.98-1.08-3.18-1.08-2.18,0-4.06,1.32-4.87,3.21,.81,1.89,2.68,3.21,4.87,3.21,1.26,0,2.41-.45,3.31-1.18-.16,1.4-.51,2.54-.8,3.32,.65-.21,1.51-.43,2.51-.59-.48,.79-.76,1.72-.76,2.71,0,2.18,1.32,4.06,3.21,4.87,1.89-.81,3.21-2.68,3.21-4.87,0-.99-.28-1.91-.76-2.71,1,.16,1.85,.38,2.51,.59-.26-.81-.53-1.92-.68-3.23,.89,.68,1.99,1.09,3.19,1.09,2.18,0,4.06-1.32,4.87-3.21-.81-1.89-2.68-3.21-4.87-3.21Z"/><path class="cls-15" d="M1.33,4.85c-.67-.22-1.69-.47-2.95-.47-1.22,0-2.22,.25-2.88,.47,.24-.64,.54-1.68,.53-2.98-.01-1.24-.29-2.22-.53-2.85,.63,.23,1.64,.52,2.91,.52,1.28,0,2.29-.29,2.92-.52-.21,.66-.45,1.63-.46,2.82-.01,1.28,.24,2.32,.46,3.01Z"/></g></g></pattern><pattern id="Unnamed_Pattern" x="0" y="0" width="103" height="96.45" patternTransform="translate(-5279.43 -5759.72) rotate(3) scale(.31)" patternUnits="userSpaceOnUse" viewBox="0 0 103 96.45"><g><rect class="cls-39" y="0" width="103" height="96.45"/><polygon class="cls-32" points="122 121.64 127.8 115.84 122 110.04 122 101.84 113.8 101.84 108 96.04 102.2 101.84 94 101.84 94 110.04 88.2 115.84 94 121.64 94 129.84 102.2 129.84 108 135.64 113.8 129.84 122 129.84 122 121.64"/><polygon class="cls-32" points="70.5 121.64 76.3 115.84 70.5 110.04 70.5 101.84 62.3 101.84 56.5 96.04 50.7 101.84 42.5 101.84 42.5 110.04 36.7 115.84 42.5 121.64 42.5 129.84 50.7 129.84 56.5 135.64 62.3 129.84 70.5 129.84 70.5 121.64"/><polygon class="cls-32" points="19 121.64 24.8 115.84 19 110.04 19 101.84 10.8 101.84 5 96.04 -.8 101.84 -9 101.84 -9 110.04 -14.8 115.84 -9 121.64 -9 129.84 -.8 129.84 5 135.64 10.8 129.84 19 129.84 19 121.64"/><g><polygon class="cls-32" points="96.25 73.41 102.05 67.61 96.25 61.81 96.25 53.61 88.05 53.61 82.25 47.81 76.45 53.61 68.25 53.61 68.25 61.81 62.45 67.61 68.25 73.41 68.25 81.61 76.45 81.61 82.25 87.41 88.05 81.61 96.25 81.61 96.25 73.41"/><polygon class="cls-25" points="90.2 70.91 93.5 67.61 90.2 64.32 90.2 59.66 85.55 59.66 82.25 56.36 78.95 59.66 74.3 59.66 74.3 64.32 71 67.61 74.3 70.91 74.3 75.57 78.95 75.57 82.25 78.86 85.55 75.57 90.2 75.57 90.2 70.91"/></g><g><polygon class="cls-32" points="44.75 73.41 50.55 67.61 44.75 61.81 44.75 53.61 36.55 53.61 30.75 47.81 24.95 53.61 16.75 53.61 16.75 61.81 10.95 67.61 16.75 73.41 16.75 81.61 24.95 81.61 30.75 87.41 36.55 81.61 44.75 81.61 44.75 73.41"/><polygon class="cls-25" points="38.7 70.91 42 67.61 38.7 64.32 38.7 59.66 34.05 59.66 30.75 56.36 27.45 59.66 22.8 59.66 22.8 64.32 19.5 67.61 22.8 70.91 22.8 75.57 27.45 75.57 30.75 78.86 34.05 75.57 38.7 75.57 38.7 70.91"/></g><g><polygon class="cls-32" points="122 25.19 127.8 19.39 122 13.59 122 5.39 113.8 5.39 108 -.41 102.2 5.39 94 5.39 94 13.59 88.2 19.39 94 25.19 94 33.39 102.2 33.39 108 39.19 113.8 33.39 122 33.39 122 25.19"/><polygon class="cls-25" points="115.95 22.68 119.25 19.39 115.95 16.09 115.95 11.43 111.3 11.43 108 8.14 104.7 11.43 100.05 11.43 100.05 16.09 96.75 19.39 100.05 22.68 100.05 27.34 104.7 27.34 108 30.64 111.3 27.34 115.95 27.34 115.95 22.68"/></g><g><polygon class="cls-32" points="70.5 25.19 76.3 19.39 70.5 13.59 70.5 5.39 62.3 5.39 56.5 -.41 50.7 5.39 42.5 5.39 42.5 13.59 36.7 19.39 42.5 25.19 42.5 33.39 50.7 33.39 56.5 39.19 62.3 33.39 70.5 33.39 70.5 25.19"/><polygon class="cls-25" points="64.45 22.68 67.75 19.39 64.45 16.09 64.45 11.43 59.8 11.43 56.5 8.14 53.2 11.43 48.55 11.43 48.55 16.09 45.25 19.39 48.55 22.68 48.55 27.34 53.2 27.34 56.5 30.64 59.8 27.34 64.45 27.34 64.45 22.68"/></g><g><polygon class="cls-32" points="19 25.19 24.8 19.39 19 13.59 19 5.39 10.8 5.39 5 -.41 -.8 5.39 -9 5.39 -9 13.59 -14.8 19.39 -9 25.19 -9 33.39 -.8 33.39 5 39.19 10.8 33.39 19 33.39 19 25.19"/><polygon class="cls-25" points="12.95 22.68 16.25 19.39 12.95 16.09 12.95 11.43 8.3 11.43 5 8.14 1.7 11.43 -2.95 11.43 -2.95 16.09 -6.25 19.39 -2.95 22.68 -2.95 27.34 1.7 27.34 5 30.64 8.3 27.34 12.95 27.34 12.95 22.68"/></g></g></pattern><pattern id="Unnamed_Pattern-2" patternTransform="translate(-5876.34 -6479.14) rotate(3) scale(.23)" xlink:href="#Unnamed_Pattern"/><linearGradient id="Degradado_sin_nombre_11" x1="606.81" y1="413.45" x2="645.35" y2="436.32" gradientTransform="translate(27.47 -17.8) rotate(3)" gradientUnits="userSpaceOnUse"><stop offset="0" stop-color="#d5d5d5"/><stop offset="1" stop-color="#fff"/></linearGradient><filter id="drop-shadow-1" filterUnits="userSpaceOnUse"><feOffset dx="-4.67" dy="3.89"/><feGaussianBlur result="blur" stdDeviation="5.45"/><feFlood flood-color="#6b6864" flood-opacity=".5"/><feComposite in2="blur" operator="in"/><feComposite in="SourceGraphic"/></filter><linearGradient id="Degradado_sin_nombre_11-2" x1="575.01" y1="497.85" x2="608" y2="497.85" xlink:href="#Degradado_sin_nombre_11"/><filter id="drop-shadow-2" filterUnits="userSpaceOnUse"><feOffset dx="-4.67" dy="3.89"/><feGaussianBlur result="blur-2" stdDeviation="5.45"/><feFlood flood-color="#6b6864" flood-opacity=".5"/><feComposite in2="blur-2" operator="in"/><feComposite in="SourceGraphic"/></filter><linearGradient id="Degradado_sin_nombre_11-3" x1="354.95" y1="496.04" x2="388.52" y2="496.04" xlink:href="#Degradado_sin_nombre_11"/><filter id="drop-shadow-3" filterUnits="userSpaceOnUse"><feOffset dx="-4.67" dy="3.89"/><feGaussianBlur result="blur-3" stdDeviation="5.45"/><feFlood flood-color="#6b6864" flood-opacity=".5"/><feComposite in2="blur-3" operator="in"/><feComposite in="SourceGraphic"/></filter><linearGradient id="Degradado_sin_nombre_13" x1="519.31" y1="256.47" x2="528.05" y2="219.46" gradientTransform="translate(27.47 -17.8) rotate(3)" gradientUnits="userSpaceOnUse"><stop offset="0" stop-color="#b7b7b7"/><stop offset=".15" stop-color="#c3c3c3"/><stop offset=".71" stop-color="#eee"/><stop offset="1" stop-color="#fff"/></linearGradient><filter id="drop-shadow-4" filterUnits="userSpaceOnUse"><feOffset dx="-4.67" dy="3.89"/><feGaussianBlur result="blur-4" stdDeviation="5.45"/><feFlood flood-color="#6b6864" flood-opacity=".5"/><feComposite in2="blur-4" operator="in"/><feComposite in="SourceGraphic"/></filter><linearGradient id="Degradado_sin_nombre_11-4" x1="581.54" y1="293.19" x2="604.73" y2="262.16" xlink:href="#Degradado_sin_nombre_11"/><filter id="drop-shadow-5" filterUnits="userSpaceOnUse"><feOffset dx="-4.67" dy="3.89"/><feGaussianBlur result="blur-5" stdDeviation="5.45"/><feFlood flood-color="#6b6864" flood-opacity=".5"/><feComposite in2="blur-5" operator="in"/><feComposite in="SourceGraphic"/></filter><linearGradient id="Degradado_sin_nombre_12" x1="447.63" y1="252.86" x2="439.87" y2="222.55" gradientTransform="translate(27.47 -17.8) rotate(3)" gradientUnits="userSpaceOnUse"><stop offset="0" stop-color="#b7b7b7"/><stop offset="1" stop-color="#fff"/></linearGradient><filter id="drop-shadow-6" filterUnits="userSpaceOnUse"><feOffset dx="-4.67" dy="3.89"/><feGaussianBlur result="blur-6" stdDeviation="5.45"/><feFlood flood-color="#6b6864" flood-opacity=".5"/><feComposite in2="blur-6" operator="in"/><feComposite in="SourceGraphic"/></filter><linearGradient id="Degradado_sin_nombre_11-5" x1="623.85" y1="348.32" x2="648.36" y2="348.32" xlink:href="#Degradado_sin_nombre_11"/><filter id="drop-shadow-7" filterUnits="userSpaceOnUse"><feOffset dx="-4.67" dy="3.89"/><feGaussianBlur result="blur-7" stdDeviation="5.45"/><feFlood flood-color="#6b6864" flood-opacity=".5"/><feComposite in2="blur-7" operator="in"/><feComposite in="SourceGraphic"/></filter><linearGradient id="Degradado_sin_nombre_11-6" x1="418.8" y1="540.66" x2="464" y2="540.66" xlink:href="#Degradado_sin_nombre_11"/><filter id="drop-shadow-8" filterUnits="userSpaceOnUse"><feOffset dx="-4.67" dy="3.89"/><feGaussianBlur result="blur-8" stdDeviation="5.45"/><feFlood flood-color="#6b6864" flood-opacity=".5"/><feComposite in2="blur-8" operator="in"/><feComposite in="SourceGraphic"/></filter><linearGradient id="Degradado_sin_nombre_11-7" x1="498.35" y1="540.99" x2="543.75" y2="540.99" xlink:href="#Degradado_sin_nombre_11"/><filter id="drop-shadow-9" filterUnits="userSpaceOnUse"><feOffset dx="-4.67" dy="3.89"/><feGaussianBlur result="blur-9" stdDeviation="5.45"/><feFlood flood-color="#6b6864" flood-opacity=".5"/><feComposite in2="blur-9" operator="in"/><feComposite in="SourceGraphic"/></filter><linearGradient id="Degradado_sin_nombre_11-8" x1="317.88" y1="345.67" x2="344.54" y2="345.67" xlink:href="#Degradado_sin_nombre_11"/><filter id="drop-shadow-10" filterUnits="userSpaceOnUse"><feOffset dx="-4.67" dy="3.89"/><feGaussianBlur result="blur-10" stdDeviation="5.45"/><feFlood flood-color="#6b6864" flood-opacity=".5"/><feComposite in2="blur-10" operator="in"/><feComposite in="SourceGraphic"/></filter><linearGradient id="Degradado_sin_nombre_11-9" x1="357.19" y1="276.37" x2="389.12" y2="276.37" xlink:href="#Degradado_sin_nombre_11"/><filter id="drop-shadow-11" filterUnits="userSpaceOnUse"><feOffset dx="-4.67" dy="3.89"/><feGaussianBlur result="blur-11" stdDeviation="5.45"/><feFlood flood-color="#6b6864" flood-opacity=".5"/><feComposite in2="blur-11" operator="in"/><feComposite in="SourceGraphic"/></filter><linearGradient id="Degradado_sin_nombre_11-10" x1="316.87" y1="427.26" x2="343.05" y2="427.26" xlink:href="#Degradado_sin_nombre_11"/><filter id="drop-shadow-12" filterUnits="userSpaceOnUse"><feOffset dx="-4.67" dy="3.89"/><feGaussianBlur result="blur-12" stdDeviation="5.45"/><feFlood flood-color="#6b6864" flood-opacity=".5"/><feComposite in2="blur-12" operator="in"/><feComposite in="SourceGraphic"/></filter><linearGradient id="Degradado_sin_nombre_8" x1="605.46" y1="414.81" x2="644" y2="437.67" gradientTransform="translate(27.47 -17.8) rotate(3)" gradientUnits="userSpaceOnUse"><stop offset="0" stop-color="#dfdfdf"/><stop offset="1" stop-color="#fff"/></linearGradient><linearGradient id="Degradado_sin_nombre_8-2" x1="573.66" y1="499.2" x2="606.65" y2="499.2" xlink:href="#Degradado_sin_nombre_8"/><linearGradient id="Degradado_sin_nombre_8-3" x1="353.6" y1="497.39" x2="387.16" y2="497.39" xlink:href="#Degradado_sin_nombre_8"/><linearGradient id="Degradado_sin_nombre_10" x1="517.96" y1="257.83" x2="526.7" y2="220.81" gradientTransform="translate(27.47 -17.8) rotate(3)" gradientUnits="userSpaceOnUse"><stop offset="0" stop-color="#c1c1c1"/><stop offset=".04" stop-color="#c3c3c3"/><stop offset=".68" stop-color="#eee"/><stop offset="1" stop-color="#fff"/></linearGradient><linearGradient id="Degradado_sin_nombre_8-4" x1="580.18" y1="294.54" x2="603.38" y2="263.52" xlink:href="#Degradado_sin_nombre_8"/><linearGradient id="Degradado_sin_nombre_9" x1="446.27" y1="254.22" x2="438.52" y2="223.9" gradientTransform="translate(27.47 -17.8) rotate(3)" gradientUnits="userSpaceOnUse"><stop offset="0" stop-color="#c1c1c1"/><stop offset="1" stop-color="#fff"/></linearGradient><linearGradient id="Degradado_sin_nombre_8-5" x1="622.5" y1="349.67" x2="647" y2="349.67" xlink:href="#Degradado_sin_nombre_8"/><linearGradient id="Degradado_sin_nombre_8-6" x1="417.45" y1="542.01" x2="462.64" y2="542.01" xlink:href="#Degradado_sin_nombre_8"/><linearGradient id="Degradado_sin_nombre_8-7" x1="496.99" y1="542.35" x2="542.39" y2="542.35" xlink:href="#Degradado_sin_nombre_8"/><linearGradient id="Degradado_sin_nombre_8-8" x1="316.53" y1="347.02" x2="343.19" y2="347.02" xlink:href="#Degradado_sin_nombre_8"/><linearGradient id="Degradado_sin_nombre_8-9" x1="355.84" y1="277.72" x2="387.77" y2="277.72" xlink:href="#Degradado_sin_nombre_8"/><linearGradient id="Degradado_sin_nombre_8-10" x1="315.52" y1="428.61" x2="341.69" y2="428.61" xlink:href="#Degradado_sin_nombre_8"/><linearGradient id="Degradado_sin_nombre_252" x1="418.77" y1="493.87" x2="570.31" y2="277.13" gradientUnits="userSpaceOnUse"><stop offset="0" stop-color="#fff"/><stop offset="1" stop-color="#dfdfdf"/></linearGradient><filter id="drop-shadow-13" filterUnits="userSpaceOnUse"><feOffset dx="-4.67" dy="3.89"/><feGaussianBlur result="blur-13" stdDeviation="5.45"/><feFlood flood-color="#75716d" flood-opacity=".5"/><feComposite in2="blur-13" operator="in"/><feComposite in="SourceGraphic"/></filter><linearGradient id="Degradado_sin_nombre_257" x1="411.53" y1="488.5" x2="562.6" y2="272.42" gradientTransform="translate(27.47 -17.8) rotate(3)" gradientUnits="userSpaceOnUse"><stop offset="0" stop-color="#dfdfdf"/><stop offset=".22" stop-color="#e9e9e9"/><stop offset=".66" stop-color="#f9f9f9"/><stop offset="1" stop-color="#fff"/></linearGradient><pattern id="Unnamed_Pattern-3" patternTransform="translate(-5155.15 -5900.8) scale(.31)" xlink:href="#Unnamed_Pattern"/><radialGradient id="Degradado_sin_nombre_250" cx="488.97" cy="394.1" fx="488.97" fy="394.1" r="23.19" gradientTransform="translate(665.95 -208.47) rotate(67.5)" gradientUnits="userSpaceOnUse"><stop offset="0" stop-color="#fff" stop-opacity="0"/><stop offset=".3" stop-color="#fff" stop-opacity="0"/><stop offset=".42" stop-color="#f0f0f0" stop-opacity=".14"/><stop offset=".68" stop-color="#cacaca" stop-opacity=".49"/><stop offset="1" stop-color="#959595"/></radialGradient></defs><g class="cls-22"><g id="Background"><g><g><path class="cls-25" d="M475.63,337.73s.02,.03,.03,.04c2.36-9.18,5.99-18.5,10.86-27.6,0-.02-.01-.03-.02-.05-.75-1.73-1.58-3.47-2.46-5.19-5.91-11.6-13.43-21.8-21.77-30-4.27,10.92-7.01,23.32-7.69,36.37-.1,1.84-.15,3.69-.16,5.52,8.19,6.37,15.32,13.46,21.21,20.93Z"/><g><path class="cls-50" d="M540.44,314.79s0,.01,0,.02c13.68-6.82,27.82-11.04,41.27-12.62,2.23-15.75,.08-30.24-6.82-40.5-12.15-2.12-26.21,1.76-39.67,10.16,0,0,0,0,0,0,4.01,12.96,5.93,27.63,5.22,42.94Z"/><path class="cls-18" d="M540.44,314.79s0,.01,0,.02c13.68-6.82,27.82-11.04,41.27-12.62,2.23-15.75,.08-30.24-6.82-40.5-12.15-2.12-26.21,1.76-39.67,10.16,0,0,0,0,0,0,4.01,12.96,5.93,27.63,5.22,42.94Z"/></g><path class="cls-15" d="M457.32,410.9s0,0,0,0c-2.45,.09-4.94,.07-7.46-.06-1.79-.09-3.61-.23-5.44-.46-7.32,4.66-14.44,10.65-20.97,17.75,0,0,0,0,0,0,9.54-1.09,18.55-3.3,26.62-6.44,2.22-3.87,4.64-7.48,7.25-10.79Z"/><path class="cls-25" d="M431.29,466.44c1.65-.84,3.26-1.72,4.85-2.62,1.43-10.27,4-19.98,7.52-28.81-9.13,2.53-19.04,4.06-29.38,4.4-1.1,1.54-2.18,3.1-3.23,4.71-7.08,10.91-12.13,22.51-15.09,33.82,11.59-1.76,23.69-5.57,35.32-11.49Z"/><path class="cls-37" d="M367.06,421.04s0,0,0,0c10.92,4.27,23.32,7.01,36.37,7.69,1.84,.1,3.69,.15,5.51,.16,6.37-8.18,13.46-15.31,20.93-21.21-9.19-2.35-18.51-5.99-27.61-10.87,0,0,0,0,0,0-1.74,.78-3.47,1.59-5.19,2.47-11.6,5.91-21.79,13.44-30.01,21.76Z"/><g class="cls-7"><path class="cls-13" d="M367.06,421.04s0,0,0,0c10.92,4.27,23.32,7.01,36.37,7.69,1.84,.1,3.69,.15,5.51,.16,6.37-8.18,13.46-15.31,20.93-21.21-9.19-2.35-18.51-5.99-27.61-10.87,0,0,0,0,0,0-1.74,.78-3.47,1.59-5.19,2.47-11.6,5.91-21.79,13.44-30.01,21.76Z"/></g><path class="cls-25" d="M398.16,382.13c1.55,1.01,3.13,1.99,4.71,2.91,.01,0,.02,.01,.04,.02,9.61-3.89,19.29-6.52,28.7-7.89-.01-.01-.02-.02-.03-.03-6.79-6.63-13.07-14.44-18.51-23.25-1.88-.19-3.79-.33-5.7-.43-13-.68-25.6,.73-36.86,3.84,7.31,9.17,16.71,17.72,27.65,24.83Z"/><path class="cls-15" d="M446.35,376.02s.02,.02,.03,.03c4.44-.01,8.75,.28,12.9,.89,0,0,0-.01-.01-.02-2.24-3.55-4.24-7.38-6.03-11.46-7.69-4.01-16.42-7.18-25.8-9.25,5.72,7.74,12.15,14.44,18.91,19.81Z"/><path class="cls-37" d="M439.21,318.91c-10.92-7.09-22.53-12.14-33.84-15.09,1.75,11.58,5.59,23.7,11.52,35.32,.84,1.65,1.7,3.26,2.61,4.85t.02,0c10.25,1.44,19.98,4.02,28.8,7.54-2.54-9.14-4.07-19.06-4.41-29.4-1.53-1.11-3.1-2.19-4.7-3.22Z"/><path class="cls-6" d="M439.21,318.91c-10.92-7.09-22.53-12.14-33.84-15.09,1.75,11.58,5.59,23.7,11.52,35.32,.84,1.65,1.7,3.26,2.61,4.85t.02,0c10.25,1.44,19.98,4.02,28.8,7.54-2.54-9.14-4.07-19.06-4.41-29.4-1.53-1.11-3.1-2.19-4.7-3.22Z"/><path class="cls-15" d="M491.46,441.17c-2.22-3.83-4.12-7.71-5.68-11.6-1.96,3.68-4.25,7.32-6.86,10.87,.37,8.68,1.97,17.85,4.86,27.06,3.84-8.83,6.39-17.75,7.69-26.33Z"/><path class="cls-15" d="M529.13,415.14c-1.74,0-3.47-.02-5.17-.11-2.66-.14-5.25-.44-7.79-.81,2.23,3.56,4.24,7.4,6.03,11.47,7.69,4.01,16.44,7.18,25.85,9.28-5.72-7.73-12.15-14.43-18.91-19.83Z"/><path class="cls-37" d="M474.28,485.16c1.02-1.58,1.98-3.17,2.92-4.78-3.89-9.6-6.52-19.27-7.88-28.67-6.65,6.79-14.48,13.07-23.28,18.53-.19,1.89-.34,3.79-.44,5.7-.68,12.99,.74,25.58,3.83,36.86,9.16-7.32,17.74-16.7,24.85-27.64Z"/><path class="cls-4" d="M474.28,485.16c1.02-1.58,1.98-3.17,2.92-4.78-3.89-9.6-6.52-19.27-7.88-28.67-6.65,6.79-14.48,13.07-23.28,18.53-.19,1.89-.34,3.79-.44,5.7-.68,12.99,.74,25.58,3.83,36.86,9.16-7.32,17.74-16.7,24.85-27.64Z"/><path class="cls-37" d="M536.26,472.25c10.91,7.08,22.51,12.12,33.82,15.09-1.76-11.59-5.57-23.69-11.49-35.32-.84-1.65-1.72-3.26-2.63-4.86-10.27-1.43-19.97-4-28.81-7.52,2.55,9.14,4.06,19.04,4.39,29.37,1.54,1.11,3.11,2.19,4.72,3.23Z"/><g class="cls-7"><path class="cls-53" d="M536.26,472.25c10.91,7.08,22.51,12.12,33.82,15.09-1.76-11.59-5.57-23.69-11.49-35.32-.84-1.65-1.72-3.26-2.63-4.86-10.27-1.43-19.97-4-28.81-7.52,2.55,9.14,4.06,19.04,4.39,29.37,1.54,1.11,3.11,2.19,4.72,3.23Z"/></g><path class="cls-39" d="M484.04,304.92c-5.91-11.6-13.43-21.8-21.77-30-4.27,10.92-7.01,23.32-7.69,36.37-.1,1.84-.15,3.69-.16,5.52,8.19,6.37,15.32,13.46,21.21,20.93,0,.01,.02,.03,.03,.04,2.36-9.18,5.99-18.5,10.86-27.6,0-.02-.01-.03-.02-.05-.75-1.73-1.58-3.47-2.46-5.19Z"/><path class="cls-25" d="M513.17,516.24c4.28-10.92,7.02-23.33,7.7-36.36,.1-1.85,.14-3.69,.15-5.52-8.2-6.38-15.33-13.48-21.23-20.96-2.36,9.18-5.99,18.5-10.86,27.61,.79,1.75,1.61,3.5,2.49,5.23,5.91,11.59,13.43,21.78,21.75,30Z"/><path class="cls-37" d="M578.38,391.89c11.59-5.91,21.78-13.43,30.01-21.75-10.92-4.28-23.33-7.02-36.36-7.7-1.87-.1-3.72-.14-5.57-.15-6.38,8.19-13.46,15.33-20.94,21.22,9.19,2.36,18.52,5.99,27.63,10.87,1.75-.79,3.5-1.61,5.23-2.49Z"/><path class="cls-5" d="M578.38,391.89c11.59-5.91,21.78-13.43,30.01-21.75-10.92-4.28-23.33-7.02-36.36-7.7-1.87-.1-3.72-.14-5.57-.15-6.38,8.19-13.46,15.33-20.94,21.22,9.19,2.36,18.52,5.99,27.63,10.87,1.75-.79,3.5-1.61,5.23-2.49Z"/><path class="cls-50" d="M469.04,424.04c-3.55,2.24-7.38,4.24-11.43,6.03,0,0,0,0,0,0-4,7.69-7.17,16.43-9.27,25.83,7.74-5.73,14.45-12.17,19.86-18.94-.01-4.45,.28-8.78,.89-12.94-.01,0-.03,.02-.04,.03Z"/><path class="cls-50" d="M472.93,352.25c-4.66-7.31-10.65-14.43-17.75-20.94,1.09,9.55,3.3,18.56,6.44,26.63,3.87,2.21,7.49,4.62,10.78,7.26,.01,.01,.03,.02,.04,.04-.15-4.19,.02-8.51,.51-12.93-.01-.02-.02-.03-.03-.05Z"/><path class="cls-50" d="M517.83,361.12s0-.01,.01-.02c4.01-7.69,7.18-16.42,9.25-25.8,0,0,0,0,0-.01-7.72,5.71-14.41,12.14-19.82,18.89,0,0,0,.02,0,.03,.02,1.74-.03,3.46-.12,5.17-.14,2.63-.38,5.21-.76,7.75,3.55-2.22,7.37-4.22,11.42-6Z"/><path class="cls-50" d="M520.27,459.85c-1.09-9.55-3.3-18.57-6.46-26.63-3.88-2.22-7.49-4.65-10.81-7.27,.15,4.18-.02,8.49-.51,12.89,4.66,7.33,10.67,14.47,17.77,21Z"/><path class="cls-25" d="M544.16,324.73c-1.65,.84-3.25,1.72-4.84,2.62v.02c-1.44,10.25-4.02,19.98-7.54,28.8,9.14-2.55,19.05-4.07,29.38-4.4,1.11-1.54,2.19-3.11,3.23-4.71,7.08-10.91,12.12-22.51,15.09-33.82-11.59,1.76-23.69,5.57-35.32,11.49Z"/><path class="cls-37" d="M501.17,306.01c-1.02,1.57-1.97,3.15-2.9,4.74,3.9,9.6,6.53,19.28,7.89,28.68,6.64-6.78,14.47-13.05,23.25-18.5,.19-1.88,.33-3.79,.43-5.7,.68-12.99-.73-25.59-3.84-36.85-9.16,7.32-17.73,16.69-24.84,27.63Z"/><g class="cls-7"><path class="cls-28" d="M501.17,306.01c-1.02,1.57-1.97,3.15-2.9,4.74,3.9,9.6,6.53,19.28,7.89,28.68,6.64-6.78,14.47-13.05,23.25-18.5,.19-1.88,.33-3.79,.43-5.7,.68-12.99-.73-25.59-3.84-36.85-9.16,7.32-17.73,16.69-24.84,27.63Z"/></g><path class="cls-15" d="M518.14,380.26s-.02,.03-.04,.04c4.18-.15,8.48,.02,12.87,.51,7.34-4.66,14.48-10.66,21.02-17.77-9.55,1.09-18.57,3.3-26.63,6.46-2.2,3.86-4.61,7.47-7.22,10.76Z"/><path class="cls-25" d="M577.3,409.03c-1.56-1.01-3.14-1.96-4.73-2.89-9.6,3.89-19.28,6.51-28.69,7.88,6.78,6.64,13.04,14.46,18.5,23.25,1.89,.19,3.79,.34,5.7,.44,12.99,.68,25.58-.74,36.86-3.83-7.32-9.16-16.7-17.74-27.64-24.85Z"/><path class="cls-15" d="M491.68,323.67c-3.84,8.83-6.39,17.76-7.69,26.34,2.23,3.82,4.14,7.7,5.69,11.57,1.96-3.68,4.26-7.32,6.87-10.87,0,0,0-.01,0-.02-.36-8.65-1.97-17.8-4.86-27,0,0,0-.01,0-.02Z"/><path class="cls-50" d="M559.64,399.54c-8.85-3.84-17.79-6.4-26.38-7.69-3.82,2.22-7.69,4.13-11.57,5.67,3.69,1.96,7.33,4.26,10.89,6.88,8.68-.37,17.85-1.97,27.06-4.86Z"/><path class="cls-50" d="M442.83,386.77c-8.66,.37-17.81,1.97-27,4.85,8.8,3.85,17.72,6.43,26.26,7.71,0,0,0,0,0,0,3.85-2.24,7.74-4.14,11.64-5.7,0,0-.01,0-.02,0-3.68-1.93-7.34-4.23-10.89-6.85Z"/><path class="cls-15" d="M401.67,439.19c-15.27-.91-29.62-4.37-42.06-9.71-9.8,12.53-15.16,26.15-14.32,38.49,9.46,7.92,23.6,11.56,39.45,11.01,3-13.24,8.7-26.88,16.95-39.79,0,0-.02,0-.02,0Z"/><path class="cls-50" d="M435.01,476.38c-13.68,6.82-27.81,11.01-41.26,12.59-2.23,15.76-.09,30.24,6.81,40.51,12.15,2.13,26.22-1.76,39.68-10.16-4.03-12.97-5.93-27.63-5.24-42.94Z"/><path class="cls-15" d="M482.47,491.89c-8.44,12.76-18.6,23.45-29.47,31.55,5.95,14.78,15.07,26.24,26.19,31.69,11.6-4.24,21.85-14.66,29.3-28.68-9.97-9.22-18.96-20.94-26.02-34.55Z"/><path class="cls-50" d="M356.82,416.34c9.22-9.97,20.97-18.95,34.58-26.01,0,0,0,0,0,0-12.77-8.44-23.47-18.58-31.55-29.46-14.78,5.94-26.22,15.07-31.67,26.19,4.24,11.58,14.64,21.83,28.64,29.28Z"/><g><path class="cls-15" d="M568.51,448.3c6.82,13.68,11.04,27.81,12.62,41.26,15.75,2.22,30.24,.08,40.5-6.81,2.12-12.16-1.76-26.22-10.17-39.68-12.97,4.03-27.64,5.93-42.96,5.24Z"/><path class="cls-26" d="M568.51,448.3c6.82,13.68,11.04,27.81,12.62,41.26,15.75,2.22,30.24,.08,40.5-6.81,2.12-12.16-1.76-26.22-10.17-39.68-12.97,4.03-27.64,5.93-42.96,5.24Z"/></g><g><path class="cls-50" d="M531.34,481.64c-.93,15.26-4.36,29.61-9.72,42.05,12.53,9.8,26.15,15.16,38.49,14.33,7.92-9.47,11.56-23.61,11.01-39.46-13.23-3-26.87-8.67-39.78-16.92Z"/><path class="cls-18" d="M531.34,481.64c-.93,15.26-4.36,29.61-9.72,42.05,12.53,9.8,26.15,15.16,38.49,14.33,7.92-9.47,11.56-23.61,11.01-39.46-13.23-3-26.87-8.67-39.78-16.92Z"/></g><g><path class="cls-15" d="M615.84,361.69c9.8-12.53,15.16-26.15,14.32-38.49-9.46-7.91-23.6-11.56-39.45-11.01-3,13.23-8.7,26.87-16.94,39.77,15.27,.93,29.63,4.36,42.08,9.73Z"/><g class="cls-3"><path class="cls-2" d="M615.84,361.69c9.8-12.53,15.16-26.15,14.32-38.49-9.46-7.91-23.6-11.56-39.45-11.01-3,13.23-8.7,26.87-16.94,39.77,15.27,.93,29.63,4.36,42.08,9.73Z"/></g></g><g><path class="cls-50" d="M615.62,430.29c14.76-5.95,26.21-15.07,31.65-26.18-4.24-11.59-14.64-21.83-28.64-29.28-9.21,9.97-20.96,18.95-34.57,26.01,12.75,8.44,23.46,18.59,31.56,29.45Z"/><g class="cls-17"><path class="cls-41" d="M615.62,430.29c14.76-5.95,26.21-15.07,31.65-26.18-4.24-11.59-14.64-21.83-28.64-29.28-9.21,9.97-20.96,18.95-34.57,26.01,12.75,8.44,23.46,18.59,31.56,29.45Z"/></g></g><path class="cls-15" d="M406.93,342.87c-6.84-13.68-11.03-27.83-12.61-41.28-15.76-2.26-30.23-.06-40.49,6.82-2.13,12.15,1.75,26.23,10.17,39.68,12.96-4.01,27.63-5.93,42.94-5.22Z"/><g><path class="cls-15" d="M492.99,299.24c8.44-12.75,18.59-23.47,29.45-31.56-5.94-14.77-15.07-26.2-26.19-31.65-11.58,4.24-21.84,14.64-29.29,28.65,9.97,9.22,18.96,20.96,26.02,34.56Z"/><path class="cls-26" d="M492.99,299.24c8.44-12.75,18.59-23.47,29.45-31.56-5.94-14.77-15.07-26.2-26.19-31.65-11.58,4.24-21.84,14.64-29.29,28.65,9.97,9.22,18.96,20.96,26.02,34.56Z"/></g><g><path class="cls-50" d="M444.12,309.53c.91-15.25,4.35-29.61,9.71-42.05-10.98-8.61-22.82-13.77-33.86-14.34-1.56-.08-3.1-.07-4.62,.02-7.91,9.45-11.6,23.59-11.03,39.45,13.25,3.01,26.89,8.67,39.8,16.92Z"/><g class="cls-17"><path class="cls-8" d="M444.12,309.53c.91-15.25,4.35-29.61,9.71-42.05-10.98-8.61-22.82-13.77-33.86-14.34-1.56-.08-3.1-.07-4.62,.02-7.91,9.45-11.6,23.59-11.03,39.45,13.25,3.01,26.89,8.67,39.8,16.92Z"/></g></g></g><g><g><path class="cls-31" d="M643.92,421.86c-2.71,2.17-5.76,4.08-8.9,5.83,3.13,5.83,5.05,11.81,5.52,17.7-3.61,4.06-8.25,7.43-13.64,10.08,1.42,3.31,2.66,6.69,3.51,10.05,7.91-3.74,14.64-8.75,19.65-15.02l1.2-1.5-.05-1.92c-.21-8.5-2.77-17.04-7.28-25.21Z"/><path class="cls-36" d="M609.23,494.01c-3.54,.21-7,.6-10.44,.93-.07,7.08-1.39,13.64-4.09,19.31-5.59,1.84-11.81,2.39-18.36,1.78-.05,.34-.08,.68-.13,1.02-.46,3.05-.82,6.3-1.46,9.44,6.07,.61,11.96,.44,17.52-.68,2.8-.56,5.51-1.36,8.12-2.38l1.79-.7,.92-1.69c4.29-7.88,6.31-17.12,6.28-27.04-.05,0-.09,0-.14,0Z"/><path class="cls-12" d="M387.49,508.91c-.34-1.64-.62-3.33-.85-5.03-6.36-.27-12.27-1.57-17.43-4.04-1.62-4.89-2.24-10.26-1.96-15.91-3.5-1.26-6.97-2.77-10.28-4.57-1,9.32-.05,18.22,3.06,26.17l.7,1.79,1.69,.92c7.66,4.17,16.6,6.21,26.21,6.3-.42-2-.78-3.92-1.13-5.63Z"/><path class="cls-42" d="M522.35,248.54c5.9-3.19,11.94-5.15,17.9-5.62,3.83,3.41,7.04,7.74,9.62,12.75,3.43-1.26,6.99-2.16,10.5-2.62-3.72-7.92-8.74-14.63-15.01-19.64l-1.5-1.2-1.92,.05c-8.75,.21-17.54,2.93-25.93,7.68,2.33,2.58,4.44,5.52,6.35,8.61Z"/><path class="cls-51" d="M588.81,274.97c.81,3.21,1.31,6.45,1.55,9.7,6.86,.13,13.22,1.46,18.73,4.08,1.69,5.09,2.3,10.71,1.94,16.63,1.59,.23,3.17,.48,4.7,.76,1.88,.34,3.83,.77,5.76,1.3,.7-8.67-.3-16.95-3.22-24.38l-.7-1.79-1.69-.92c-7.95-4.33-17.28-6.35-27.3-6.28,.08,.3,.16,.59,.23,.89Z"/><path class="cls-40" d="M444.88,251.67c3.53-5.81,7.84-10.6,12.82-14.02,5.18,1.07,10.27,3.3,15.15,6.49,2.4-2.78,5.07-5.3,7.96-7.38-7.36-5.22-15.27-8.67-23.43-9.91l-1.92-.29-1.64,1c-7.48,4.57-13.75,11.32-18.64,19.65,3.34,1.18,6.57,2.74,9.69,4.45Z"/><path class="cls-11" d="M655.88,358.99c-4.45-7.28-10.97-13.42-19-18.25-.25,.74-.51,1.47-.77,2.18-.94,2.59-2.03,5.22-3.25,7.81,5.32,3.4,9.73,7.47,12.94,12.14-1.1,5.31-3.41,10.53-6.73,15.51,2.86,2.21,5.57,4.61,7.88,7.21,5.07-7.25,8.43-15.04,9.64-23.06l.29-1.9-1-1.64Z"/><path class="cls-20" d="M456.92,539.53c-6.2,3.51-12.58,5.66-18.87,6.15-3.79-3.38-6.97-7.65-9.54-12.6-3.01,.99-6.11,1.75-9.3,2.15-.44,.05-.89,.11-1.35,.17,3.73,7.98,8.77,14.75,15.09,19.79l1.5,1.2,1.92-.05c2.8-.07,5.61-.39,8.41-.96,5.98-1.21,11.91-3.55,17.65-6.83-1.93-2.96-3.75-5.98-5.51-9.03Z"/><path class="cls-38" d="M532.61,538.2c-3.38,5.23-7.4,9.58-12.02,12.75-5.47-1.13-10.84-3.56-15.97-7.05-2.52,2.62-5.19,5.14-7.94,7.38,7.58,5.54,15.79,9.19,24.24,10.46l1.9,.29,1.64-1c7.23-4.42,13.34-10.88,18.15-18.84-3.42-.99-6.78-2.36-10.01-3.99Z"/><path class="cls-34" d="M334.9,367.65c2.34-2.3,4.87-4.39,7.32-6.25,.32-.24,.65-.43,.97-.66-3.08-5.78-4.97-11.7-5.43-17.54,4.22-4.72,9.81-8.52,16.39-11.34-1.59-3.14-3.05-6.34-3.97-9.83-8.92,3.81-16.45,9.2-21.93,16.08l-1.2,1.5,.06,1.94c.21,8.82,2.96,17.68,7.79,26.12Z"/><path class="cls-48" d="M379.53,292.43c.21-6.61,1.54-12.74,4.08-18.07,1.45-.47,2.94-.86,4.47-1.17,4.02-.81,8.3-1.03,12.75-.72,.32-2.71,.69-5.42,1.2-8.1,.12-.65,.25-1.5,.43-2.42-8.73-.73-17.07,.27-24.55,3.21l-1.78,.72-.92,1.69c-4.13,7.58-6.19,16.4-6.33,25.89,3.55-.46,7.07-.92,10.64-1.04Z"/><path class="cls-46" d="M347.06,438.89c-6.05-3.59-11.03-8.01-14.56-13.15,1.02-4.9,3.08-9.74,6-14.38-2.78-2.42-5.32-5.09-7.41-7.97-4.92,7.15-8.18,14.81-9.38,22.69l-.29,1.9,1,1.64c4.84,7.93,12.15,14.5,21.17,19.5,.88-3.46,2.06-6.88,3.47-10.23Z"/></g><g><path class="cls-45" d="M642.5,423.15c-2.71,2.17-5.76,4.08-8.9,5.83,3.13,5.83,5.05,11.81,5.52,17.7-3.61,4.06-8.25,7.43-13.64,10.08,1.42,3.31,2.66,6.69,3.51,10.05,7.91-3.74,14.64-8.75,19.65-15.02l1.2-1.5-.05-1.92c-.21-8.5-2.77-17.04-7.28-25.21Z"/><path class="cls-23" d="M607.81,495.29c-3.54,.21-7,.6-10.44,.93-.07,7.08-1.39,13.64-4.09,19.31-5.59,1.84-11.81,2.39-18.36,1.78-.05,.34-.08,.68-.13,1.02-.46,3.05-.82,6.3-1.46,9.44,6.07,.61,11.96,.44,17.52-.68,2.8-.56,5.51-1.36,8.12-2.38l1.79-.7,.92-1.69c4.29-7.88,6.31-17.12,6.28-27.04-.05,0-.09,0-.14,0Z"/><path class="cls-30" d="M386.07,510.2c-.34-1.64-.62-3.33-.85-5.03-6.36-.27-12.27-1.57-17.43-4.04-1.62-4.89-2.24-10.26-1.96-15.91-3.5-1.26-6.97-2.77-10.28-4.57-1,9.32-.05,18.22,3.06,26.17l.7,1.79,1.69,.92c7.66,4.17,16.6,6.21,26.21,6.3-.42-2-.78-3.92-1.13-5.63Z"/><path class="cls-27" d="M520.93,249.82c5.9-3.19,11.94-5.15,17.9-5.62,3.83,3.41,7.04,7.74,9.62,12.75,3.43-1.26,6.99-2.16,10.5-2.62-3.72-7.92-8.74-14.63-15.01-19.64l-1.5-1.2-1.92,.05c-8.75,.21-17.54,2.93-25.93,7.68,2.33,2.58,4.44,5.52,6.35,8.61Z"/><path class="cls-43" d="M587.39,276.25c.81,3.21,1.31,6.45,1.55,9.7,6.86,.13,13.22,1.46,18.73,4.08,1.69,5.09,2.3,10.71,1.94,16.63,1.59,.23,3.17,.48,4.7,.76,1.88,.34,3.83,.77,5.76,1.3,.7-8.67-.3-16.95-3.22-24.38l-.7-1.79-1.69-.92c-7.95-4.33-17.28-6.35-27.3-6.27,.08,.3,.16,.59,.23,.89Z"/><path class="cls-44" d="M443.46,252.95c3.53-5.81,7.84-10.6,12.82-14.02,5.18,1.07,10.27,3.3,15.15,6.49,2.4-2.78,5.07-5.3,7.96-7.38-7.36-5.22-15.27-8.67-23.43-9.91l-1.92-.29-1.64,1c-7.48,4.57-13.75,11.32-18.64,19.65,3.34,1.18,6.57,2.74,9.69,4.45Z"/><path class="cls-21" d="M654.45,360.27c-4.45-7.28-10.97-13.42-19-18.25-.25,.74-.51,1.47-.77,2.18-.94,2.59-2.03,5.22-3.25,7.81,5.32,3.4,9.73,7.47,12.94,12.14-1.1,5.31-3.41,10.53-6.73,15.51,2.86,2.21,5.57,4.61,7.88,7.21,5.07-7.25,8.43-15.04,9.64-23.06l.29-1.9-1-1.64Z"/><path class="cls-33" d="M455.5,540.81c-6.2,3.51-12.58,5.66-18.87,6.15-3.79-3.38-6.97-7.65-9.54-12.6-3.01,.99-6.11,1.75-9.3,2.15-.44,.06-.89,.11-1.35,.17,3.73,7.98,8.77,14.75,15.09,19.79l1.5,1.2,1.92-.05c2.8-.07,5.61-.39,8.41-.96,5.98-1.21,11.91-3.55,17.65-6.83-1.93-2.96-3.75-5.98-5.51-9.03Z"/><path class="cls-24" d="M531.18,539.48c-3.38,5.23-7.4,9.58-12.02,12.75-5.47-1.13-10.84-3.56-15.97-7.05-2.52,2.62-5.19,5.14-7.94,7.38,7.58,5.54,15.79,9.19,24.24,10.46l1.9,.29,1.64-1c7.23-4.42,13.34-10.88,18.15-18.84-3.42-.99-6.78-2.36-10.01-3.99Z"/><path class="cls-19" d="M333.48,368.93c2.34-2.3,4.87-4.39,7.32-6.25,.32-.24,.65-.43,.97-.66-3.08-5.78-4.97-11.7-5.43-17.54,4.22-4.72,9.82-8.52,16.39-11.34-1.59-3.14-3.05-6.34-3.97-9.83-8.92,3.81-16.45,9.2-21.93,16.08l-1.2,1.5,.06,1.94c.21,8.82,2.96,17.68,7.79,26.12Z"/><path class="cls-14" d="M378.1,293.71c.21-6.61,1.54-12.74,4.08-18.07,1.45-.47,2.94-.86,4.47-1.17,4.02-.81,8.3-1.03,12.75-.72,.32-2.71,.69-5.42,1.2-8.1,.12-.65,.25-1.5,.43-2.42-8.73-.73-17.07,.27-24.55,3.21l-1.78,.72-.92,1.69c-4.13,7.58-6.19,16.4-6.33,25.89,3.55-.46,7.07-.92,10.64-1.04Z"/><path class="cls-49" d="M345.64,440.18c-6.05-3.59-11.03-8.01-14.56-13.15,1.02-4.9,3.08-9.74,6-14.38-2.78-2.42-5.32-5.09-7.41-7.97-4.92,7.15-8.18,14.81-9.38,22.69l-.29,1.9,1,1.64c4.84,7.93,12.15,14.5,21.17,19.5,.88-3.46,2.06-6.88,3.47-10.23Z"/></g><g><path class="cls-39" d="M517.83,361.12s0-.01,.01-.02c4.01-7.69,7.18-16.42,9.25-25.8,0,0,0,0,0-.01-7.72,5.71-14.41,12.14-19.82,18.89,0,0,0,.02,0,.03,.02,1.74-.03,3.46-.12,5.17-.14,2.63-.38,5.21-.76,7.75,3.55-2.22,7.37-4.22,11.42-6Z"/><path class="cls-39" d="M431.29,466.44c1.65-.84,3.26-1.72,4.85-2.62,1.43-10.27,4-19.98,7.52-28.81-9.13,2.53-19.04,4.06-29.38,4.4-1.1,1.54-2.18,3.1-3.23,4.71-7.08,10.91-12.13,22.51-15.09,33.82,11.59-1.76,23.69-5.57,35.32-11.49Z"/><path class="cls-39" d="M496.55,350.71s0-.01,0-.02c-.36-8.65-1.97-17.8-4.86-27,0,0,0-.01,0-.02-3.84,8.83-6.39,17.76-7.69,26.34,2.23,3.82,4.14,7.7,5.69,11.57,1.96-3.68,4.26-7.32,6.87-10.87Z"/><path class="cls-39" d="M457.32,410.9s0,0,0,0c-2.45,.09-4.94,.07-7.46-.06-1.79-.09-3.61-.23-5.44-.46-7.32,4.66-14.44,10.65-20.97,17.75,0,0,0,0,0,0,9.54-1.09,18.55-3.3,26.62-6.44,2.22-3.87,4.64-7.48,7.25-10.79Z"/><path class="cls-39" d="M564.39,347.05c7.08-10.91,12.12-22.51,15.09-33.82-11.59,1.76-23.69,5.57-35.32,11.49-1.65,.84-3.25,1.72-4.84,2.62v.02c-1.44,10.25-4.02,19.98-7.54,28.8,9.14-2.55,19.05-4.07,29.38-4.4,1.11-1.54,2.19-3.11,3.23-4.71Z"/><path class="cls-39" d="M548.04,434.97c-5.72-7.73-12.15-14.43-18.91-19.83-1.74,0-3.47-.02-5.17-.11-2.66-.14-5.25-.44-7.79-.81,2.23,3.56,4.24,7.4,6.03,11.47,7.69,4.01,16.44,7.18,25.85,9.28Z"/><path class="cls-39" d="M532.58,404.39c8.68-.37,17.85-1.97,27.06-4.86-8.85-3.84-17.79-6.4-26.38-7.69-3.82,2.22-7.69,4.13-11.57,5.67,3.69,1.96,7.33,4.26,10.89,6.88Z"/><path class="cls-39" d="M518.14,380.26s-.02,.03-.04,.04c4.18-.15,8.48,.02,12.87,.51,7.34-4.66,14.48-10.66,21.02-17.77-9.55,1.09-18.57,3.3-26.63,6.46-2.2,3.86-4.61,7.47-7.22,10.76Z"/><path class="cls-39" d="M367.06,421.04s0,0,0,0c10.92,4.27,23.32,7.01,36.37,7.69,1.84,.1,3.69,.15,5.51,.16,6.37-8.18,13.46-15.31,20.93-21.21-9.19-2.35-18.51-5.99-27.61-10.87,0,0,0,0,0,0-1.74,.78-3.47,1.59-5.19,2.47-11.6,5.91-21.79,13.44-30.01,21.76Z"/><path class="cls-39" d="M536.26,472.25c10.91,7.08,22.51,12.12,33.82,15.09-1.76-11.59-5.57-23.69-11.49-35.32-.84-1.65-1.72-3.26-2.63-4.86-10.27-1.43-19.97-4-28.81-7.52,2.55,9.14,4.06,19.04,4.39,29.37,1.54,1.11,3.11,2.19,4.72,3.23Z"/><path class="cls-39" d="M520.27,459.85c-1.09-9.55-3.3-18.57-6.46-26.63-3.88-2.22-7.49-4.65-10.81-7.27,.15,4.18-.02,8.49-.51,12.89,4.66,7.33,10.67,14.47,17.77,21Z"/><path class="cls-39" d="M478.92,440.44c.37,8.68,1.97,17.85,4.86,27.06,3.84-8.83,6.39-17.75,7.69-26.33-2.22-3.83-4.12-7.71-5.68-11.6-1.96,3.68-4.25,7.32-6.86,10.87Z"/><path class="cls-39" d="M469.04,424.04c-3.55,2.24-7.38,4.24-11.43,6.03,0,0,0,0,0,0-4,7.69-7.17,16.43-9.27,25.83,7.74-5.73,14.45-12.17,19.86-18.94-.01-4.45,.28-8.78,.89-12.94-.01,0-.03,.02-.04,.03Z"/><path class="cls-39" d="M615.84,361.69c9.8-12.53,15.16-26.15,14.32-38.49-9.46-7.91-23.6-11.56-39.45-11.01-3,13.23-8.7,26.87-16.94,39.77,15.27,.93,29.63,4.36,42.08,9.73Z"/><path class="cls-39" d="M472.93,352.25c-4.66-7.31-10.65-14.43-17.75-20.94,1.09,9.55,3.3,18.56,6.45,26.63,3.87,2.21,7.49,4.62,10.78,7.26,.01,.01,.03,.02,.04,.04-.15-4.19,.02-8.51,.51-12.92-.01-.02-.02-.03-.03-.05Z"/><path class="cls-39" d="M439.21,318.91c-10.92-7.09-22.53-12.14-33.84-15.09,1.75,11.58,5.59,23.7,11.52,35.32,.84,1.65,1.7,3.26,2.61,4.85t.02,0c10.25,1.44,19.98,4.02,28.8,7.54-2.54-9.14-4.07-19.06-4.41-29.4-1.53-1.11-3.1-2.19-4.7-3.22Z"/><path class="cls-39" d="M398.16,382.13c1.55,1.01,3.13,1.99,4.71,2.91,.01,0,.02,.01,.04,.02,9.61-3.89,19.29-6.52,28.7-7.89-.01-.01-.02-.02-.03-.03-6.79-6.63-13.07-14.44-18.51-23.25-1.88-.19-3.79-.33-5.7-.43-13-.68-25.6,.73-36.86,3.84,7.31,9.17,16.71,17.72,27.65,24.83Z"/><path class="cls-39" d="M415.83,391.62c8.8,3.85,17.72,6.43,26.26,7.71,0,0,0,0,0,0,3.85-2.24,7.74-4.14,11.65-5.7,0,0-.01,0-.02,0-3.68-1.93-7.34-4.23-10.89-6.85-8.66,.37-17.81,1.97-27,4.85Z"/><path class="cls-39" d="M427.43,356.21c5.72,7.74,12.15,14.44,18.91,19.81,.01,0,.02,.02,.03,.03,4.44-.01,8.75,.28,12.9,.89,0,0,0-.01-.01-.02-2.24-3.55-4.24-7.38-6.03-11.46-7.69-4.01-16.42-7.18-25.8-9.25Z"/><path class="cls-39" d="M492.99,299.24c8.44-12.75,18.59-23.47,29.45-31.56-5.94-14.77-15.07-26.2-26.19-31.65-11.58,4.24-21.84,14.64-29.29,28.65,9.97,9.22,18.96,20.96,26.02,34.56Z"/><path class="cls-39" d="M531.34,481.64c-.93,15.26-4.36,29.61-9.72,42.05,12.53,9.8,26.15,15.16,38.49,14.33,7.92-9.47,11.56-23.61,11.01-39.46-13.23-3-26.87-8.67-39.78-16.92Z"/><path class="cls-39" d="M482.47,491.89c-8.44,12.76-18.6,23.45-29.47,31.55,5.95,14.78,15.07,26.24,26.19,31.69,11.6-4.24,21.85-14.66,29.3-28.68-9.97-9.22-18.96-20.94-26.02-34.55Z"/><path class="cls-39" d="M393.75,488.98c-2.23,15.76-.09,30.24,6.81,40.51,12.15,2.13,26.22-1.76,39.68-10.16-4.03-12.97-5.93-27.63-5.24-42.94-13.68,6.82-27.81,11.01-41.26,12.59Z"/><path class="cls-39" d="M474.28,485.16c1.02-1.58,1.98-3.17,2.92-4.78-3.89-9.6-6.52-19.27-7.88-28.67-6.65,6.79-14.48,13.07-23.28,18.53-.19,1.89-.34,3.79-.44,5.7-.68,12.99,.74,25.58,3.83,36.86,9.16-7.32,17.74-16.7,24.85-27.64Z"/><path class="cls-39" d="M499.8,453.4c-2.36,9.18-5.99,18.5-10.86,27.61,.79,1.75,1.61,3.5,2.49,5.23,5.91,11.59,13.43,21.78,21.75,30,4.28-10.92,7.02-23.33,7.7-36.36,.1-1.85,.14-3.69,.15-5.52-8.2-6.38-15.33-13.48-21.23-20.96Z"/><path class="cls-39" d="M568.51,448.3c6.82,13.68,11.04,27.81,12.62,41.26,15.75,2.22,30.24,.08,40.5-6.81,2.12-12.16-1.76-26.22-10.17-39.68-12.97,4.03-27.64,5.93-42.96,5.24Z"/><path class="cls-39" d="M577.3,409.03c-1.56-1.01-3.14-1.96-4.73-2.89-9.6,3.89-19.29,6.51-28.69,7.88,6.78,6.64,13.04,14.46,18.5,23.25,1.89,.19,3.79,.34,5.7,.44,12.99,.68,25.58-.74,36.86-3.83-7.32-9.16-16.7-17.74-27.64-24.85Z"/><path class="cls-39" d="M618.63,374.83c-9.21,9.97-20.96,18.95-34.57,26.01,12.75,8.44,23.46,18.59,31.56,29.45,14.76-5.95,26.21-15.07,31.65-26.18-4.24-11.59-14.64-21.83-28.64-29.28Z"/><path class="cls-39" d="M475.63,337.73s.02,.03,.03,.04c2.36-9.18,5.99-18.5,10.86-27.6,0-.02-.01-.03-.02-.05-.75-1.73-1.58-3.47-2.46-5.19-5.91-11.6-13.43-21.8-21.77-30-4.27,10.92-7.01,23.32-7.69,36.37-.1,1.84-.15,3.69-.16,5.52,8.19,6.37,15.32,13.46,21.21,20.93Z"/><path class="cls-39" d="M540.44,314.79s0,.01,0,.02c13.68-6.82,27.82-11.04,41.27-12.62,2.23-15.75,.08-30.24-6.82-40.5-12.15-2.12-26.21,1.76-39.67,10.16,0,0,0,0,0,0,4.01,12.96,5.93,27.63,5.22,42.94Z"/><path class="cls-39" d="M501.17,306.01c-1.02,1.57-1.97,3.15-2.9,4.74,3.9,9.6,6.53,19.28,7.89,28.68,6.64-6.78,14.47-13.05,23.25-18.5,.19-1.88,.33-3.79,.43-5.7,.68-12.99-.73-25.59-3.84-36.85-9.16,7.32-17.73,16.69-24.84,27.63Z"/><path class="cls-39" d="M608.39,370.14c-10.92-4.28-23.33-7.02-36.36-7.7-1.87-.1-3.72-.14-5.57-.15-6.38,8.19-13.46,15.33-20.94,21.22,9.19,2.36,18.52,5.99,27.63,10.87,1.75-.79,3.5-1.6,5.23-2.49,11.59-5.91,21.78-13.43,30.01-21.75Z"/><path class="cls-39" d="M391.4,390.32s0,0,0,0c-12.77-8.44-23.47-18.58-31.55-29.46-14.78,5.94-26.22,15.07-31.67,26.19,4.24,11.58,14.64,21.83,28.64,29.28,9.22-9.97,20.97-18.95,34.58-26.01Z"/><path class="cls-39" d="M444.12,309.53c.91-15.25,4.35-29.61,9.71-42.05-10.98-8.61-22.82-13.77-33.86-14.34-1.56-.08-3.1-.07-4.63,.02-7.91,9.45-11.6,23.59-11.03,39.45,13.25,3.01,26.89,8.67,39.8,16.92Z"/><path class="cls-39" d="M401.67,439.19c-15.27-.91-29.62-4.37-42.06-9.71-9.8,12.53-15.16,26.15-14.32,38.49,9.46,7.92,23.6,11.56,39.45,11.01,3-13.24,8.7-26.88,16.95-39.79,0,0-.02,0-.02,0Z"/><path class="cls-39" d="M406.93,342.87c-6.84-13.68-11.03-27.83-12.61-41.28-15.76-2.26-30.23-.06-40.49,6.82-2.13,12.15,1.75,26.23,10.17,39.68,12.96-4.01,27.63-5.93,42.94-5.22Z"/><path class="cls-47" d="M658.99,401.11c-4.46-14.58-16.23-27.27-32.43-36.37,11.15-14.93,16.77-31.35,14.9-46.52l-.23-1.91-1.41-1.31c-11.16-10.4-27.73-15.46-46.32-15.24,2.2-18.52-1.1-35.57-10.3-47.79l-1.16-1.54-1.87-.43c-14.86-3.43-31.73,.42-47.71,9.9-7.36-17.12-18.76-30.19-32.83-36.17l-1.79-.75-1.84,.56c-14.59,4.45-27.27,16.23-36.37,32.42-14.94-11.15-31.36-16.77-46.51-14.9l-1.91,.25-1.31,1.41c-10.4,11.15-15.52,27.68-15.3,46.27-18.49-2.2-35.53,1.14-47.72,10.34l-1.54,1.15-.43,1.89c-3.44,14.86,.41,31.73,9.9,47.7-17.12,7.36-30.2,18.79-36.18,32.85l-.75,1.77,.56,1.83c4.45,14.59,16.23,27.27,32.42,36.37,0,0,0,0,0,0-11.14,14.93-16.76,31.35-14.9,46.51l.23,1.91,1.41,1.31c9.93,9.26,24.13,14.33,40.24,15.17,2,.1,4.03,.13,6.07,.11-2.19,18.5,1.11,35.54,10.31,47.74l1.16,1.54,1.87,.43c2.73,.63,5.53,1.02,8.38,1.17,12.65,.66,26.28-3.37,39.32-11.1,7.36,17.13,18.77,30.23,32.85,36.2l1.77,.75,1.84-.56c14.59-4.46,27.29-16.25,36.39-32.46,12.19,9.1,25.36,14.55,38.04,15.22,2.85,.15,5.68,.06,8.46-.28l1.91-.23,1.31-1.41c10.4-11.15,15.46-27.7,15.24-46.28,2.08,.25,4.14,.44,6.18,.54,16.11,.84,30.76-2.72,41.61-10.89l1.54-1.16,.43-1.87c3.43-14.86-.42-31.73-9.9-47.71,17.12-7.36,30.2-18.77,36.17-32.84l.75-1.77-.56-1.84Zm-27.83-79.67c.84,12.34-4.52,25.96-14.32,38.49-12.45-5.36-26.8-8.8-42.08-9.73,8.25-12.91,13.95-26.54,16.94-39.77,15.85-.55,29.99,3.1,39.45,11.01Zm-127.16,102.76c3.32,2.62,6.93,5.04,10.81,7.27,3.15,8.06,5.37,17.08,6.46,26.63-7.11-6.53-13.11-13.67-17.77-21,.49-4.4,.66-8.71,.51-12.89Zm-11.54,15.21c-1.3,8.57-3.85,17.5-7.69,26.33-2.89-9.21-4.48-18.38-4.86-27.06,2.61-3.55,4.91-7.19,6.86-10.87,1.55,3.89,3.45,7.77,5.68,11.6Zm-23.27-4.21c-5.41,6.78-12.12,13.21-19.86,18.94,2.1-9.39,5.26-18.14,9.27-25.83,0,0,0,0,0,0,4.06-1.79,7.88-3.79,11.43-6.03,.01,0,.03-.02,.04-.03-.6,4.16-.9,8.49-.89,12.94Zm4.26-71.73s-.03-.02-.04-.04c-3.3-2.64-6.91-5.05-10.78-7.26-3.14-8.07-5.36-17.08-6.45-26.63,7.1,6.51,13.09,13.63,17.75,20.94,.01,.02,.02,.03,.03,.05-.49,4.41-.66,8.73-.51,12.92Zm-13.19,11.69s0,.01,.01,.02c-4.15-.6-8.46-.9-12.9-.89-.01,0-.02-.02-.03-.03-6.76-5.37-13.19-12.07-18.91-19.81,9.38,2.08,18.11,5.24,25.8,9.25,1.79,4.08,3.79,7.9,6.03,11.46Zm-5.54,16.71s.01,0,.02,0c-3.9,1.56-7.8,3.47-11.65,5.7,0,0,0,0,0,0-8.54-1.28-17.45-3.86-26.26-7.71,9.19-2.88,18.34-4.47,27-4.85,3.55,2.62,7.21,4.92,10.89,6.85Zm-34.22-49.63s-.02,.02-.02,0c-.91-1.59-1.77-3.2-2.61-4.85-5.93-11.63-9.77-23.74-11.52-35.32,11.32,2.95,22.92,8,33.84,15.09,1.6,1.03,3.17,2.1,4.7,3.22,.34,10.34,1.87,20.27,4.41,29.4-8.82-3.52-18.55-6.1-28.8-7.54Zm-6.44,9.9c5.44,8.81,11.72,16.62,18.51,23.25,.01,.01,.02,.02,.03,.03-9.41,1.37-19.09,3.99-28.7,7.89-.01,0-.02-.01-.04-.02-1.58-.92-3.16-1.9-4.71-2.91-10.94-7.11-20.34-15.66-27.65-24.83,11.26-3.11,23.86-4.52,36.86-3.84,1.91,.1,3.82,.24,5.7,.43Zm-10.81,42.92s0,0,0,0c9.1,4.88,18.42,8.52,27.61,10.87-7.47,5.9-14.56,13.02-20.93,21.21-1.83,0-3.67-.06-5.51-.16-13.04-.68-25.45-3.42-36.37-7.69,0,0,0,0,0,0,8.22-8.32,18.42-15.85,30.01-21.76,1.72-.88,3.45-1.68,5.19-2.47Zm8.81,47.3c1.04-1.61,2.12-3.17,3.23-4.71,10.33-.34,20.25-1.87,29.38-4.4-3.52,8.83-6.09,18.54-7.52,28.81-1.59,.9-3.2,1.78-4.85,2.62-11.62,5.92-23.73,9.74-35.32,11.49,2.96-11.31,8.01-22.91,15.09-33.82Zm12.39-15.98s0,0,0,0c6.52-7.09,13.65-13.09,20.97-17.75,1.83,.23,3.64,.37,5.44,.46,2.52,.13,5.01,.15,7.46,.06,0,0,0,0,0,0-2.61,3.31-5.03,6.92-7.25,10.79-8.07,3.14-17.07,5.36-26.62,6.44Zm60.54-78.13c1.3-8.58,3.85-17.5,7.69-26.34,0,0,0,.01,0,.02,2.89,9.2,4.5,18.36,4.86,27,0,0,0,.01,0,.02-2.61,3.55-4.91,7.19-6.87,10.87-1.55-3.88-3.46-7.75-5.69-11.57Zm23.29,4.2s0-.02,0-.03c5.4-6.76,12.1-13.18,19.82-18.89,0,0,0,0,0,.01-2.08,9.38-5.24,18.11-9.25,25.8,0,0,0,.01-.01,.02-4.05,1.78-7.87,3.78-11.42,6,.37-2.53,.62-5.11,.76-7.75,.09-1.71,.14-3.43,.12-5.17Zm44.71,8.84c-6.54,7.11-13.68,13.11-21.02,17.77-4.39-.48-8.69-.65-12.87-.51,.01-.01,.02-.03,.04-.04,2.61-3.29,5.02-6.9,7.22-10.76,8.06-3.15,17.08-5.37,26.63-6.46Zm-20.22-6.88c3.52-8.82,6.1-18.55,7.54-28.8v-.02c1.59-.9,3.2-1.78,4.84-2.62,11.62-5.92,23.73-9.73,35.32-11.49-2.96,11.31-8,22.91-15.09,33.82-1.04,1.61-2.13,3.17-3.23,4.71-10.33,.33-20.24,1.85-29.38,4.4Zm27.86,43.37c-9.21,2.89-18.38,4.48-27.06,4.86-3.56-2.62-7.2-4.92-10.89-6.88,3.88-1.55,7.75-3.46,11.57-5.67,8.59,1.29,17.53,3.85,26.38,7.69Zm-43.47,14.69c2.55,.37,5.13,.67,7.79,.81,1.7,.09,3.43,.11,5.17,.11,6.77,5.4,13.19,12.11,18.91,19.83-9.4-2.1-18.15-5.27-25.85-9.28-1.78-4.07-3.8-7.91-6.03-11.47Zm39.79,32.93c.9,1.59,1.78,3.21,2.63,4.86,5.92,11.62,9.74,23.73,11.49,35.32-11.31-2.96-22.91-8-33.82-15.09-1.61-1.04-3.18-2.13-4.72-3.23-.33-10.33-1.85-20.24-4.39-29.37,8.83,3.52,18.54,6.09,28.81,7.52Zm6.43-9.89c-5.45-8.78-11.72-16.6-18.5-23.25,9.4-1.37,19.09-3.99,28.69-7.88,1.59,.93,3.17,1.88,4.73,2.89,10.95,7.11,20.32,15.69,27.64,24.85-11.28,3.09-23.87,4.51-36.86,3.83-1.92-.1-3.82-.25-5.7-.44Zm10.77-42.89c-9.12-4.88-18.44-8.51-27.63-10.87,7.48-5.89,14.56-13.04,20.94-21.22,1.85,.01,3.7,.06,5.57,.15,13.03,.68,25.44,3.42,36.36,7.7-8.22,8.32-18.41,15.84-30.01,21.75-1.73,.88-3.48,1.7-5.23,2.49Zm1.73-132.7c6.9,10.26,9.04,24.75,6.82,40.5-13.45,1.58-27.59,5.8-41.27,12.62,0,0,0-.01,0-.02,.71-15.31-1.21-29.98-5.22-42.94,0,0,0,0,0,0,13.46-8.4,27.52-12.28,39.67-10.16Zm-45.04,53.54c-.1,1.91-.24,3.82-.43,5.7-8.79,5.45-16.61,11.73-23.25,18.5-1.36-9.4-4-19.08-7.89-28.68,.93-1.59,1.88-3.18,2.9-4.74,7.1-10.94,15.68-20.31,24.84-27.63,3.11,11.26,4.52,23.85,3.84,36.85Zm-33.59-79.19c11.12,5.45,20.25,16.88,26.19,31.65-10.86,8.09-21.01,18.81-29.45,31.56-7.06-13.6-16.04-25.34-26.02-34.56,7.45-14.01,17.7-24.42,29.28-28.65Zm-33.98,38.89c8.33,8.21,15.86,18.4,21.77,30,.88,1.72,1.71,3.46,2.46,5.19,0,.02,.01,.03,.02,.05-4.87,9.11-8.5,18.42-10.86,27.6-.01-.01-.02-.03-.03-.04-5.88-7.46-13.02-14.55-21.21-20.93,0-1.83,.06-3.67,.16-5.52,.68-13.04,3.42-25.45,7.69-36.37Zm-46.92-21.76c1.52-.1,3.07-.1,4.62-.02,11.04,.58,22.88,5.73,33.86,14.34-5.36,12.45-8.8,26.8-9.71,42.05-12.91-8.25-26.55-13.92-39.8-16.92-.58-15.86,3.11-30,11.03-39.45Zm-61.52,55.26c10.27-6.88,24.74-9.08,40.49-6.82,1.59,13.45,5.78,27.6,12.61,41.28-15.31-.71-29.98,1.21-42.94,5.22-8.41-13.45-12.3-27.53-10.17-39.68Zm-25.65,78.65c5.45-11.12,16.89-20.25,31.67-26.19,8.08,10.88,18.78,21.02,31.55,29.46,0,0,0,0,0,0-13.61,7.06-25.36,16.04-34.58,26.01-14.01-7.45-24.41-17.7-28.64-29.28Zm17.12,80.91c-.84-12.34,4.51-25.96,14.32-38.49,12.44,5.34,26.79,8.8,42.06,9.71,0,0,.02,0,.02,0-8.25,12.91-13.95,26.55-16.95,39.79-15.85,.55-29.99-3.1-39.45-11.01Zm55.27,61.52c-6.9-10.27-9.04-24.75-6.81-40.51,13.45-1.58,27.58-5.77,41.26-12.59-.69,15.31,1.21,29.97,5.24,42.94-13.46,8.41-27.53,12.29-39.68,10.16Zm45.03-53.54c.1-1.92,.25-3.81,.44-5.7,8.8-5.46,16.63-11.74,23.28-18.53,1.37,9.4,3.99,19.08,7.88,28.67-.94,1.6-1.9,3.2-2.92,4.78-7.11,10.95-15.69,20.32-24.85,27.64-3.09-11.28-4.51-23.87-3.83-36.86Zm33.59,79.19c-11.12-5.44-20.24-16.91-26.19-31.69,10.87-8.1,21.02-18.79,29.47-31.55,7.06,13.61,16.05,25.34,26.02,34.55-7.45,14.02-17.7,24.44-29.3,28.68Zm33.98-38.89c-8.32-8.22-15.84-18.41-21.75-30-.88-1.73-1.7-3.48-2.49-5.23,4.87-9.11,8.5-18.43,10.86-27.61,5.9,7.48,13.03,14.58,21.23,20.96-.01,1.83-.06,3.67-.15,5.52-.68,13.03-3.42,25.44-7.7,36.36Zm46.94,21.78c-12.34,.83-25.96-4.53-38.49-14.33,5.36-12.44,8.79-26.79,9.72-42.05,12.91,8.25,26.54,13.92,39.78,16.92,.55,15.86-3.09,30-11.01,39.46Zm61.52-55.27c-10.26,6.9-24.75,9.04-40.5,6.81-1.58-13.45-5.8-27.58-12.62-41.26,15.32,.69,29.99-1.21,42.96-5.24,8.4,13.46,12.29,27.53,10.17,39.68Zm-6.01-52.46c-8.1-10.86-18.81-21.01-31.56-29.45,13.6-7.06,25.35-16.03,34.57-26.01,14,7.45,24.4,17.69,28.64,29.28-5.44,11.11-16.89,20.23-31.65,26.18Z"/><path class="cls-10" d="M658,402.87c-4.46-14.58-16.23-27.27-32.43-36.37,11.15-14.93,16.77-31.35,14.9-46.52l-.23-1.91-1.41-1.31c-11.16-10.4-27.73-15.46-46.32-15.24,2.2-18.52-1.1-35.57-10.3-47.79l-1.16-1.54-1.87-.43c-14.86-3.43-31.73,.42-47.71,9.9-7.36-17.12-18.76-30.19-32.83-36.17l-1.79-.75-1.84,.56c-14.59,4.45-27.27,16.23-36.37,32.42-14.94-11.15-31.36-16.77-46.51-14.9l-1.91,.25-1.31,1.41c-10.4,11.15-15.52,27.68-15.3,46.27-18.49-2.2-35.53,1.14-47.72,10.34l-1.54,1.15-.43,1.89c-3.44,14.86,.41,31.73,9.9,47.7-17.12,7.36-30.2,18.79-36.18,32.85l-.75,1.77,.56,1.84c4.45,14.59,16.23,27.27,32.42,36.37,0,0,0,0,0,0-11.14,14.93-16.76,31.35-14.9,46.51l.23,1.91,1.41,1.31c9.93,9.26,24.13,14.33,40.24,15.17,2,.1,4.03,.13,6.07,.11-2.19,18.5,1.11,35.54,10.31,47.74l1.16,1.54,1.87,.43c2.73,.63,5.53,1.02,8.38,1.17,12.65,.66,26.28-3.37,39.32-11.1,7.36,17.13,18.77,30.23,32.85,36.2l1.77,.75,1.84-.56c14.59-4.46,27.29-16.25,36.39-32.46,12.19,9.1,25.36,14.55,38.04,15.22,2.85,.15,5.68,.06,8.46-.28l1.91-.23,1.31-1.41c10.4-11.15,15.46-27.7,15.24-46.28,2.08,.25,4.14,.44,6.18,.54,16.11,.84,30.76-2.72,41.61-10.89l1.54-1.16,.43-1.87c3.43-14.86-.42-31.73-9.9-47.71,17.12-7.36,30.2-18.77,36.17-32.84l.75-1.77-.56-1.84Zm-27.83-79.67c.84,12.34-4.52,25.96-14.32,38.49-12.45-5.36-26.8-8.8-42.08-9.73,8.25-12.91,13.95-26.54,16.94-39.77,15.85-.55,29.99,3.1,39.45,11.01Zm-127.16,102.76c3.32,2.62,6.93,5.05,10.81,7.27,3.15,8.06,5.37,17.08,6.46,26.63-7.11-6.53-13.11-13.67-17.77-21,.49-4.4,.66-8.71,.51-12.89Zm-11.54,15.21c-1.3,8.57-3.85,17.5-7.69,26.33-2.89-9.21-4.48-18.38-4.86-27.06,2.61-3.55,4.91-7.19,6.86-10.87,1.55,3.89,3.45,7.77,5.68,11.6Zm-23.27-4.21c-5.41,6.77-12.12,13.21-19.86,18.94,2.1-9.39,5.26-18.14,9.27-25.83,0,0,0,0,0,0,4.06-1.79,7.88-3.79,11.43-6.03,.01,0,.03-.02,.04-.03-.6,4.16-.9,8.49-.89,12.94Zm4.26-71.73s-.03-.02-.04-.04c-3.3-2.64-6.91-5.05-10.78-7.26-3.14-8.07-5.36-17.08-6.45-26.63,7.1,6.51,13.09,13.63,17.75,20.94,.01,.02,.02,.03,.03,.05-.49,4.41-.66,8.73-.51,12.92Zm-13.19,11.69s0,.01,.01,.02c-4.15-.6-8.46-.9-12.9-.89-.01,0-.02-.02-.03-.03-6.76-5.37-13.19-12.07-18.91-19.81,9.38,2.08,18.11,5.24,25.8,9.25,1.79,4.08,3.79,7.9,6.03,11.46Zm-5.54,16.71s.01,0,.02,0c-3.9,1.56-7.8,3.47-11.65,5.7,0,0,0,0,0,0-8.54-1.28-17.45-3.86-26.26-7.71,9.19-2.88,18.34-4.47,27-4.85,3.55,2.62,7.21,4.92,10.89,6.85Zm-34.22-49.63s-.02,.02-.02,0c-.91-1.59-1.77-3.2-2.61-4.85-5.93-11.63-9.77-23.74-11.52-35.32,11.32,2.95,22.92,8,33.84,15.09,1.6,1.03,3.17,2.1,4.7,3.22,.34,10.34,1.87,20.27,4.41,29.4-8.82-3.52-18.55-6.1-28.8-7.54Zm-6.44,9.9c5.44,8.81,11.72,16.62,18.51,23.25,.01,.01,.02,.02,.03,.03-9.41,1.37-19.09,4-28.7,7.89-.01,0-.02-.01-.04-.02-1.58-.92-3.16-1.9-4.71-2.91-10.94-7.11-20.34-15.66-27.65-24.83,11.26-3.11,23.86-4.52,36.86-3.84,1.91,.1,3.82,.24,5.7,.43Zm-10.81,42.92s0,0,0,0c9.1,4.88,18.42,8.52,27.61,10.87-7.47,5.9-14.56,13.02-20.93,21.21-1.83,0-3.67-.06-5.51-.16-13.04-.68-25.45-3.42-36.37-7.69,0,0,0,0,0,0,8.22-8.32,18.42-15.85,30.01-21.76,1.72-.88,3.45-1.68,5.19-2.47Zm8.81,47.3c1.04-1.61,2.12-3.17,3.23-4.71,10.33-.34,20.25-1.87,29.38-4.4-3.52,8.83-6.09,18.54-7.52,28.81-1.59,.9-3.2,1.78-4.85,2.62-11.62,5.92-23.73,9.74-35.32,11.49,2.96-11.31,8.01-22.91,15.09-33.82Zm12.39-15.98s0,0,0,0c6.52-7.09,13.65-13.09,20.97-17.75,1.83,.23,3.64,.37,5.44,.46,2.53,.13,5.01,.15,7.46,.06,0,0,0,0,0,0-2.61,3.31-5.03,6.92-7.25,10.79-8.07,3.14-17.07,5.36-26.62,6.44Zm60.54-78.13c1.3-8.58,3.85-17.5,7.69-26.34,0,0,0,.01,0,.02,2.89,9.2,4.5,18.36,4.86,27,0,0,0,.01,0,.02-2.61,3.55-4.91,7.19-6.87,10.87-1.55-3.88-3.46-7.75-5.69-11.57Zm23.29,4.2s0-.02,0-.03c5.4-6.76,12.1-13.18,19.82-18.89,0,0,0,0,0,.01-2.08,9.38-5.24,18.11-9.25,25.8,0,0,0,.01-.01,.02-4.05,1.78-7.87,3.78-11.42,6,.37-2.53,.62-5.11,.76-7.75,.09-1.71,.14-3.43,.12-5.17Zm44.71,8.84c-6.54,7.11-13.68,13.11-21.02,17.77-4.39-.48-8.69-.65-12.87-.51,.01-.01,.02-.03,.04-.04,2.61-3.29,5.02-6.9,7.22-10.76,8.06-3.15,17.08-5.37,26.63-6.46Zm-20.22-6.88c3.52-8.82,6.1-18.55,7.54-28.8v-.02c1.59-.9,3.2-1.78,4.84-2.62,11.62-5.92,23.73-9.73,35.32-11.49-2.96,11.31-8,22.91-15.09,33.82-1.04,1.61-2.13,3.17-3.23,4.71-10.33,.33-20.24,1.85-29.38,4.4Zm27.86,43.37c-9.21,2.89-18.38,4.48-27.06,4.86-3.56-2.62-7.2-4.92-10.89-6.88,3.88-1.55,7.75-3.46,11.57-5.67,8.59,1.29,17.53,3.85,26.38,7.69Zm-43.47,14.69c2.55,.37,5.13,.67,7.79,.81,1.7,.09,3.43,.11,5.17,.11,6.77,5.4,13.19,12.11,18.91,19.83-9.4-2.1-18.15-5.27-25.85-9.28-1.78-4.07-3.8-7.91-6.03-11.47Zm39.79,32.93c.9,1.59,1.78,3.21,2.63,4.86,5.92,11.62,9.74,23.73,11.49,35.32-11.31-2.96-22.91-8-33.82-15.09-1.61-1.04-3.18-2.13-4.72-3.23-.33-10.33-1.85-20.23-4.39-29.37,8.83,3.52,18.54,6.09,28.81,7.52Zm6.43-9.89c-5.45-8.78-11.72-16.6-18.5-23.25,9.4-1.37,19.09-3.99,28.69-7.88,1.59,.93,3.17,1.88,4.73,2.89,10.95,7.11,20.32,15.69,27.64,24.85-11.28,3.09-23.87,4.51-36.86,3.83-1.92-.1-3.82-.25-5.7-.44Zm10.77-42.89c-9.12-4.88-18.44-8.51-27.63-10.87,7.48-5.89,14.56-13.04,20.94-21.22,1.85,.01,3.7,.06,5.57,.15,13.03,.68,25.44,3.42,36.36,7.7-8.22,8.32-18.41,15.84-30.01,21.75-1.73,.88-3.48,1.7-5.23,2.49Zm1.73-132.7c6.9,10.26,9.04,24.75,6.82,40.5-13.45,1.58-27.59,5.8-41.27,12.62,0,0,0-.01,0-.02,.71-15.31-1.21-29.98-5.22-42.94,0,0,0,0,0,0,13.46-8.4,27.52-12.28,39.67-10.16Zm-45.04,53.54c-.1,1.91-.24,3.82-.43,5.7-8.79,5.45-16.61,11.72-23.25,18.5-1.36-9.4-4-19.08-7.89-28.68,.93-1.59,1.88-3.18,2.9-4.74,7.1-10.94,15.68-20.31,24.84-27.63,3.11,11.26,4.52,23.85,3.84,36.85Zm-33.59-79.19c11.12,5.45,20.25,16.88,26.19,31.65-10.86,8.1-21.01,18.81-29.45,31.56-7.06-13.6-16.04-25.34-26.02-34.56,7.45-14.01,17.7-24.42,29.29-28.65Zm-33.98,38.89c8.33,8.21,15.86,18.4,21.77,30,.88,1.72,1.71,3.46,2.46,5.19,0,.02,.01,.03,.02,.05-4.87,9.11-8.5,18.42-10.86,27.6-.01-.01-.02-.03-.03-.04-5.88-7.46-13.02-14.55-21.21-20.93,0-1.83,.06-3.67,.16-5.52,.68-13.04,3.42-25.45,7.69-36.37Zm-46.92-21.76c1.52-.1,3.07-.1,4.63-.02,11.04,.58,22.88,5.73,33.86,14.34-5.36,12.45-8.8,26.8-9.71,42.05-12.91-8.25-26.55-13.92-39.8-16.92-.58-15.86,3.11-30,11.03-39.45Zm-61.52,55.26c10.27-6.88,24.74-9.08,40.49-6.82,1.59,13.45,5.78,27.6,12.61,41.28-15.31-.71-29.98,1.21-42.94,5.22-8.41-13.45-12.3-27.53-10.17-39.68Zm-25.65,78.65c5.45-11.12,16.89-20.25,31.67-26.19,8.08,10.88,18.78,21.02,31.55,29.46,0,0,0,0,0,0-13.61,7.06-25.36,16.04-34.58,26.01-14.01-7.45-24.41-17.7-28.64-29.28Zm17.12,80.91c-.84-12.34,4.51-25.96,14.32-38.49,12.44,5.34,26.79,8.8,42.06,9.71,0,0,.02,0,.02,0-8.25,12.91-13.95,26.55-16.95,39.79-15.85,.55-29.99-3.1-39.45-11.01Zm55.27,61.52c-6.9-10.27-9.04-24.75-6.81-40.51,13.45-1.58,27.58-5.77,41.26-12.59-.69,15.31,1.21,29.97,5.24,42.94-13.46,8.41-27.53,12.29-39.68,10.16Zm45.03-53.54c.1-1.92,.25-3.81,.44-5.7,8.8-5.46,16.63-11.74,23.28-18.53,1.37,9.4,3.99,19.08,7.88,28.67-.94,1.6-1.9,3.2-2.92,4.78-7.11,10.95-15.69,20.32-24.85,27.64-3.09-11.28-4.51-23.87-3.83-36.86Zm33.59,79.19c-11.12-5.44-20.24-16.91-26.19-31.69,10.87-8.1,21.02-18.79,29.47-31.55,7.06,13.61,16.05,25.34,26.02,34.55-7.45,14.02-17.7,24.44-29.3,28.68Zm33.98-38.89c-8.32-8.22-15.84-18.41-21.75-30-.88-1.73-1.7-3.48-2.49-5.23,4.87-9.11,8.5-18.43,10.86-27.61,5.9,7.48,13.03,14.58,21.23,20.96-.01,1.83-.06,3.67-.15,5.52-.68,13.03-3.42,25.44-7.7,36.36Zm46.94,21.78c-12.34,.83-25.96-4.53-38.49-14.33,5.36-12.44,8.79-26.79,9.72-42.05,12.91,8.25,26.54,13.92,39.78,16.92,.55,15.86-3.09,30-11.01,39.46Zm61.52-55.27c-10.26,6.9-24.75,9.04-40.5,6.81-1.58-13.45-5.8-27.58-12.62-41.26,15.32,.69,29.99-1.21,42.96-5.24,8.4,13.46,12.29,27.53,10.17,39.68Zm-6.01-52.45c-8.1-10.86-18.81-21.01-31.56-29.45,13.6-7.06,25.35-16.04,34.57-26.01,14,7.45,24.4,17.69,28.64,29.28-5.44,11.11-16.89,20.23-31.65,26.18Z"/></g><g><g><circle class="cls-50" cx="488.97" cy="394.1" r="23.19" transform="translate(-62.25 695.04) rotate(-67.5)"/><g class="cls-17"><circle class="cls-16" cx="488.97" cy="394.1" r="23.19" transform="translate(-62.25 695.04) rotate(-67.5)"/></g></g><g class="cls-52"><circle class="cls-1" cx="488.97" cy="394.1" r="23.19" transform="translate(-62.25 695.04) rotate(-67.5)"/></g></g></g></g></g></g></svg>