<?xml version="1.0" encoding="UTF-8"?><svg id="Layer_1" xmlns="http://www.w3.org/2000/svg" viewBox="0 0 1400 289.09"><defs><style>.cls-1{fill:#b4d6c1;}</style></defs><polygon class="cls-1" points="698.66 289.09 698.66 192.28 1400 192.28 1400 289.09 698.66 289.09 698.66 289.09"/><path class="cls-1" d="M941.29,182.43v-14.56c0-9.53-8.55-11.64-8.55-11.64,0,0-8.52,2.11-8.52,11.64v14.56h-5.24v-14.56c0-9.53-8.55-11.64-8.55-11.64,0,0-8.55,2.11-8.55,11.64v14.56h-5.24v-14.56c0-9.53-8.55-11.64-8.55-11.64,0,0-8.52,2.11-8.52,11.64v14.56h-11.03v-33.58h83.75v33.58h-11Z"/><path class="cls-1" d="M871.02,145.11v-7.58c0-26.89,39.4-32.89,39.4-32.89,0,0,39.4,6,39.4,32.89v7.58h-78.8Z"/><path class="cls-1" d="M954.17,148.85h-87.51c-.77,0-1.4-.47-1.4-1.05v-2.73c0-.58,.63-1.05,1.4-1.05h87.51c.77,0,1.4,.47,1.4,1.05v2.73c0,.58-.63,1.05-1.4,1.05h0Z"/><path class="cls-1" d="M910.42,106.67c-2.84,0-5.14-1.73-5.14-3.86s2.3-3.87,5.14-3.87,5.14,1.73,5.14,3.87-2.3,3.86-5.14,3.86h0Z"/><polygon class="cls-1" points="909.49 84.79 909.49 64.13 911.35 64.13 911.35 84.79 909.49 84.79 909.49 84.79"/><polygon class="cls-1" points="908.41 102.13 908.41 83.54 912.42 83.54 912.42 102.13 908.41 102.13 908.41 102.13"/><path class="cls-1" d="M963.11,192.28h-105.39c-.42,0-.75-.26-.75-.57v-2.1c0-.31,.34-.57,.75-.57h105.39c.42,0,.75,.26,.75,.57v2.1c0,.31-.34,.57-.75,.57h0Z"/><path class="cls-1" d="M960.1,192.28h-99.36c-.77,0-1.39-.47-1.39-1.05v-7.77c0-.58,.62-1.05,1.39-1.05h99.36c.77,0,1.39,.47,1.39,1.05v7.77c0,.58-.62,1.05-1.39,1.05h0Z"/><path class="cls-1" d="M784.45,189.42v-5.79c0-20.55,30.11-25.13,30.11-25.13,0,0,30.11,4.59,30.11,25.13v5.79h-60.21Z"/><path class="cls-1" d="M847.99,192.28h-66.87c-.59,0-1.07-.36-1.07-.81v-2.09c0-.44,.48-.81,1.07-.81h66.87c.59,0,1.07,.36,1.07,.81v2.09c0,.44-.48,.81-1.07,.81h0Z"/><path class="cls-1" d="M814.55,160.05c-2.17,0-3.93-1.32-3.93-2.95s1.76-2.95,3.93-2.95,3.93,1.32,3.93,2.95-1.76,2.95-3.93,2.95h0Z"/><polygon class="cls-1" points="813.41 156.58 814.55 142.37 815.7 156.58 813.41 156.58 813.41 156.58"/><path class="cls-1" d="M975.93,189.42v-5.79c0-20.55,30.11-25.13,30.11-25.13,0,0,30.11,4.59,30.11,25.13v5.79h-60.21Z"/><path class="cls-1" d="M1039.47,192.28h-66.87c-.59,0-1.07-.36-1.07-.81v-2.09c0-.44,.48-.81,1.07-.81h66.87c.59,0,1.07,.36,1.07,.81v2.09c0,.44-.48,.81-1.07,.81h0Z"/><path class="cls-1" d="M1006.03,160.05c-2.17,0-3.93-1.32-3.93-2.95s1.76-2.95,3.93-2.95,3.93,1.32,3.93,2.95-1.76,2.95-3.93,2.95h0Z"/><polygon class="cls-1" points="1004.89 156.58 1006.03 142.37 1007.18 156.58 1004.89 156.58 1004.89 156.58"/><path class="cls-1" d="M1256.58,189.42v-5.79c0-20.55,30.11-25.13,30.11-25.13,0,0,30.11,4.59,30.11,25.13v5.79h-60.21Z"/><path class="cls-1" d="M1320.12,192.28h-66.87c-.59,0-1.07-.36-1.07-.81v-2.09c0-.44,.48-.81,1.07-.81h66.87c.59,0,1.07,.36,1.07,.81v2.09c0,.44-.48,.81-1.07,.81h0Z"/><path class="cls-1" d="M1286.68,160.05c-2.17,0-3.93-1.32-3.93-2.95s1.76-2.95,3.93-2.95,3.93,1.32,3.93,2.95-1.76,2.95-3.93,2.95h0Z"/><polygon class="cls-1" points="1285.54 156.58 1286.68 142.37 1287.83 156.58 1285.54 156.58 1285.54 156.58"/><path class="cls-1" d="M1212.46,289.09v-35.8c0-20.5-18.39-25.05-18.39-25.05,0,0-18.33,4.55-18.33,25.05v35.8h-11.28v-35.8c0-20.5-18.39-25.05-18.39-25.05,0,0-18.39,4.55-18.39,25.05v35.8h-11.28v-35.8c0-20.5-18.39-25.05-18.39-25.05,0,0-18.33,4.55-18.33,25.05v35.8h-23.72v-106.82h180.17v106.82h-23.67Z"/><path class="cls-1" d="M1061.28,174.22v-16.3c0-57.84,84.76-70.76,84.76-70.76,0,0,84.76,12.92,84.76,70.76v16.3h-169.53Z"/><path class="cls-1" d="M1240.18,182.27h-188.26c-1.67,0-3.02-1.01-3.02-2.27v-5.87c0-1.25,1.35-2.27,3.02-2.27h188.26c1.67,0,3.02,1.01,3.02,2.27v5.87c0,1.25-1.35,2.27-3.02,2.27h0Z"/><path class="cls-1" d="M1247.22,184.31h-202.35c-.6,0-1.1-.37-1.1-.82v-2.44c0-.45,.49-.82,1.1-.82h202.35c.61,0,1.1,.37,1.1,.82v2.44c0,.46-.49,.82-1.1,.82h0Z"/><path class="cls-1" d="M1146.05,91.53c-6.11,0-11.06-3.72-11.06-8.32s4.95-8.31,11.06-8.31,11.06,3.72,11.06,8.31-4.95,8.32-11.06,8.32h0Z"/><polygon class="cls-1" points="1144.05 44.46 1144.05 0 1148.04 0 1148.04 44.46 1144.05 44.46 1144.05 44.46"/><polygon class="cls-1" points="1141.73 81.75 1141.73 41.76 1150.36 41.76 1150.36 81.75 1141.73 81.75 1141.73 81.75"/><path class="cls-1" d="M723.04,126.85v-4.28c0-15.2,22.27-18.59,22.27-18.59,0,0,22.27,3.39,22.27,18.59v4.28h-44.54Z"/><path class="cls-1" d="M770.05,128.97h-49.47c-.44,0-.79-.27-.79-.6v-1.54c0-.33,.35-.6,.79-.6h49.47c.44,0,.79,.27,.79,.6v1.54c0,.33-.35,.6-.79,.6h0Z"/><path class="cls-1" d="M745.31,105.12c-1.6,0-2.91-.98-2.91-2.18s1.3-2.18,2.91-2.18,2.91,.98,2.91,2.18-1.3,2.18-2.91,2.18h0Z"/><polygon class="cls-1" points="744.79 102.19 744.79 81.07 745.84 81.07 745.84 102.19 744.79 102.19 744.79 102.19"/><path class="cls-1" d="M772.43,153.52h-54.24c-.22,0-.41-.14-.41-.31v-1.22c0-.17,.18-.31,.41-.31h54.24c.22,0,.41,.14,.41,.31v1.22c0,.17-.18,.31-.41,.31h0Z"/><polygon class="cls-1" points="721.51 285 721.51 149.53 769.11 149.53 769.11 285 721.51 285 721.51 285"/><path class="cls-1" d="M770.86,153.52h-51.1c-.41,0-.75-.25-.75-.56v-4.45c0-.31,.34-.56,.75-.56h51.1c.41,0,.75,.25,.75,.56v4.45c0,.31-.34,.56-.75,.56h0Z"/><path class="cls-1" d="M772.43,199.83h-54.24c-.22,0-.41-.14-.41-.31v-1.22c0-.17,.18-.31,.41-.31h54.24c.22,0,.41,.14,.41,.31v1.22c0,.17-.18,.31-.41,.31h0Z"/><path class="cls-1" d="M770.86,199.83h-51.1c-.41,0-.75-.25-.75-.56v-4.45c0-.31,.34-.56,.75-.56h51.1c.41,0,.75,.25,.75,.56v4.45c0,.31-.34,.56-.75,.56h0Z"/><path class="cls-1" d="M767,147.94v-15.16c-1.95,1.19-4.87,3.92-4.87,9.61v5.55h-2.45v-5.55c0-8.51-6.57-10.42-6.57-10.42,0,0-6.57,1.91-6.57,10.42v5.55h-2.45v-5.55c0-8.51-6.57-10.42-6.57-10.42,0,0-6.57,1.91-6.57,10.42v5.55h-2.47v-5.55c0-5.68-2.91-8.41-4.85-9.61v15.16h-1.7v-19.72h46.77v19.72h-1.7Z"/><path class="cls-1" d="M772.43,244.46h-54.24c-.22,0-.41-.14-.41-.31v-1.22c0-.17,.18-.31,.41-.31h54.24c.22,0,.41,.14,.41,.31v1.22c0,.17-.18,.31-.41,.31h0Z"/><path class="cls-1" d="M770.86,244.46h-51.1c-.41,0-.75-.25-.75-.56v-4.45c0-.31,.34-.56,.75-.56h51.1c.41,0,.75,.25,.75,.56v4.45c0,.31-.34,.56-.75,.56h0Z"/><path class="cls-1" d="M772.43,289.09h-54.24c-.22,0-.41-.14-.41-.31v-1.22c0-.17,.18-.31,.41-.31h54.24c.22,0,.41,.14,.41,.31v1.22c0,.17-.18,.31-.41,.31h0Z"/><path class="cls-1" d="M770.86,289.09h-51.1c-.41,0-.75-.25-.75-.56v-4.45c0-.31,.34-.56,.75-.56h51.1c.41,0,.75,.25,.75,.56v4.45c0,.31-.34,.56-.75,.56h0Z"/><path class="cls-1" d="M1334.82,126.85v-4.28c0-15.2,22.27-18.59,22.27-18.59,0,0,22.27,3.39,22.27,18.59v4.28h-44.54Z"/><path class="cls-1" d="M1381.83,128.97h-49.47c-.44,0-.79-.27-.79-.6v-1.54c0-.33,.35-.6,.79-.6h49.47c.44,0,.79,.27,.79,.6v1.54c0,.33-.35,.6-.79,.6h0Z"/><path class="cls-1" d="M1357.09,105.12c-1.6,0-2.91-.98-2.91-2.18s1.3-2.18,2.91-2.18,2.91,.98,2.91,2.18-1.3,2.18-2.91,2.18h0Z"/><polygon class="cls-1" points="1356.57 102.19 1356.57 81.07 1357.62 81.07 1357.62 102.19 1356.57 102.19 1356.57 102.19"/><path class="cls-1" d="M1384.22,153.52h-54.24c-.22,0-.41-.14-.41-.31v-1.22c0-.17,.18-.31,.41-.31h54.24c.23,0,.41,.14,.41,.31v1.22c0,.17-.18,.31-.41,.31h0Z"/><polygon class="cls-1" points="1333.29 285 1333.29 149.53 1380.9 149.53 1380.9 285 1333.29 285 1333.29 285"/><path class="cls-1" d="M1382.64,153.52h-51.1c-.41,0-.75-.25-.75-.56v-4.45c0-.31,.34-.56,.75-.56h51.1c.41,0,.75,.25,.75,.56v4.45c0,.31-.34,.56-.75,.56h0Z"/><path class="cls-1" d="M1384.22,199.83h-54.24c-.22,0-.41-.14-.41-.31v-1.22c0-.17,.18-.31,.41-.31h54.24c.23,0,.41,.14,.41,.31v1.22c0,.17-.18,.31-.41,.31h0Z"/><path class="cls-1" d="M1382.64,199.83h-51.1c-.41,0-.75-.25-.75-.56v-4.45c0-.31,.34-.56,.75-.56h51.1c.41,0,.75,.25,.75,.56v4.45c0,.31-.34,.56-.75,.56h0Z"/><path class="cls-1" d="M1378.78,147.94v-15.16c-1.95,1.19-4.87,3.92-4.87,9.61v5.55h-2.45v-5.55c0-8.51-6.57-10.42-6.57-10.42,0,0-6.57,1.91-6.57,10.42v5.55h-2.45v-5.55c0-8.51-6.57-10.42-6.57-10.42,0,0-6.57,1.91-6.57,10.42v5.55h-2.47v-5.55c0-5.68-2.91-8.41-4.85-9.61v15.16h-1.7v-19.72h46.77v19.72h-1.7Z"/><path class="cls-1" d="M1384.22,244.46h-54.24c-.22,0-.41-.14-.41-.31v-1.22c0-.17,.18-.31,.41-.31h54.24c.23,0,.41,.14,.41,.31v1.22c0,.17-.18,.31-.41,.31h0Z"/><path class="cls-1" d="M1382.64,244.46h-51.1c-.41,0-.75-.25-.75-.56v-4.45c0-.31,.34-.56,.75-.56h51.1c.41,0,.75,.25,.75,.56v4.45c0,.31-.34,.56-.75,.56h0Z"/><path class="cls-1" d="M1384.22,289.09h-54.24c-.22,0-.41-.14-.41-.31v-1.22c0-.17,.18-.31,.41-.31h54.24c.23,0,.41,.14,.41,.31v1.22c0,.17-.18,.31-.41,.31h0Z"/><path class="cls-1" d="M1382.64,289.09h-51.1c-.41,0-.75-.25-.75-.56v-4.45c0-.31,.34-.56,.75-.56h51.1c.41,0,.75,.25,.75,.56v4.45c0,.31-.34,.56-.75,.56h0Z"/><polygon class="cls-1" points="0 289.09 0 192.28 701.34 192.28 701.34 289.09 0 289.09 0 289.09"/><path class="cls-1" d="M520.43,182.43v-14.56c0-9.53-8.52-11.64-8.52-11.64,0,0-8.55,2.11-8.55,11.64v14.56h-5.24v-14.56c0-9.53-8.55-11.64-8.55-11.64,0,0-8.55,2.11-8.55,11.64v14.56h-5.24v-14.56c0-9.53-8.52-11.64-8.52-11.64,0,0-8.55,2.11-8.55,11.64v14.56h-11v-33.58h83.75v33.58h-11.03Z"/><path class="cls-1" d="M450.18,145.11v-7.58c0-26.89,39.4-32.89,39.4-32.89,0,0,39.4,6,39.4,32.89v7.58h-78.8Z"/><path class="cls-1" d="M533.34,148.85h-87.51c-.77,0-1.4-.47-1.4-1.05v-2.73c0-.58,.63-1.05,1.4-1.05h87.51c.77,0,1.4,.47,1.4,1.05v2.73c0,.58-.63,1.05-1.4,1.05h0Z"/><path class="cls-1" d="M489.58,106.67c-2.84,0-5.14-1.73-5.14-3.86s2.3-3.87,5.14-3.87,5.14,1.73,5.14,3.87-2.3,3.86-5.14,3.86h0Z"/><polygon class="cls-1" points="488.65 84.79 488.65 64.13 490.51 64.13 490.51 84.79 488.65 84.79 488.65 84.79"/><polygon class="cls-1" points="487.58 102.13 487.58 83.54 491.59 83.54 491.59 102.13 487.58 102.13 487.58 102.13"/><path class="cls-1" d="M542.28,192.28h-105.39c-.42,0-.75-.26-.75-.57v-2.1c0-.31,.34-.57,.75-.57h105.39c.42,0,.75,.26,.75,.57v2.1c0,.31-.34,.57-.75,.57h0Z"/><path class="cls-1" d="M539.26,192.28h-99.36c-.77,0-1.39-.47-1.39-1.05v-7.77c0-.58,.62-1.05,1.39-1.05h99.36c.77,0,1.39,.47,1.39,1.05v7.77c0,.58-.62,1.05-1.39,1.05h0Z"/><path class="cls-1" d="M555.34,189.42v-5.79c0-20.55,30.11-25.13,30.11-25.13,0,0,30.11,4.59,30.11,25.13v5.79h-60.21Z"/><path class="cls-1" d="M618.88,192.28h-66.87c-.59,0-1.07-.36-1.07-.81v-2.09c0-.44,.48-.81,1.07-.81h66.87c.59,0,1.07,.36,1.07,.81v2.09c0,.44-.48,.81-1.07,.81h0Z"/><path class="cls-1" d="M585.45,160.05c-2.17,0-3.93-1.32-3.93-2.95s1.76-2.95,3.93-2.95,3.93,1.32,3.93,2.95-1.76,2.95-3.93,2.95h0Z"/><polygon class="cls-1" points="584.3 156.58 585.45 142.37 586.59 156.58 584.3 156.58 584.3 156.58"/><path class="cls-1" d="M363.86,189.42v-5.79c0-20.55,30.11-25.13,30.11-25.13,0,0,30.11,4.59,30.11,25.13v5.79h-60.21Z"/><path class="cls-1" d="M427.4,192.28h-66.87c-.59,0-1.07-.36-1.07-.81v-2.09c0-.44,.48-.81,1.07-.81h66.87c.59,0,1.07,.36,1.07,.81v2.09c0,.44-.48,.81-1.07,.81h0Z"/><path class="cls-1" d="M393.97,160.05c-2.17,0-3.93-1.32-3.93-2.95s1.76-2.95,3.93-2.95,3.93,1.32,3.93,2.95-1.76,2.95-3.93,2.95h0Z"/><polygon class="cls-1" points="392.82 156.58 393.97 142.37 395.11 156.58 392.82 156.58 392.82 156.58"/><path class="cls-1" d="M83.21,189.42v-5.79c0-20.55,30.11-25.13,30.11-25.13,0,0,30.11,4.59,30.11,25.13v5.79h-60.21Z"/><path class="cls-1" d="M146.75,192.28H79.88c-.59,0-1.07-.36-1.07-.81v-2.09c0-.44,.48-.81,1.07-.81h66.87c.59,0,1.07,.36,1.07,.81v2.09c0,.44-.48,.81-1.07,.81h0Z"/><path class="cls-1" d="M113.32,160.05c-2.17,0-3.93-1.32-3.93-2.95s1.76-2.95,3.93-2.95,3.93,1.32,3.93,2.95-1.76,2.95-3.93,2.95h0Z"/><polygon class="cls-1" points="112.17 156.58 113.32 142.37 114.46 156.58 112.17 156.58 112.17 156.58"/><path class="cls-1" d="M320.32,289.09v-35.8c0-20.5-18.33-25.05-18.33-25.05,0,0-18.39,4.55-18.39,25.05v35.8h-11.28v-35.8c0-20.5-18.39-25.05-18.39-25.05,0,0-18.39,4.55-18.39,25.05v35.8h-11.28v-35.8c0-20.5-18.33-25.05-18.33-25.05,0,0-18.39,4.55-18.39,25.05v35.8h-23.67v-106.82h180.17v106.82h-23.72Z"/><path class="cls-1" d="M169.19,174.22v-16.3c0-57.84,84.76-70.76,84.76-70.76,0,0,84.76,12.92,84.76,70.76v16.3H169.19Z"/><path class="cls-1" d="M348.09,182.27H159.82c-1.67,0-3.02-1.01-3.02-2.27v-5.87c0-1.25,1.35-2.27,3.02-2.27h188.26c1.67,0,3.02,1.01,3.02,2.27v5.87c0,1.25-1.35,2.27-3.02,2.27h0Z"/><path class="cls-1" d="M355.13,184.31H152.78c-.61,0-1.1-.37-1.1-.82v-2.44c0-.45,.49-.82,1.1-.82h202.35c.6,0,1.09,.37,1.09,.82v2.44c0,.46-.49,.82-1.09,.82h0Z"/><path class="cls-1" d="M253.95,91.53c-6.11,0-11.06-3.72-11.06-8.32s4.95-8.31,11.06-8.31,11.06,3.72,11.06,8.31-4.95,8.32-11.06,8.32h0Z"/><polygon class="cls-1" points="251.96 44.46 251.96 0 255.95 0 255.95 44.46 251.96 44.46 251.96 44.46"/><polygon class="cls-1" points="249.64 81.75 249.64 41.76 258.27 41.76 258.27 81.75 249.64 81.75 249.64 81.75"/><path class="cls-1" d="M632.42,126.85v-4.28c0-15.2,22.27-18.59,22.27-18.59,0,0,22.27,3.39,22.27,18.59v4.28h-44.54Z"/><path class="cls-1" d="M679.42,128.97h-49.47c-.44,0-.79-.27-.79-.6v-1.54c0-.33,.35-.6,.79-.6h49.47c.44,0,.79,.27,.79,.6v1.54c0,.33-.35,.6-.79,.6h0Z"/><path class="cls-1" d="M654.69,105.12c-1.6,0-2.91-.98-2.91-2.18s1.3-2.18,2.91-2.18,2.91,.98,2.91,2.18-1.3,2.18-2.91,2.18h0Z"/><polygon class="cls-1" points="654.16 102.19 654.16 81.07 655.21 81.07 655.21 102.19 654.16 102.19 654.16 102.19"/><path class="cls-1" d="M681.81,153.52h-54.24c-.22,0-.41-.14-.41-.31v-1.22c0-.17,.18-.31,.41-.31h54.24c.22,0,.41,.14,.41,.31v1.22c0,.17-.18,.31-.41,.31h0Z"/><polygon class="cls-1" points="630.89 285 630.89 149.53 678.49 149.53 678.49 285 630.89 285 630.89 285"/><path class="cls-1" d="M680.24,153.52h-51.1c-.41,0-.75-.25-.75-.56v-4.45c0-.31,.34-.56,.75-.56h51.1c.41,0,.75,.25,.75,.56v4.45c0,.31-.34,.56-.75,.56h0Z"/><path class="cls-1" d="M681.81,199.83h-54.24c-.22,0-.41-.14-.41-.31v-1.22c0-.17,.18-.31,.41-.31h54.24c.22,0,.41,.14,.41,.31v1.22c0,.17-.18,.31-.41,.31h0Z"/><path class="cls-1" d="M680.24,199.83h-51.1c-.41,0-.75-.25-.75-.56v-4.45c0-.31,.34-.56,.75-.56h51.1c.41,0,.75,.25,.75,.56v4.45c0,.31-.34,.56-.75,.56h0Z"/><path class="cls-1" d="M676.37,147.94v-15.16c-1.94,1.19-4.85,3.93-4.85,9.61v5.55h-2.47v-5.55c0-8.51-6.57-10.42-6.57-10.42,0,0-6.57,1.91-6.57,10.42v5.55h-2.45v-5.55c0-8.51-6.57-10.42-6.57-10.42,0,0-6.57,1.91-6.57,10.42v5.55h-2.45v-5.55c0-5.68-2.93-8.42-4.87-9.61v15.16h-1.7v-19.72h46.77v19.72h-1.7Z"/><path class="cls-1" d="M681.81,244.46h-54.24c-.22,0-.41-.14-.41-.31v-1.22c0-.17,.18-.31,.41-.31h54.24c.22,0,.41,.14,.41,.31v1.22c0,.17-.18,.31-.41,.31h0Z"/><path class="cls-1" d="M680.24,244.46h-51.1c-.41,0-.75-.25-.75-.56v-4.45c0-.31,.34-.56,.75-.56h51.1c.41,0,.75,.25,.75,.56v4.45c0,.31-.34,.56-.75,.56h0Z"/><path class="cls-1" d="M681.81,289.09h-54.24c-.22,0-.41-.14-.41-.31v-1.22c0-.17,.18-.31,.41-.31h54.24c.22,0,.41,.14,.41,.31v1.22c0,.17-.18,.31-.41,.31h0Z"/><path class="cls-1" d="M680.24,289.09h-51.1c-.41,0-.75-.25-.75-.56v-4.45c0-.31,.34-.56,.75-.56h51.1c.41,0,.75,.25,.75,.56v4.45c0,.31-.34,.56-.75,.56h0Z"/><path class="cls-1" d="M20.63,126.85v-4.28c0-15.2,22.27-18.59,22.27-18.59,0,0,22.27,3.39,22.27,18.59v4.28H20.63Z"/><path class="cls-1" d="M67.64,128.97H18.17c-.44,0-.79-.27-.79-.6v-1.54c0-.33,.35-.6,.79-.6h49.47c.44,0,.79,.27,.79,.6v1.54c0,.33-.35,.6-.79,.6h0Z"/><path class="cls-1" d="M42.91,105.12c-1.6,0-2.91-.98-2.91-2.18s1.3-2.18,2.91-2.18,2.91,.98,2.91,2.18-1.3,2.18-2.91,2.18h0Z"/><polygon class="cls-1" points="42.38 102.19 42.38 81.07 43.43 81.07 43.43 102.19 42.38 102.19 42.38 102.19"/><path class="cls-1" d="M70.03,153.52H15.78c-.23,0-.41-.14-.41-.31v-1.22c0-.17,.18-.31,.41-.31h54.24c.22,0,.41,.14,.41,.31v1.22c0,.17-.18,.31-.41,.31h0Z"/><polygon class="cls-1" points="19.1 285 19.1 149.53 66.71 149.53 66.71 285 19.1 285 19.1 285"/><path class="cls-1" d="M68.45,153.52H17.36c-.41,0-.75-.25-.75-.56v-4.45c0-.31,.34-.56,.75-.56h51.1c.41,0,.75,.25,.75,.56v4.45c0,.31-.34,.56-.75,.56h0Z"/><path class="cls-1" d="M70.03,199.83H15.78c-.23,0-.41-.14-.41-.31v-1.22c0-.17,.18-.31,.41-.31h54.24c.22,0,.41,.14,.41,.31v1.22c0,.17-.18,.31-.41,.31h0Z"/><path class="cls-1" d="M68.45,199.83H17.36c-.41,0-.75-.25-.75-.56v-4.45c0-.31,.34-.56,.75-.56h51.1c.41,0,.75,.25,.75,.56v4.45c0,.31-.34,.56-.75,.56h0Z"/><path class="cls-1" d="M64.59,147.94v-15.16c-1.94,1.19-4.85,3.93-4.85,9.61v5.55h-2.47v-5.55c0-8.51-6.57-10.42-6.57-10.42,0,0-6.57,1.91-6.57,10.42v5.55h-2.45v-5.55c0-8.51-6.57-10.42-6.57-10.42,0,0-6.57,1.91-6.57,10.42v5.55h-2.45v-5.55c0-5.68-2.93-8.42-4.87-9.61v15.16h-1.7v-19.72h46.77v19.72h-1.7Z"/><path class="cls-1" d="M70.03,244.46H15.78c-.23,0-.41-.14-.41-.31v-1.22c0-.17,.18-.31,.41-.31h54.24c.22,0,.41,.14,.41,.31v1.22c0,.17-.18,.31-.41,.31h0Z"/><path class="cls-1" d="M68.45,244.46H17.36c-.41,0-.75-.25-.75-.56v-4.45c0-.31,.34-.56,.75-.56h51.1c.41,0,.75,.25,.75,.56v4.45c0,.31-.34,.56-.75,.56h0Z"/><path class="cls-1" d="M70.03,289.09H15.78c-.23,0-.41-.14-.41-.31v-1.22c0-.17,.18-.31,.41-.31h54.24c.22,0,.41,.14,.41,.31v1.22c0,.17-.18,.31-.41,.31h0Z"/><path class="cls-1" d="M68.45,289.09H17.36c-.41,0-.75-.25-.75-.56v-4.45c0-.31,.34-.56,.75-.56h51.1c.41,0,.75,.25,.75,.56v4.45c0,.31-.34,.56-.75,.56h0Z"/></svg>