<?xml version="1.0" encoding="UTF-8"?><svg id="Layer_1" xmlns="http://www.w3.org/2000/svg" viewBox="0 0 1400 390.01"><defs><style>.cls-1{fill:#b4d6c1;}</style></defs><polygon class="cls-1" points="698.66 390.01 698.66 259.41 1400 259.41 1400 390.01 698.66 390.01 698.66 390.01"/><path class="cls-1" d="M941.29,246.11v-19.64c0-12.86-8.55-15.71-8.55-15.71,0,0-8.52,2.85-8.52,15.71v19.64h-5.24v-19.64c0-12.86-8.55-15.71-8.55-15.71,0,0-8.55,2.85-8.55,15.71v19.64h-5.24v-19.64c0-12.86-8.55-15.71-8.55-15.71,0,0-8.52,2.85-8.52,15.71v19.64h-11.03v-45.3h83.75v45.3h-11Z"/><path class="cls-1" d="M871.02,195.77v-10.22c0-36.28,39.4-44.38,39.4-44.38,0,0,39.4,8.1,39.4,44.38v10.22h-78.8Z"/><path class="cls-1" d="M954.17,200.82h-87.51c-.77,0-1.4-.64-1.4-1.42v-3.68c0-.78,.63-1.42,1.4-1.42h87.51c.77,0,1.4,.64,1.4,1.42v3.68c0,.79-.63,1.42-1.4,1.42h0Z"/><path class="cls-1" d="M910.42,143.91c-2.84,0-5.14-2.33-5.14-5.21s2.3-5.21,5.14-5.21,5.14,2.33,5.14,5.21-2.3,5.21-5.14,5.21h0Z"/><polygon class="cls-1" points="909.49 114.39 909.49 86.51 911.35 86.51 911.35 114.39 909.49 114.39 909.49 114.39"/><polygon class="cls-1" points="908.41 137.78 908.41 112.7 912.42 112.7 912.42 137.78 908.41 137.78 908.41 137.78"/><path class="cls-1" d="M963.11,259.41h-105.39c-.42,0-.75-.34-.75-.77v-2.84c0-.42,.34-.77,.75-.77h105.39c.42,0,.75,.34,.75,.77v2.84c0,.42-.34,.77-.75,.77h0Z"/><path class="cls-1" d="M960.1,259.41h-99.36c-.77,0-1.39-.63-1.39-1.41v-10.48c0-.78,.62-1.41,1.39-1.41h99.36c.77,0,1.39,.63,1.39,1.41v10.48c0,.78-.62,1.41-1.39,1.41h0Z"/><path class="cls-1" d="M784.45,255.55v-7.81c0-27.72,30.11-33.91,30.11-33.91,0,0,30.11,6.19,30.11,33.91v7.81h-60.21Z"/><path class="cls-1" d="M847.99,259.41h-66.87c-.59,0-1.07-.49-1.07-1.09v-2.81c0-.6,.48-1.09,1.07-1.09h66.87c.59,0,1.07,.49,1.07,1.09v2.81c0,.6-.48,1.09-1.07,1.09h0Z"/><path class="cls-1" d="M814.55,215.93c-2.17,0-3.93-1.78-3.93-3.98s1.76-3.99,3.93-3.99,3.93,1.78,3.93,3.99-1.76,3.98-3.93,3.98h0Z"/><polygon class="cls-1" points="813.41 211.25 814.55 192.08 815.7 211.25 813.41 211.25 813.41 211.25"/><path class="cls-1" d="M975.93,255.55v-7.81c0-27.72,30.11-33.91,30.11-33.91,0,0,30.11,6.19,30.11,33.91v7.81h-60.21Z"/><path class="cls-1" d="M1039.47,259.41h-66.87c-.59,0-1.07-.49-1.07-1.09v-2.81c0-.6,.48-1.09,1.07-1.09h66.87c.59,0,1.07,.49,1.07,1.09v2.81c0,.6-.48,1.09-1.07,1.09h0Z"/><path class="cls-1" d="M1006.03,215.93c-2.17,0-3.93-1.78-3.93-3.98s1.76-3.99,3.93-3.99,3.93,1.78,3.93,3.99-1.76,3.98-3.93,3.98h0Z"/><polygon class="cls-1" points="1004.89 211.25 1006.03 192.08 1007.18 211.25 1004.89 211.25 1004.89 211.25"/><path class="cls-1" d="M1256.58,255.55v-7.81c0-27.72,30.11-33.91,30.11-33.91,0,0,30.11,6.19,30.11,33.91v7.81h-60.21Z"/><path class="cls-1" d="M1320.12,259.41h-66.87c-.59,0-1.07-.49-1.07-1.09v-2.81c0-.6,.48-1.09,1.07-1.09h66.87c.59,0,1.07,.49,1.07,1.09v2.81c0,.6-.48,1.09-1.07,1.09h0Z"/><path class="cls-1" d="M1286.68,215.93c-2.17,0-3.93-1.78-3.93-3.98s1.76-3.99,3.93-3.99,3.93,1.78,3.93,3.99-1.76,3.98-3.93,3.98h0Z"/><polygon class="cls-1" points="1285.54 211.25 1286.68 192.08 1287.83 211.25 1285.54 211.25 1285.54 211.25"/><path class="cls-1" d="M1212.46,390.01v-48.29c0-27.66-18.39-33.8-18.39-33.8,0,0-18.33,6.14-18.33,33.8v48.29h-11.28v-48.29c0-27.66-18.39-33.8-18.39-33.8,0,0-18.39,6.14-18.39,33.8v48.29h-11.28v-48.29c0-27.66-18.39-33.8-18.39-33.8,0,0-18.33,6.14-18.33,33.8v48.29h-23.72V245.9h180.17v144.11h-23.67Z"/><path class="cls-1" d="M1061.28,235.04v-21.99c0-78.04,84.76-95.47,84.76-95.47,0,0,84.76,17.43,84.76,95.47v21.99h-169.53Z"/><path class="cls-1" d="M1240.18,245.9h-188.26c-1.67,0-3.02-1.37-3.02-3.06v-7.92c0-1.69,1.35-3.06,3.02-3.06h188.26c1.67,0,3.02,1.37,3.02,3.06v7.92c0,1.69-1.35,3.06-3.02,3.06h0Z"/><path class="cls-1" d="M1247.22,248.66h-202.35c-.6,0-1.1-.5-1.1-1.11v-3.29c0-.61,.49-1.11,1.1-1.11h202.35c.61,0,1.1,.5,1.1,1.11v3.29c0,.61-.49,1.11-1.1,1.11h0Z"/><path class="cls-1" d="M1146.05,123.48c-6.11,0-11.06-5.02-11.06-11.22s4.95-11.22,11.06-11.22,11.06,5.02,11.06,11.22-4.95,11.22-11.06,11.22h0Z"/><polygon class="cls-1" points="1144.05 59.99 1144.05 0 1148.04 0 1148.04 59.99 1144.05 59.99 1144.05 59.99"/><polygon class="cls-1" points="1141.73 110.3 1141.73 56.33 1150.36 56.33 1150.36 110.3 1141.73 110.3 1141.73 110.3"/><path class="cls-1" d="M723.04,171.14v-5.78c0-20.5,22.27-25.08,22.27-25.08,0,0,22.27,4.58,22.27,25.08v5.78h-44.54Z"/><path class="cls-1" d="M770.05,173.99h-49.47c-.44,0-.79-.36-.79-.8v-2.08c0-.44,.35-.8,.79-.8h49.47c.44,0,.79,.36,.79,.8v2.08c0,.44-.35,.8-.79,.8h0Z"/><path class="cls-1" d="M745.31,141.82c-1.6,0-2.91-1.32-2.91-2.95s1.3-2.95,2.91-2.95,2.91,1.32,2.91,2.95-1.3,2.95-2.91,2.95h0Z"/><polygon class="cls-1" points="744.79 137.87 744.79 109.38 745.84 109.38 745.84 137.87 744.79 137.87 744.79 137.87"/><path class="cls-1" d="M772.43,207.11h-54.24c-.22,0-.41-.18-.41-.41v-1.64c0-.23,.18-.41,.41-.41h54.24c.22,0,.41,.18,.41,.41v1.64c0,.23-.18,.41-.41,.41h0Z"/><polygon class="cls-1" points="721.51 384.49 721.51 201.73 769.11 201.73 769.11 384.49 721.51 384.49 721.51 384.49"/><path class="cls-1" d="M770.86,207.11h-51.1c-.41,0-.75-.34-.75-.76v-6c0-.42,.34-.76,.75-.76h51.1c.41,0,.75,.34,.75,.76v6c0,.42-.34,.76-.75,.76h0Z"/><path class="cls-1" d="M772.43,269.59h-54.24c-.22,0-.41-.18-.41-.41v-1.64c0-.23,.18-.41,.41-.41h54.24c.22,0,.41,.18,.41,.41v1.64c0,.23-.18,.41-.41,.41h0Z"/><path class="cls-1" d="M770.86,269.59h-51.1c-.41,0-.75-.34-.75-.76v-6c0-.42,.34-.76,.75-.76h51.1c.41,0,.75,.34,.75,.76v6c0,.42-.34,.76-.75,.76h0Z"/><path class="cls-1" d="M767,199.59v-20.45c-1.95,1.61-4.87,5.29-4.87,12.96v7.49h-2.45v-7.49c0-11.49-6.57-14.06-6.57-14.06,0,0-6.57,2.58-6.57,14.06v7.49h-2.45v-7.49c0-11.49-6.57-14.06-6.57-14.06,0,0-6.57,2.58-6.57,14.06v7.49h-2.47v-7.49c0-7.66-2.91-11.35-4.85-12.96v20.45h-1.7v-26.6h46.77v26.6h-1.7Z"/><path class="cls-1" d="M772.43,329.8h-54.24c-.22,0-.41-.18-.41-.41v-1.64c0-.23,.18-.41,.41-.41h54.24c.22,0,.41,.18,.41,.41v1.64c0,.23-.18,.41-.41,.41h0Z"/><path class="cls-1" d="M770.86,329.8h-51.1c-.41,0-.75-.34-.75-.76v-6c0-.42,.34-.76,.75-.76h51.1c.41,0,.75,.34,.75,.76v6c0,.42-.34,.76-.75,.76h0Z"/><path class="cls-1" d="M772.43,390.01h-54.24c-.22,0-.41-.18-.41-.41v-1.64c0-.23,.18-.41,.41-.41h54.24c.22,0,.41,.18,.41,.41v1.64c0,.23-.18,.41-.41,.41h0Z"/><path class="cls-1" d="M770.86,390.01h-51.1c-.41,0-.75-.34-.75-.76v-6c0-.42,.34-.76,.75-.76h51.1c.41,0,.75,.34,.75,.76v6c0,.42-.34,.76-.75,.76h0Z"/><path class="cls-1" d="M1334.82,171.14v-5.78c0-20.5,22.27-25.08,22.27-25.08,0,0,22.27,4.58,22.27,25.08v5.78h-44.54Z"/><path class="cls-1" d="M1381.83,173.99h-49.47c-.44,0-.79-.36-.79-.8v-2.08c0-.44,.35-.8,.79-.8h49.47c.44,0,.79,.36,.79,.8v2.08c0,.44-.35,.8-.79,.8h0Z"/><path class="cls-1" d="M1357.09,141.82c-1.6,0-2.91-1.32-2.91-2.95s1.3-2.95,2.91-2.95,2.91,1.32,2.91,2.95-1.3,2.95-2.91,2.95h0Z"/><polygon class="cls-1" points="1356.57 137.87 1356.57 109.38 1357.62 109.38 1357.62 137.87 1356.57 137.87 1356.57 137.87"/><path class="cls-1" d="M1384.22,207.11h-54.24c-.22,0-.41-.18-.41-.41v-1.64c0-.23,.18-.41,.41-.41h54.24c.23,0,.41,.18,.41,.41v1.64c0,.23-.18,.41-.41,.41h0Z"/><polygon class="cls-1" points="1333.29 384.49 1333.29 201.73 1380.9 201.73 1380.9 384.49 1333.29 384.49 1333.29 384.49"/><path class="cls-1" d="M1382.64,207.11h-51.1c-.41,0-.75-.34-.75-.76v-6c0-.42,.34-.76,.75-.76h51.1c.41,0,.75,.34,.75,.76v6c0,.42-.34,.76-.75,.76h0Z"/><path class="cls-1" d="M1384.22,269.59h-54.24c-.22,0-.41-.18-.41-.41v-1.64c0-.23,.18-.41,.41-.41h54.24c.23,0,.41,.18,.41,.41v1.64c0,.23-.18,.41-.41,.41h0Z"/><path class="cls-1" d="M1382.64,269.59h-51.1c-.41,0-.75-.34-.75-.76v-6c0-.42,.34-.76,.75-.76h51.1c.41,0,.75,.34,.75,.76v6c0,.42-.34,.76-.75,.76h0Z"/><path class="cls-1" d="M1378.78,199.59v-20.45c-1.95,1.61-4.87,5.29-4.87,12.96v7.49h-2.45v-7.49c0-11.49-6.57-14.06-6.57-14.06,0,0-6.57,2.58-6.57,14.06v7.49h-2.45v-7.49c0-11.49-6.57-14.06-6.57-14.06,0,0-6.57,2.58-6.57,14.06v7.49h-2.47v-7.49c0-7.66-2.91-11.35-4.85-12.96v20.45h-1.7v-26.6h46.77v26.6h-1.7Z"/><path class="cls-1" d="M1384.22,329.8h-54.24c-.22,0-.41-.18-.41-.41v-1.64c0-.23,.18-.41,.41-.41h54.24c.23,0,.41,.18,.41,.41v1.64c0,.23-.18,.41-.41,.41h0Z"/><path class="cls-1" d="M1382.64,329.8h-51.1c-.41,0-.75-.34-.75-.76v-6c0-.42,.34-.76,.75-.76h51.1c.41,0,.75,.34,.75,.76v6c0,.42-.34,.76-.75,.76h0Z"/><path class="cls-1" d="M1384.22,390.01h-54.24c-.22,0-.41-.18-.41-.41v-1.64c0-.23,.18-.41,.41-.41h54.24c.23,0,.41,.18,.41,.41v1.64c0,.23-.18,.41-.41,.41h0Z"/><path class="cls-1" d="M1382.64,390.01h-51.1c-.41,0-.75-.34-.75-.76v-6c0-.42,.34-.76,.75-.76h51.1c.41,0,.75,.34,.75,.76v6c0,.42-.34,.76-.75,.76h0Z"/><polygon class="cls-1" points="0 390.01 0 259.41 701.34 259.41 701.34 390.01 0 390.01 0 390.01"/><path class="cls-1" d="M520.43,246.11v-19.64c0-12.86-8.52-15.71-8.52-15.71,0,0-8.55,2.85-8.55,15.71v19.64h-5.24v-19.64c0-12.86-8.55-15.71-8.55-15.71,0,0-8.55,2.85-8.55,15.71v19.64h-5.24v-19.64c0-12.86-8.52-15.71-8.52-15.71,0,0-8.55,2.85-8.55,15.71v19.64h-11v-45.3h83.75v45.3h-11.03Z"/><path class="cls-1" d="M450.18,195.77v-10.22c0-36.28,39.4-44.38,39.4-44.38,0,0,39.4,8.1,39.4,44.38v10.22h-78.8Z"/><path class="cls-1" d="M533.34,200.82h-87.51c-.77,0-1.4-.64-1.4-1.42v-3.68c0-.78,.63-1.42,1.4-1.42h87.51c.77,0,1.4,.64,1.4,1.42v3.68c0,.79-.63,1.42-1.4,1.42h0Z"/><path class="cls-1" d="M489.58,143.91c-2.84,0-5.14-2.33-5.14-5.21s2.3-5.21,5.14-5.21,5.14,2.33,5.14,5.21-2.3,5.21-5.14,5.21h0Z"/><polygon class="cls-1" points="488.65 114.39 488.65 86.51 490.51 86.51 490.51 114.39 488.65 114.39 488.65 114.39"/><polygon class="cls-1" points="487.58 137.78 487.58 112.7 491.59 112.7 491.59 137.78 487.58 137.78 487.58 137.78"/><path class="cls-1" d="M542.28,259.41h-105.39c-.42,0-.75-.34-.75-.77v-2.84c0-.42,.34-.77,.75-.77h105.39c.42,0,.75,.34,.75,.77v2.84c0,.42-.34,.77-.75,.77h0Z"/><path class="cls-1" d="M539.26,259.41h-99.36c-.77,0-1.39-.63-1.39-1.41v-10.48c0-.78,.62-1.41,1.39-1.41h99.36c.77,0,1.39,.63,1.39,1.41v10.48c0,.78-.62,1.41-1.39,1.41h0Z"/><path class="cls-1" d="M555.34,255.55v-7.81c0-27.72,30.11-33.91,30.11-33.91,0,0,30.11,6.19,30.11,33.91v7.81h-60.21Z"/><path class="cls-1" d="M618.88,259.41h-66.87c-.59,0-1.07-.49-1.07-1.09v-2.81c0-.6,.48-1.09,1.07-1.09h66.87c.59,0,1.07,.49,1.07,1.09v2.81c0,.6-.48,1.09-1.07,1.09h0Z"/><path class="cls-1" d="M585.45,215.93c-2.17,0-3.93-1.78-3.93-3.98s1.76-3.99,3.93-3.99,3.93,1.78,3.93,3.99-1.76,3.98-3.93,3.98h0Z"/><polygon class="cls-1" points="584.3 211.25 585.45 192.08 586.59 211.25 584.3 211.25 584.3 211.25"/><path class="cls-1" d="M363.86,255.55v-7.81c0-27.72,30.11-33.91,30.11-33.91,0,0,30.11,6.19,30.11,33.91v7.81h-60.21Z"/><path class="cls-1" d="M427.4,259.41h-66.87c-.59,0-1.07-.49-1.07-1.09v-2.81c0-.6,.48-1.09,1.07-1.09h66.87c.59,0,1.07,.49,1.07,1.09v2.81c0,.6-.48,1.09-1.07,1.09h0Z"/><path class="cls-1" d="M393.97,215.93c-2.17,0-3.93-1.78-3.93-3.98s1.76-3.99,3.93-3.99,3.93,1.78,3.93,3.99-1.76,3.98-3.93,3.98h0Z"/><polygon class="cls-1" points="392.82 211.25 393.97 192.08 395.11 211.25 392.82 211.25 392.82 211.25"/><path class="cls-1" d="M83.21,255.55v-7.81c0-27.72,30.11-33.91,30.11-33.91,0,0,30.11,6.19,30.11,33.91v7.81h-60.21Z"/><path class="cls-1" d="M146.75,259.41H79.88c-.59,0-1.07-.49-1.07-1.09v-2.81c0-.6,.48-1.09,1.07-1.09h66.87c.59,0,1.07,.49,1.07,1.09v2.81c0,.6-.48,1.09-1.07,1.09h0Z"/><path class="cls-1" d="M113.32,215.93c-2.17,0-3.93-1.78-3.93-3.98s1.76-3.99,3.93-3.99,3.93,1.78,3.93,3.99-1.76,3.98-3.93,3.98h0Z"/><polygon class="cls-1" points="112.17 211.25 113.32 192.08 114.46 211.25 112.17 211.25 112.17 211.25"/><path class="cls-1" d="M320.32,390.01v-48.29c0-27.66-18.33-33.8-18.33-33.8,0,0-18.39,6.14-18.39,33.8v48.29h-11.28v-48.29c0-27.66-18.39-33.8-18.39-33.8,0,0-18.39,6.14-18.39,33.8v48.29h-11.28v-48.29c0-27.66-18.33-33.8-18.33-33.8,0,0-18.39,6.14-18.39,33.8v48.29h-23.67V245.9h180.17v144.11h-23.72Z"/><path class="cls-1" d="M169.19,235.04v-21.99c0-78.04,84.76-95.47,84.76-95.47,0,0,84.76,17.43,84.76,95.47v21.99H169.19Z"/><path class="cls-1" d="M348.09,245.9H159.82c-1.67,0-3.02-1.37-3.02-3.06v-7.92c0-1.69,1.35-3.06,3.02-3.06h188.26c1.67,0,3.02,1.37,3.02,3.06v7.92c0,1.69-1.35,3.06-3.02,3.06h0Z"/><path class="cls-1" d="M355.13,248.66H152.78c-.61,0-1.1-.5-1.1-1.11v-3.29c0-.61,.49-1.11,1.1-1.11h202.35c.6,0,1.09,.5,1.09,1.11v3.29c0,.61-.49,1.11-1.09,1.11h0Z"/><path class="cls-1" d="M253.95,123.48c-6.11,0-11.06-5.02-11.06-11.22s4.95-11.22,11.06-11.22,11.06,5.02,11.06,11.22-4.95,11.22-11.06,11.22h0Z"/><polygon class="cls-1" points="251.96 59.99 251.96 0 255.95 0 255.95 59.99 251.96 59.99 251.96 59.99"/><polygon class="cls-1" points="249.64 110.3 249.64 56.33 258.27 56.33 258.27 110.3 249.64 110.3 249.64 110.3"/><path class="cls-1" d="M632.42,171.14v-5.78c0-20.5,22.27-25.08,22.27-25.08,0,0,22.27,4.58,22.27,25.08v5.78h-44.54Z"/><path class="cls-1" d="M679.42,173.99h-49.47c-.44,0-.79-.36-.79-.8v-2.08c0-.44,.35-.8,.79-.8h49.47c.44,0,.79,.36,.79,.8v2.08c0,.44-.35,.8-.79,.8h0Z"/><path class="cls-1" d="M654.69,141.82c-1.6,0-2.91-1.32-2.91-2.95s1.3-2.95,2.91-2.95,2.91,1.32,2.91,2.95-1.3,2.95-2.91,2.95h0Z"/><polygon class="cls-1" points="654.16 137.87 654.16 109.38 655.21 109.38 655.21 137.87 654.16 137.87 654.16 137.87"/><path class="cls-1" d="M681.81,207.11h-54.24c-.22,0-.41-.18-.41-.41v-1.64c0-.23,.18-.41,.41-.41h54.24c.22,0,.41,.18,.41,.41v1.64c0,.23-.18,.41-.41,.41h0Z"/><polygon class="cls-1" points="630.89 384.49 630.89 201.73 678.49 201.73 678.49 384.49 630.89 384.49 630.89 384.49"/><path class="cls-1" d="M680.24,207.11h-51.1c-.41,0-.75-.34-.75-.76v-6c0-.42,.34-.76,.75-.76h51.1c.41,0,.75,.34,.75,.76v6c0,.42-.34,.76-.75,.76h0Z"/><path class="cls-1" d="M681.81,269.59h-54.24c-.22,0-.41-.18-.41-.41v-1.64c0-.23,.18-.41,.41-.41h54.24c.22,0,.41,.18,.41,.41v1.64c0,.23-.18,.41-.41,.41h0Z"/><path class="cls-1" d="M680.24,269.59h-51.1c-.41,0-.75-.34-.75-.76v-6c0-.42,.34-.76,.75-.76h51.1c.41,0,.75,.34,.75,.76v6c0,.42-.34,.76-.75,.76h0Z"/><path class="cls-1" d="M676.37,199.59v-20.45c-1.94,1.61-4.85,5.3-4.85,12.96v7.49h-2.47v-7.49c0-11.49-6.57-14.06-6.57-14.06,0,0-6.57,2.58-6.57,14.06v7.49h-2.45v-7.49c0-11.49-6.57-14.06-6.57-14.06,0,0-6.57,2.58-6.57,14.06v7.49h-2.45v-7.49c0-7.67-2.93-11.35-4.87-12.96v20.45h-1.7v-26.6h46.77v26.6h-1.7Z"/><path class="cls-1" d="M681.81,329.8h-54.24c-.22,0-.41-.18-.41-.41v-1.64c0-.23,.18-.41,.41-.41h54.24c.22,0,.41,.18,.41,.41v1.64c0,.23-.18,.41-.41,.41h0Z"/><path class="cls-1" d="M680.24,329.8h-51.1c-.41,0-.75-.34-.75-.76v-6c0-.42,.34-.76,.75-.76h51.1c.41,0,.75,.34,.75,.76v6c0,.42-.34,.76-.75,.76h0Z"/><path class="cls-1" d="M681.81,390.01h-54.24c-.22,0-.41-.18-.41-.41v-1.64c0-.23,.18-.41,.41-.41h54.24c.22,0,.41,.18,.41,.41v1.64c0,.23-.18,.41-.41,.41h0Z"/><path class="cls-1" d="M680.24,390.01h-51.1c-.41,0-.75-.34-.75-.76v-6c0-.42,.34-.76,.75-.76h51.1c.41,0,.75,.34,.75,.76v6c0,.42-.34,.76-.75,.76h0Z"/><path class="cls-1" d="M20.63,171.14v-5.78c0-20.5,22.27-25.08,22.27-25.08,0,0,22.27,4.58,22.27,25.08v5.78H20.63Z"/><path class="cls-1" d="M67.64,173.99H18.17c-.44,0-.79-.36-.79-.8v-2.08c0-.44,.35-.8,.79-.8h49.47c.44,0,.79,.36,.79,.8v2.08c0,.44-.35,.8-.79,.8h0Z"/><path class="cls-1" d="M42.91,141.82c-1.6,0-2.91-1.32-2.91-2.95s1.3-2.95,2.91-2.95,2.91,1.32,2.91,2.95-1.3,2.95-2.91,2.95h0Z"/><polygon class="cls-1" points="42.38 137.87 42.38 109.38 43.43 109.38 43.43 137.87 42.38 137.87 42.38 137.87"/><path class="cls-1" d="M70.03,207.11H15.78c-.23,0-.41-.18-.41-.41v-1.64c0-.23,.18-.41,.41-.41h54.24c.22,0,.41,.18,.41,.41v1.64c0,.23-.18,.41-.41,.41h0Z"/><polygon class="cls-1" points="19.1 384.49 19.1 201.73 66.71 201.73 66.71 384.49 19.1 384.49 19.1 384.49"/><path class="cls-1" d="M68.45,207.11H17.36c-.41,0-.75-.34-.75-.76v-6c0-.42,.34-.76,.75-.76h51.1c.41,0,.75,.34,.75,.76v6c0,.42-.34,.76-.75,.76h0Z"/><path class="cls-1" d="M70.03,269.59H15.78c-.23,0-.41-.18-.41-.41v-1.64c0-.23,.18-.41,.41-.41h54.24c.22,0,.41,.18,.41,.41v1.64c0,.23-.18,.41-.41,.41h0Z"/><path class="cls-1" d="M68.45,269.59H17.36c-.41,0-.75-.34-.75-.76v-6c0-.42,.34-.76,.75-.76h51.1c.41,0,.75,.34,.75,.76v6c0,.42-.34,.76-.75,.76h0Z"/><path class="cls-1" d="M64.59,199.59v-20.45c-1.94,1.61-4.85,5.3-4.85,12.96v7.49h-2.47v-7.49c0-11.49-6.57-14.06-6.57-14.06,0,0-6.57,2.58-6.57,14.06v7.49h-2.45v-7.49c0-11.49-6.57-14.06-6.57-14.06,0,0-6.57,2.58-6.57,14.06v7.49h-2.45v-7.49c0-7.67-2.93-11.35-4.87-12.96v20.45h-1.7v-26.6h46.77v26.6h-1.7Z"/><path class="cls-1" d="M70.03,329.8H15.78c-.23,0-.41-.18-.41-.41v-1.64c0-.23,.18-.41,.41-.41h54.24c.22,0,.41,.18,.41,.41v1.64c0,.23-.18,.41-.41,.41h0Z"/><path class="cls-1" d="M68.45,329.8H17.36c-.41,0-.75-.34-.75-.76v-6c0-.42,.34-.76,.75-.76h51.1c.41,0,.75,.34,.75,.76v6c0,.42-.34,.76-.75,.76h0Z"/><path class="cls-1" d="M70.03,390.01H15.78c-.23,0-.41-.18-.41-.41v-1.64c0-.23,.18-.41,.41-.41h54.24c.22,0,.41,.18,.41,.41v1.64c0,.23-.18,.41-.41,.41h0Z"/><path class="cls-1" d="M68.45,390.01H17.36c-.41,0-.75-.34-.75-.76v-6c0-.42,.34-.76,.75-.76h51.1c.41,0,.75,.34,.75,.76v6c0,.42-.34,.76-.75,.76h0Z"/></svg>