<?xml version="1.0" encoding="UTF-8"?><svg id="Layer_1" xmlns="http://www.w3.org/2000/svg" viewBox="0 0 14.95 14.94"><defs><style>.cls-1{fill:#fff;}</style></defs><path class="cls-1" d="M8.45,.64l1.46,3.03c.17,.34,.48,.58,.85,.63l3.23,.47c.92,.13,1.29,1.31,.63,1.98l-2.32,2.38c-.26,.27-.38,.66-.32,1.03l.57,3.34c.16,.95-.79,1.68-1.62,1.24l-2.89-1.56c-.33-.18-.72-.17-1.04,0l-2.88,1.6c-.82,.45-1.78-.27-1.63-1.22l.53-3.35c.06-.38-.06-.76-.33-1.03L.34,6.85c-.67-.67-.31-1.85,.61-1.99l3.22-.51c.36-.06,.68-.3,.84-.64L6.44,.66c.41-.87,1.59-.88,2.01-.01h0Z"/></svg>